<?xml version="1.0" encoding="UTF-8"?>
<svg width="16px" height="16px" viewBox="0 0 16 16" version="1.1" xmlns="http://www.w3.org/2000/svg" xmlns:xlink="http://www.w3.org/1999/xlink">
    <title>weekly</title>
    <g id="det门户" stroke="none" stroke-width="1" fill="none" fill-rule="evenodd">
        <g id="价格" transform="translate(-680.000000, -332.000000)" fill="#F66442" fill-rule="nonzero">
            <g id="编组-42" transform="translate(360.000000, 302.000000)">
                <g id="weekly" transform="translate(320.000000, 30.000000)">
                    <path d="M6.3150102,4.39419999 C6.13338076,3.86806507 5.83790475,3.86865998 5.6585427,4.39562777 L4.64561847,7.37051501 C4.46625642,7.89748279 3.88711866,8.47525556 3.35857938,8.65444126 L0.39701712,9.65864269 C-0.131402823,9.8378284 -0.132476847,10.1340916 0.394630399,10.3170847 L3.33841159,11.3388954 C3.86551884,11.5218885 4.44537261,12.1020409 4.62700205,12.6282948 L5.65436593,15.6059186 C5.83587604,16.1321725 6.13051669,16.1312206 6.30892406,15.6038959 L7.31194339,12.639241 C7.49023142,12.1119163 8.06829515,11.5329537 8.59635709,11.3526972 L11.6043411,10.3255324 C12.132403,10.1452758 12.1318063,9.85186818 11.6030284,9.67363432 L8.64265947,8.67526298 C8.11388152,8.49691014 7.53259571,7.92056515 7.35096628,7.39443023 L6.3150102,4.39419999 Z" id="路径"></path>
                    <path d="M12.2100068,0.262799995 C12.0889205,-0.0879566181 11.8919365,-0.087560014 11.7723618,0.263751844 L11.097079,2.24701 C10.9775043,2.59832186 10.5914124,2.98350371 10.2390529,3.10296084 L8.26467808,3.77242846 C7.91239812,3.8918856 7.9116821,4.08939441 8.26308693,4.21138981 L10.2256077,4.89259691 C10.5770126,5.01459231 10.9635817,5.40136057 11.084668,5.75219651 L11.7695773,7.73727904 C11.890584,8.08811498 12.0870111,8.08748041 12.2059494,7.73593059 L12.8746289,5.75949402 C12.9934876,5.4079442 13.3788634,5.02196915 13.7309047,4.90179812 L15.7362274,4.21702159 C16.0882687,4.09685057 16.0878709,3.90124545 15.7353522,3.78242288 L13.761773,3.11684198 C13.4092543,2.99794009 13.0217305,2.6137101 12.9006442,2.26295349 L12.2100068,0.262799995 Z" id="路径"></path>
                </g>
            </g>
        </g>
    </g>
</svg>