<?xml version="1.0" encoding="UTF-8"?>
<svg width="32px" height="32px" viewBox="0 0 32 32" version="1.1" xmlns="http://www.w3.org/2000/svg" xmlns:xlink="http://www.w3.org/1999/xlink">
    <title>Guide</title>
    <g id="det门户" stroke="none" stroke-width="1" fill="none" fill-rule="evenodd">
        <g id="价格" transform="translate(-360.000000, -2692.000000)" fill-rule="nonzero">
            <g id="编组-2备份-21" transform="translate(360.000000, 2668.000000)">
                <g id="mine备份" transform="translate(0.000000, 24.000000)">
                    <g id="编组" transform="translate(2.000000, 2.000000)">
                        <path d="M22.727499,28.3135628 L5.2741601,28.3135628 C2.36084612,28.3135628 0,25.9527167 0,23.0394027 L0,9.48486105 C0,6.57154708 2.36084612,4.21070095 5.2741601,4.21070095 L22.7258399,4.21070095 C25.6391539,4.21070095 28,6.57154708 28,9.48486105 L28,23.0394027 C28,25.9510577 25.6391539,28.3135628 22.727499,28.3135628 Z" id="路径" fill="#F85F69"></path>
                        <path d="M22.727499,4.21070095 L20.9025301,4.21070095 L20.9025301,4.18913314 C20.9025301,1.8780589 19.0228121,0 16.7133969,0 L11.1621734,0 C8.85109913,0 6.97304023,1.87971796 6.97304023,4.18913314 L6.97304023,4.21070095 L5.2741601,4.21070095 C2.36084612,4.21070095 0,6.57154708 0,9.48486105 L0,15.4359187 L28,15.4359187 L28,9.48486105 C28,6.57154708 25.6391539,4.21070095 22.727499,4.21070095 Z M9.29572791,4.18913314 C9.29572791,3.15885525 10.1335545,2.32268768 11.1621734,2.32268768 L16.7117379,2.32268768 C17.7420158,2.32268768 18.5781833,3.16051431 18.5781833,4.18913314 L18.5781833,4.21070095 L9.29572791,4.21070095 L9.29572791,4.18913314 Z" id="形状" fill="#F33B3D"></path>
                        <path d="M13.9377852,20.4595603 C11.5188718,20.4595603 9.5495645,18.4919121 9.5495645,16.0713397 C9.5495645,13.6507673 11.5172128,11.683119 13.9377852,11.683119 C16.3583575,11.683119 18.3260058,13.6507673 18.3260058,16.0713397 C18.3260058,18.4919121 16.3566985,20.4595603 13.9377852,20.4595603 Z M13.9377852,14.3376192 C12.9821651,14.3376192 12.2040647,15.1157196 12.2040647,16.0713397 C12.2040647,17.0269598 12.9821651,17.8050601 13.9377852,17.8050601 C14.8934052,17.8050601 15.6715056,17.0269598 15.6715056,16.0713397 C15.6698465,15.1157196 14.8934052,14.3376192 13.9377852,14.3376192 Z" id="形状" fill="#FFFFFF"></path>
                    </g>
                </g>
            </g>
        </g>
    </g>
</svg>