<?xml version="1.0" encoding="UTF-8"?>
<svg width="32px" height="32px" viewBox="0 0 32 32" version="1.1" xmlns="http://www.w3.org/2000/svg" xmlns:xlink="http://www.w3.org/1999/xlink">
    <title>Mock</title>
    <g id="det门户" stroke="none" stroke-width="1" fill="none" fill-rule="evenodd">
        <g id="价格" transform="translate(-360.000000, -1588.000000)" fill-rule="nonzero">
            <g id="编组-2备份" transform="translate(360.000000, 1564.000000)">
                <g id="mine备份" transform="translate(0.000000, 24.000000)">
                    <g id="编组" transform="translate(2.670118, 1.352583)">
                        <path d="M20.9457255,29.3057255 L4.48627451,29.3057255 C2.00847059,29.3057255 0,27.2972549 0,24.819451 L0,7.9734902 C0,5.49568627 2.00847059,3.48721569 4.48627451,3.48721569 L20.9457255,3.48721569 C23.4235294,3.48721569 25.432,5.49568627 25.432,7.9734902 L25.432,24.819451 C25.432,27.2955294 23.4235294,29.3057255 20.9457255,29.3057255 L20.9457255,29.3057255 Z" id="路径" fill="#FFAC3E"></path>
                        <path d="M16.9632941,7.86305882 L8.46698039,7.86305882 C6.62243137,7.86305882 5.12643137,6.36705882 5.12643137,4.5225098 L5.12643137,3.34054902 C5.12643137,1.496 6.62243137,0 8.46698039,0 L16.9632941,0 C18.8078431,0 20.3038431,1.496 20.3038431,3.34054902 L20.3038431,4.5225098 C20.3038431,6.36705882 18.8095686,7.86305882 16.9632941,7.86305882 Z" id="路径" fill="#FFAC3E"></path>
                        <path d="M5.12815686,3.48721569 L5.12815686,4.5225098 C5.12815686,6.36705882 6.62415686,7.86305882 8.46870588,7.86305882 L16.9650196,7.86305882 C18.8095686,7.86305882 20.3055686,6.36705882 20.3055686,4.5225098 L20.3055686,3.48721569 L5.12815686,3.48721569 Z" id="路径" fill="#FF7C0E"></path>
                        <path d="M11.4227451,20.516082 C11.0690196,20.516082 10.7152941,20.3814902 10.4461176,20.1123137 L7.75262745,17.4188235 C7.21427451,16.8804706 7.21427451,16.0056471 7.75262745,15.4672941 C8.29270588,14.9289412 9.16580392,14.9289412 9.70415686,15.4672941 L11.446902,17.2100392 L15.7312941,13.1534118 C15.9971043,12.901571 16.3521134,12.7657075 16.7181436,12.7757401 C17.0841739,12.7857728 17.4312077,12.9408789 17.6828235,13.206902 C17.9346643,13.4727121 18.0705278,13.8277213 18.0604952,14.1937515 C18.0504625,14.5597817 17.8953564,14.9068156 17.6293333,15.1584314 L12.3700392,20.1381961 C12.1147604,20.3815109 11.7754046,20.5168823 11.4227451,20.516082 Z" id="路径" fill="#FFFFFF"></path>
                    </g>
                </g>
            </g>
        </g>
    </g>
</svg>