<?xml version="1.0" encoding="UTF-8"?>
<svg width="32px" height="32px" viewBox="0 0 32 32" version="1.1" xmlns="http://www.w3.org/2000/svg" xmlns:xlink="http://www.w3.org/1999/xlink">
    <title>course</title>
    <g id="det门户" stroke="none" stroke-width="1" fill="none" fill-rule="evenodd">
        <g id="价格" transform="translate(-360.000000, -2860.000000)" fill-rule="nonzero">
            <g id="编组-2备份-24" transform="translate(360.000000, 2836.000000)">
                <g id="mine备份" transform="translate(0.000000, 24.000000)">
                    <g id="编组" transform="translate(1.254902, 1.254902)">
                        <path d="M20.4060566,29.4901961 L4.59954461,29.4901961 C2.05918074,29.4901961 0,27.4260597 0,24.8795821 L0,4.61061394 C0,2.06413639 2.05918074,0 4.59954461,0 L20.4060566,0 C22.9464205,0 25.0056012,2.06413639 25.0056012,4.61061394 L25.0056012,24.8813555 C25.0056012,27.4260597 22.9446514,29.4901961 20.4060566,29.4901961 L20.4060566,29.4901961 Z" id="路径" fill="#4BE2AC"></path>
                        <path d="M18.1664322,8.37003761 L6.93292898,8.37003761 C6.15100639,8.37003761 5.51768448,7.73519154 5.51768448,6.95138717 C5.51768448,6.1675828 6.15100639,5.53273673 6.93292898,5.53273673 L18.1664322,5.53273673 C18.9483548,5.53273673 19.5816767,6.1675828 19.5816767,6.95138717 C19.5816767,7.73519154 18.9483548,8.37003761 18.1664322,8.37003761 Z M18.1664322,13.9949866 L6.93292898,13.9949866 C6.15100639,13.9949866 5.51768448,13.3601405 5.51768448,12.5763362 C5.51768448,11.7925318 6.15100639,11.1576857 6.93292898,11.1576857 L18.1664322,11.1576857 C18.9483548,11.1576857 19.5816767,11.7925318 19.5816767,12.5763362 C19.5816767,13.3601405 18.9483548,13.9949866 18.1664322,13.9949866 Z M12.3126271,19.6181623 L6.93469803,19.6181623 C6.15277545,19.6181623 5.51945354,18.9833162 5.51945354,18.1995119 C5.51945354,17.4157075 6.15277545,16.7808614 6.93469803,16.7808614 L12.3143962,16.7808614 C13.0963188,16.7808614 13.7296407,17.4157075 13.7296407,18.1995119 C13.7296407,18.9833162 13.0945497,19.6181623 12.3126271,19.6181623 Z" id="形状" fill="#FFFFFF"></path>
                        <path d="M15.4226269,22.794166 C15.4226269,26.4276426 18.36107,29.3731574 21.9858233,29.3731574 C25.6105765,29.3731574 28.5490196,26.4276426 28.5490196,22.794166 C28.5490196,19.1606894 25.6105765,16.2151746 21.9858233,16.2151746 C18.36107,16.2151746 15.4226269,19.1606894 15.4226269,22.794166 Z" id="路径" fill="#69EDB7"></path>
                        <path d="M21.9946685,16.2222678 C18.3698736,16.2222678 15.4314722,19.1677408 15.4314722,22.8012592 C15.4314722,26.2645396 18.1009771,29.1000672 21.4904877,29.3589709 C23.5072111,28.8713098 25.0073703,27.0501173 25.0073703,24.8778088 L25.0073703,16.9528728 C24.0753981,16.4726143 23.042578,16.2222678 21.9946685,16.2222678 L21.9946685,16.2222678 Z" id="路径" fill="#06CC76"></path>
                        <polygon id="路径" fill="#FFFFFF" points="18.2796517 26.2911393 20.6236504 21.5900864 25.8370573 19.293646 23.0136446 23.9290863"></polygon>
                    </g>
                </g>
            </g>
        </g>
    </g>
</svg>