<?xml version="1.0" encoding="UTF-8"?>
<svg width="32px" height="32px" viewBox="0 0 32 32" version="1.1" xmlns="http://www.w3.org/2000/svg" xmlns:xlink="http://www.w3.org/1999/xlink">
    <title>ai</title>
    <g id="det门户" stroke="none" stroke-width="1" fill="none" fill-rule="evenodd">
        <g id="价格" transform="translate(-360.000000, -2428.000000)" fill-rule="nonzero">
            <g id="编组-2备份-16" transform="translate(360.000000, 2404.000000)">
                <g id="mine备份" transform="translate(0.000000, 24.000000)">
                    <g id="编组" transform="translate(1.000000, 2.000000)">
                        <path d="M25.4113023,19 L10.3839581,19 C7.84949299,19 5.79526034,16.7799164 5.79526034,14.0408282 L5.79526034,4.95917177 C5.79526034,2.2200836 7.84949299,0 10.3839581,0 L25.4113023,0 C27.9457673,0 30,2.2200836 30,4.95917177 L30,14.0408282 C30,16.7799164 27.9457673,19 25.4113023,19 Z" id="路径" fill="#9572EF"></path>
                        <path d="M20.5747978,6.89335764 L4.92537313,6.89335764 C2.20462573,6.89335764 0,9.09798337 0,11.8187308 L0,20.256124 C0,22.9768714 2.20462573,25.1814971 4.92537313,25.1814971 L5.78158824,25.1814971 C6.07382933,25.1814971 6.31138202,25.4190498 6.31138202,25.7112909 L6.31138202,27.5843682 C6.31138202,27.975732 6.72325396,28.2320839 7.07360146,28.0594736 L12.8295545,25.2361855 C12.901333,25.2002962 12.9816566,25.1814971 13.0636892,25.1814971 L20.5765068,25.1814971 C23.2972542,25.1814971 25.5018799,22.9768714 25.5018799,20.256124 L25.5018799,11.8187308 C25.5001709,9.09798337 23.2955452,6.89335764 20.5747978,6.89335764 Z" id="路径" fill="#9572EF"></path>
                        <path d="M20.2928108,6.89335764 L5.92514527,6.89335764 L5.79696935,7.02153355 L5.79696935,13.7191523 C5.79696935,16.6347271 8.16053321,19 11.077817,19 L24.7208613,19 C24.9857582,19 25.2472371,18.9794919 25.5018799,18.9418936 L25.5018799,12.1024268 C25.5001709,9.22445027 23.1690783,6.89335764 20.2928108,6.89335764 Z" id="路径" fill="#6936E9"></path>
                        <g id="AI" transform="translate(6.204000, 11.887392)" fill="#FFFFFF">
                            <path d="M8.52,7.392 C8.584,7.536 8.616,7.664 8.616,7.776 C8.616,8 8.526,8.19 8.346,8.346 C8.166,8.502 7.96,8.58 7.728,8.58 C7.576,8.58 7.432,8.538 7.296,8.454 C7.16,8.37 7.056,8.244 6.984,8.076 L6.348,6.66 L2.28,6.66 L1.644,8.076 C1.572,8.244 1.47,8.37 1.338,8.454 C1.206,8.538 1.06,8.58 0.9,8.58 C0.668,8.58 0.46,8.502 0.276,8.346 C0.092,8.19 0,8 0,7.776 C0,7.664 0.032,7.536 0.096,7.392 L3.336,0.588 C3.424,0.396 3.556,0.25 3.732,0.15 C3.908,0.05 4.096,0 4.296,0 C4.504,0 4.696,0.052 4.872,0.156 C5.048,0.26 5.184,0.404 5.28,0.588 L8.52,7.392 Z M2.916,5.244 L5.712,5.244 L4.32,2.124 L2.916,5.244 Z" id="形状"></path>
                            <path d="M10.584,8.604 C10.296,8.604 10.068,8.52 9.9,8.352 C9.732,8.184 9.648,7.956 9.648,7.668 L9.648,0.936 C9.648,0.656 9.732,0.432 9.9,0.264 C10.068,0.096 10.296,0.012 10.584,0.012 C10.872,0.012 11.1,0.096 11.268,0.264 C11.436,0.432 11.52,0.656 11.52,0.936 L11.52,7.668 C11.52,7.956 11.436,8.184 11.268,8.352 C11.1,8.52 10.872,8.604 10.584,8.604 Z" id="路径"></path>
                        </g>
                    </g>
                </g>
            </g>
        </g>
    </g>
</svg>