<?xml version="1.0" encoding="UTF-8"?>
<svg width="56px" height="56px" viewBox="0 0 56 56" version="1.1" xmlns="http://www.w3.org/2000/svg" xmlns:xlink="http://www.w3.org/1999/xlink">
    <title>编组备份</title>
    <g id="det门户" stroke="none" stroke-width="1" fill="none" fill-rule="evenodd">
        <g id="Course" transform="translate(-474.000000, -1540.000000)" fill="#F66442" fill-rule="nonzero">
            <g id="编组-13" transform="translate(360.000000, 1516.000000)">
                <g id="编组备份" transform="translate(114.000000, 24.000000)">
                    <path d="M22.0158833,18.1078968 L9.75338333,18.1078968 C9.40963333,18.1078968 9.12838333,18.3893667 9.12838333,18.7333855 C9.12838333,19.0774042 9.40963333,19.3588741 9.75338333,19.3588741 L22.0158833,19.3588741 C22.3596333,19.3588741 22.6408833,19.0774042 22.6408833,18.7333855 C22.6408833,18.3893667 22.3596333,18.1078968 22.0158833,18.1078968 Z M22.0158833,9.66379984 L9.75338333,9.66379984 C9.40963333,9.66379984 9.12838333,9.94526974 9.12838333,10.2892885 C9.12838333,10.6333073 9.40963333,10.9147772 9.75338333,10.9147772 L22.0158833,10.9147772 C22.3596333,10.9147772 22.6408833,10.6333073 22.6408833,10.2892885 C22.6408833,9.94526974 22.3596333,9.66379984 22.0158833,9.66379984 Z M22.0158833,13.8858483 L9.75338333,13.8858483 C9.40963333,13.8858483 9.12838333,14.1673182 9.12838333,14.511337 C9.12838333,14.8553557 9.40963333,15.1368256 9.75338333,15.1368256 L22.0158833,15.1368256 C22.3596333,15.1368256 22.6408833,14.8553557 22.6408833,14.511337 C22.6408833,14.1673182 22.3596333,13.8858483 22.0158833,13.8858483 Z" id="形状"></path>
                    <path d="M52.125,8.07505864 L52.125,3.15871775 C52.125,2.58952306 51.6625,2.12666145 51.09375,2.12666145 L47.0125,2.12666145 L47.01875,0.625488663 C47.01875,0.456606724 46.95625,0.300234558 46.8375,0.181391712 C46.71875,0.0625488663 46.5625,0 46.39375,0 L41.8375,0 C41.49375,0 41.2125,0.281469898 41.2125,0.625488663 L41.2125,2.12666145 L4.90625,2.12666145 C4.3375,2.12666145 3.875,2.58952306 3.875,3.15871775 L3.875,8.07505864 C1.675,8.45660672 0,10.3768569 0,12.6849101 L0,48.2251759 C0,50.8021892 2.1,52.9038311 4.675,52.9038311 L23.3125,52.9038311 L24.18125,55.3182174 C24.33125,55.7310399 24.71875,56 25.15,56 L30.70625,56 C31.14375,56 31.53125,55.724785 31.675,55.3182174 L32.54375,52.9038311 L51.325,52.9038311 C53.9,52.9038311 56,50.8021892 56,48.2251759 L56,12.6849101 C56,10.3768569 54.31875,8.45660672 52.125,8.07505864 Z M42.4625,1.25097733 L45.7625,1.25097733 L45.73125,12.303362 L44.4125,11.4151681 C44.30625,11.3463643 44.1875,11.308835 44.0625,11.308835 C43.9375,11.308835 43.81875,11.3463643 43.7125,11.4151681 L42.4625,12.2720876 L42.4625,1.25097733 L42.4625,1.25097733 Z M29.03125,4.19077404 L41.2125,4.19077404 L41.2125,13.4542611 C41.2125,13.6856919 41.3375,13.8983581 41.54375,14.0046912 C41.75,14.1110242 41.99375,14.0985145 42.1875,13.9671618 L44.06875,12.6849101 L46.00625,13.9921814 C46.1125,14.0609851 46.23125,14.0985145 46.35625,14.0985145 C46.45625,14.0985145 46.55625,14.0734949 46.65,14.0234558 C46.85625,13.9171228 46.98125,13.7044566 46.98125,13.4730258 L47.00625,4.18451916 L50.0625,4.18451916 L50.0625,43.7216575 L29.03125,43.7216575 L29.03125,4.19077404 Z M5.9375,4.19077404 L26.96875,4.19077404 L26.96875,43.7279124 L5.9375,43.7279124 L5.9375,4.19077404 Z M53.9375,48.2251759 C53.9375,49.6637998 52.76875,50.8397185 51.325,50.8397185 L31.8125,50.8397185 C31.375,50.8397185 30.9875,51.1149335 30.84375,51.5215012 L29.975,53.9358874 L25.86875,53.9358874 L25.00625,51.5215012 C24.85625,51.1086787 24.46875,50.8397185 24.0375,50.8397185 L4.675,50.8397185 C3.2375,50.8397185 2.0625,49.6700547 2.0625,48.2251759 L2.0625,12.6849101 C2.0625,11.5215012 2.825,10.5332291 3.875,10.1954652 L3.875,44.7599687 C3.875,45.3291634 4.3375,45.792025 4.90625,45.792025 L51.09375,45.792025 C51.6625,45.792025 52.125,45.3291634 52.125,44.7599687 L52.125,10.1954652 C53.175,10.5332291 53.9375,11.5215012 53.9375,12.6849101 L53.9375,48.2251759 Z" id="形状"></path>
                </g>
            </g>
        </g>
    </g>
</svg>