<?xml version="1.0" encoding="UTF-8"?>
<svg width="56px" height="56px" viewBox="0 0 56 56" version="1.1" xmlns="http://www.w3.org/2000/svg" xmlns:xlink="http://www.w3.org/1999/xlink">
    <title>redading_nor</title>
    <g id="det门户" stroke="none" stroke-width="1" fill="none" fill-rule="evenodd">
        <g id="Course" transform="translate(-260.000000, -1994.000000)" fill-rule="nonzero">
            <g id="redading_nor" transform="translate(260.000000, 1994.000000)">
                <path d="M22.0301711,18.0905418 L9.79098384,18.0905418 C9.44788736,18.0905418 9.16717205,18.3712571 9.16717205,18.7143536 C9.16717205,19.0574501 9.44788736,19.3381654 9.79098384,19.3381654 L22.0301711,19.3381654 C22.3732676,19.3381654 22.6539829,19.0574501 22.6539829,18.7143536 C22.6539829,18.3712571 22.3732676,18.0905418 22.0301711,18.0905418 Z M22.0301711,9.6690827 L9.79098384,9.6690827 C9.44788736,9.6690827 9.16717205,9.949798 9.16717205,10.2928945 C9.16717205,10.635991 9.44788736,10.9167063 9.79098384,10.9167063 L22.0301711,10.9167063 C22.3732676,10.9167063 22.6539829,10.635991 22.6539829,10.2928945 C22.6539829,9.949798 22.3732676,9.6690827 22.0301711,9.6690827 Z M22.0301711,13.8798123 L9.79098384,13.8798123 C9.44788736,13.8798123 9.16717205,14.1605276 9.16717205,14.503624 C9.16717205,14.8467205 9.44788736,15.1274358 9.79098384,15.1274358 L22.0301711,15.1274358 C22.3732676,15.1274358 22.6539829,14.8467205 22.6539829,14.503624 C22.6539829,14.1605276 22.3732676,13.8798123 22.0301711,13.8798123 Z" id="形状" fill="#F66442"></path>
                <path d="M52.0820461,8.08460076 L52.0820461,3.18144011 C52.0820461,2.61377139 51.6204254,2.15215067 51.0527567,2.15215067 L46.9792657,2.15215067 L46.9855038,0.655002376 C46.9855038,0.486573194 46.9231226,0.330620247 46.8045984,0.212096008 C46.6860741,0.0935717681 46.5301212,0.0311905894 46.361692,0.0311905894 L41.8141041,0.0311905894 C41.4710076,0.0311905894 41.1902923,0.311905894 41.1902923,0.655002376 L41.1902923,2.15215067 L4.95306559,2.15215067 C4.38539686,2.15215067 3.92377614,2.61377139 3.92377614,3.18144011 L3.92377614,8.08460076 C1.72795865,8.46512595 0.0561430608,10.3802281 0.0561430608,12.6820936 L0.0561430608,48.1270794 C0.0561430608,50.6971839 2.15215067,52.7931915 4.72225523,52.7931915 L23.3243227,52.7931915 L24.1914211,55.201105 C24.3411359,55.6128208 24.7278992,55.8810599 25.1583294,55.8810599 L30.7040162,55.8810599 C31.1406844,55.8810599 31.5274477,55.6065827 31.6709244,55.201105 L32.5380228,52.7931915 L51.283567,52.7931915 C53.8536716,52.7931915 55.9496792,50.6971839 55.9496792,48.1270794 L55.9496792,12.6820936 C55.9496792,10.3802281 54.2716255,8.46512595 52.0820461,8.08460076 Z M42.4379159,1.27881416 L45.7316421,1.27881416 L45.7004515,12.3015684 L44.3842087,11.4157557 C44.2781606,11.3471364 44.1596364,11.3097077 44.034874,11.3097077 C43.9101117,11.3097077 43.7915875,11.3471364 43.6855394,11.4157557 L42.4379159,12.2703779 L42.4379159,1.27881416 L42.4379159,1.27881416 Z M29.0322006,4.21072956 L41.1902923,4.21072956 L41.1902923,13.4493821 C41.1902923,13.6801925 41.3150547,13.8922885 41.5209125,13.9983365 C41.7267704,14.1043845 41.970057,14.0919083 42.1634387,13.9609078 L44.0411122,12.6820936 L45.9749287,13.9858603 C46.0809767,14.0544796 46.199501,14.0919083 46.3242633,14.0919083 C46.4240732,14.0919083 46.5238831,14.0669558 46.6174548,14.0170509 C46.8233127,13.9110029 46.9480751,13.6989068 46.9480751,13.4680965 L46.9730276,4.20449144 L50.0234672,4.20449144 L50.0234672,43.6356345 L29.0322006,43.6356345 L29.0322006,4.21072956 Z M5.98235504,4.21072956 L26.9736217,4.21072956 L26.9736217,43.6418726 L5.98235504,43.6418726 L5.98235504,4.21072956 Z M53.8911003,48.1270794 C53.8911003,49.5618465 52.7245722,50.7346126 51.283567,50.7346126 L31.808163,50.7346126 C31.3714948,50.7346126 30.9847315,51.0090898 30.8412548,51.4145675 L29.9741564,53.822481 L25.8757129,53.822481 L25.0148527,51.4145675 C24.8651378,51.0028517 24.4783745,50.7346126 24.0479444,50.7346126 L4.72225523,50.7346126 C3.28748812,50.7346126 2.11472196,49.5680846 2.11472196,48.1270794 L2.11472196,12.6820936 C2.11472196,11.5218037 2.87577234,10.5361811 3.92377614,10.1993227 L3.92377614,44.6711621 C3.92377614,45.2388308 4.38539686,45.7004515 4.95306559,45.7004515 L51.0527567,45.7004515 C51.6204254,45.7004515 52.0820461,45.2388308 52.0820461,44.6711621 L52.0820461,10.1993227 C53.1300499,10.5361811 53.8911003,11.5218037 53.8911003,12.6820936 L53.8911003,48.1270794 Z" id="形状" fill="#484848"></path>
            </g>
        </g>
    </g>
</svg>