<?xml version="1.0" encoding="UTF-8"?>
<svg width="56px" height="56px" viewBox="0 0 56 56" version="1.1" xmlns="http://www.w3.org/2000/svg" xmlns:xlink="http://www.w3.org/1999/xlink">
    <title>writing_click</title>
    <g id="det门户" stroke="none" stroke-width="1" fill="none" fill-rule="evenodd">
        <g id="Course" transform="translate(-271.000000, -1899.000000)" fill="#F66442" fill-rule="nonzero">
            <g id="writing_click" transform="translate(271.000000, 1899.000000)">
                <path d="M53.4966224,24.7916992 C52.8645261,24.4230726 52.1698461,24.2043958 51.4626493,24.129421 L51.4626493,8.4409238 C51.4563909,6.70400536 49.9731551,5.29822604 48.1519669,5.29822604 L41.3991761,5.29822604 L41.3991761,3.36762245 C41.3991761,1.51199375 39.8909068,0.00624790807 38.0321683,0.00624790807 C36.1734297,0.00624790807 34.6651604,1.51199375 34.6651604,3.36762245 L34.6651604,5.29822604 L16.7974888,5.29822604 L16.7974888,3.36137454 C16.7974888,1.50574584 15.2892195,0 13.430481,0 C11.5717425,0 10.0634732,1.50574584 10.0634732,3.36137454 L10.0634732,5.29197813 L3.31068241,5.29197813 C1.48323579,5.29197813 0,6.70400536 0,8.43467589 L0,48.796162 C0,50.5268325 1.48323579,51.9388598 3.31068241,51.9388598 L34.9530459,51.9388598 L34.8466534,54.9316077 C34.8341367,55.3127301 35.0281464,55.6688609 35.3598405,55.862546 C35.5225583,55.9562646 35.6977929,56 35.8792859,56 C36.0670373,56 36.2547887,55.9500167 36.4175065,55.8500502 L42.7822778,51.9451077 L48.1457085,51.9451077 C49.9731551,51.9451077 51.4563909,50.5330804 51.4563909,48.8024099 L51.4563909,38.4246346 C51.4563909,38.3808993 51.4501325,38.3434118 51.4501325,38.2996764 L55.3178106,31.6768939 C56.7134291,29.2776972 55.8998399,26.1912306 53.4966224,24.7916992 Z M36.7304255,3.36137454 C36.7304255,2.64286511 37.3124547,2.06180966 38.0321683,2.06180966 C38.7518818,2.06180966 39.3339111,2.64286511 39.3339111,3.36137454 L39.3339111,9.29063929 C39.3339111,10.0091487 38.7518818,10.5902042 38.0321683,10.5902042 C37.3124547,10.5902042 36.7304255,10.0091487 36.7304255,9.29063929 L36.7304255,3.36137454 Z M12.1224798,3.36137454 C12.1224798,2.64286511 12.7045091,2.06180966 13.4242226,2.06180966 C14.1439362,2.06180966 14.7259654,2.64286511 14.7259654,3.36137454 L14.7259654,9.29063929 C14.7259654,10.0091487 14.1439362,10.5902042 13.4242226,10.5902042 C12.7045091,10.5902042 12.1224798,10.0091487 12.1224798,9.29063929 L12.1224798,3.36137454 Z M2.06526502,8.4409238 C2.06526502,7.85362044 2.63477749,7.3600357 3.31068241,7.3600357 L10.0634732,7.3600357 L10.0634732,9.29063929 C10.0634732,11.146268 11.5717425,12.6520138 13.430481,12.6520138 C15.2892195,12.6520138 16.7974888,11.146268 16.7974888,9.29063929 L16.7974888,7.3600357 L34.6651604,7.3600357 L34.6651604,9.2968872 C34.6651604,11.1525159 36.1734297,12.6582617 38.0321683,12.6582617 C39.8909068,12.6582617 41.3991761,11.1525159 41.3991761,9.2968872 L41.3991761,7.36628361 L48.1519669,7.36628361 C48.8278718,7.36628361 49.3973842,7.85986835 49.3973842,8.44717171 L49.3973842,15.563539 L2.06526502,15.563539 L2.06526502,8.4409238 Z M3.31068241,49.8770501 C2.63477749,49.8770501 2.06526502,49.3834654 2.06526502,48.796162 L2.06526502,16.8006248 L49.3973842,16.8006248 L49.3973842,24.3543456 C48.220809,24.735468 47.2382435,25.5227045 46.6124057,26.6035925 L35.2909983,45.9846034 C35.203381,46.1283053 35.1595724,46.2969988 35.153314,46.4656923 L35.0281464,49.8770501 L3.31068241,49.8770501 Z M36.9745022,53.0822269 L37.168512,47.7964967 L41.4867934,50.3144037 L36.9745022,53.0822269 L36.9745022,53.0822269 Z M49.3911259,48.8024099 C49.3911259,49.3897133 48.8216134,49.883298 48.1457085,49.883298 L44.684825,49.883298 L49.3911259,41.8234966 L49.3911259,48.8024099 Z M42.5256843,49.4709361 L37.3875552,46.4781881 L47.5386457,29.0965079 L52.6767748,32.0892558 L42.5256843,49.4709361 L42.5256843,49.4709361 Z M53.5279143,30.6334933 L53.308871,31.0083677 L48.170742,28.0156198 L48.3897853,27.6407453 C48.7903215,26.9597233 49.4349345,26.4723865 50.2047151,26.2662055 C50.9744957,26.0662725 51.7755682,26.1724869 52.4577315,26.572353 C53.8721251,27.3970769 54.3540203,29.2152181 53.5279143,30.6334933 Z" id="形状"></path>
                <path d="M33.1506328,32.0142809 L26.1287317,32.0142809 L26.1287317,26.4536428 L36.7679757,26.4536428 C37.1121866,26.4536428 37.3938136,26.1724869 37.3938136,25.8288519 C37.3938136,25.485217 37.1121866,25.2040611 36.7679757,25.2040611 L26.1287317,25.2040611 L26.1287317,22.1863215 C26.1287317,21.8426866 25.8471046,21.5615307 25.5028938,21.5615307 C25.158683,21.5615307 24.8770559,21.8426866 24.8770559,22.1863215 L24.8770559,25.2040611 L19.5011085,25.2040611 L19.5011085,22.1863215 C19.5011085,21.8426866 19.2194814,21.5615307 18.8752706,21.5615307 C18.5310598,21.5615307 18.2494327,21.8426866 18.2494327,22.1863215 L18.2494327,25.2040611 L12.8734853,25.2040611 L12.8734853,22.1863215 C12.8734853,21.8426866 12.5918582,21.5615307 12.2476474,21.5615307 C11.9034366,21.5615307 11.6218095,21.8426866 11.6218095,22.1863215 L11.6218095,25.2040611 L7.96691627,25.2040611 C7.62270544,25.2040611 7.34107839,25.485217 7.34107839,25.8288519 C7.34107839,26.1724869 7.62270544,26.4536428 7.96691627,26.4536428 L11.6155511,26.4536428 L11.6155511,32.0142809 L7.96691627,32.0142809 C7.62270544,32.0142809 7.34107839,32.2954368 7.34107839,32.6390717 C7.34107839,32.9827067 7.62270544,33.2638625 7.96691627,33.2638625 L11.6155511,33.2638625 L11.6155511,38.8245007 L7.96691627,38.8245007 C7.62270544,38.8245007 7.34107839,39.1056566 7.34107839,39.4492915 C7.34107839,39.7929265 7.62270544,40.0740823 7.96691627,40.0740823 L11.6155511,40.0740823 L11.6155511,42.5170144 C11.6155511,42.8606493 11.8971782,43.1418052 12.241389,43.1418052 C12.5855999,43.1418052 12.8672269,42.8606493 12.8672269,42.5170144 L12.8672269,40.0740823 L18.2431743,40.0740823 L18.2431743,42.5170144 C18.2431743,42.8606493 18.5248014,43.1418052 18.8690122,43.1418052 C19.2132231,43.1418052 19.4948501,42.8606493 19.4948501,42.5170144 L19.4948501,40.0740823 L24.8707975,40.0740823 L24.8707975,42.5170144 C24.8707975,42.8606493 25.1524246,43.1418052 25.4966354,43.1418052 C25.8408463,43.1418052 26.1224733,42.8606493 26.1224733,42.5170144 L26.1224733,40.0740823 L29.5458065,40.0740823 C29.8900174,40.0740823 30.1716444,39.7929265 30.1716444,39.4492915 C30.1716444,39.1056566 29.8900174,38.8245007 29.5458065,38.8245007 L26.1224733,38.8245007 L26.1224733,33.2638625 L33.1506328,33.2638625 C33.4948436,33.2638625 33.7764706,32.9827067 33.7764706,32.6390717 C33.7764706,32.2954368 33.4948436,32.0142809 33.1506328,32.0142809 L33.1506328,32.0142809 Z M18.2431743,38.8307486 L12.8672269,38.8307486 L12.8672269,33.2701105 L18.2431743,33.2701105 L18.2431743,38.8307486 L18.2431743,38.8307486 Z M18.2431743,32.0142809 L12.8672269,32.0142809 L12.8672269,26.4536428 L18.2431743,26.4536428 L18.2431743,32.0142809 L18.2431743,32.0142809 Z M24.8770559,38.8307486 L19.5011085,38.8307486 L19.5011085,33.2701105 L24.8770559,33.2701105 L24.8770559,38.8307486 L24.8770559,38.8307486 Z M24.8770559,32.0142809 L19.5011085,32.0142809 L19.5011085,26.4536428 L24.8770559,26.4536428 L24.8770559,32.0142809 L24.8770559,32.0142809 Z" id="形状"></path>
            </g>
        </g>
    </g>
</svg>