<?xml version="1.0" encoding="UTF-8"?>
<svg width="16px" height="16px" viewBox="0 0 16 16" version="1.1" xmlns="http://www.w3.org/2000/svg" xmlns:xlink="http://www.w3.org/1999/xlink">
    <title>copilot备份</title>
    <g id="det门户" stroke="none" stroke-width="1" fill="none" fill-rule="evenodd">
        <g id="价格" transform="translate(-1288.000000, -332.000000)" fill-rule="nonzero">
            <g id="编组-42" transform="translate(360.000000, 302.000000)">
                <g id="mine备份" transform="translate(928.000000, 30.000000)">
                    <g id="编组" transform="translate(1.335059, 0.676292)">
                        <path d="M10.4728627,14.6528627 L2.24313725,14.6528627 C1.00423529,14.6528627 0,13.6486275 0,12.4097255 L0,3.9867451 C0,2.74784314 1.00423529,1.74360784 2.24313725,1.74360784 L10.4728627,1.74360784 C11.7117647,1.74360784 12.716,2.74784314 12.716,3.9867451 L12.716,12.4097255 C12.716,13.6477647 11.7117647,14.6528627 10.4728627,14.6528627 L10.4728627,14.6528627 Z" id="路径" fill="#FFAC3E"></path>
                        <path d="M8.48164706,3.93152941 L4.2334902,3.93152941 C3.31121569,3.93152941 2.56321569,3.18352941 2.56321569,2.2612549 L2.56321569,1.67027451 C2.56321569,0.748 3.31121569,0 4.2334902,0 L8.48164706,0 C9.40392157,0 10.1519216,0.748 10.1519216,1.67027451 L10.1519216,2.2612549 C10.1519216,3.18352941 9.40478431,3.93152941 8.48164706,3.93152941 Z" id="路径" fill="#FFAC3E"></path>
                        <path d="M2.56407843,1.74360784 L2.56407843,2.2612549 C2.56407843,3.18352941 3.31207843,3.93152941 4.23435294,3.93152941 L8.4825098,3.93152941 C9.40478431,3.93152941 10.1527843,3.18352941 10.1527843,2.2612549 L10.1527843,1.74360784 L2.56407843,1.74360784 Z" id="路径" fill="#FF7C0E"></path>
                        <path d="M5.71137255,10.258041 C5.5345098,10.258041 5.35764706,10.1907451 5.22305882,10.0561569 L3.87631373,8.70941176 C3.60713725,8.44023529 3.60713725,8.00282353 3.87631373,7.73364706 C4.14635294,7.46447059 4.58290196,7.46447059 4.85207843,7.73364706 L5.72345098,8.60501961 L7.86564706,6.57670588 C7.99855213,6.45078552 8.1760567,6.38285374 8.35907182,6.38787007 C8.54208693,6.3928864 8.71560386,6.47043946 8.84141176,6.60345098 C8.96733213,6.73635605 9.03526391,6.91386063 9.03024758,7.09687574 C9.02523125,7.27989085 8.94767819,7.45340778 8.81466667,7.57921569 L6.18501961,10.069098 C6.05738021,10.1907554 5.88770229,10.2584412 5.71137255,10.258041 Z" id="路径" fill="#FFFFFF"></path>
                    </g>
                </g>
            </g>
        </g>
    </g>
</svg>