<?xml version="1.0" encoding="UTF-8"?>
<svg width="16px" height="16px" viewBox="0 0 16 16" version="1.1" xmlns="http://www.w3.org/2000/svg" xmlns:xlink="http://www.w3.org/1999/xlink">
    <title>weekly</title>
    <g id="det门户" stroke="none" stroke-width="1" fill="none" fill-rule="evenodd">
        <g id="价格" transform="translate(-376.000000, -332.000000)" fill="#F66442" fill-rule="nonzero">
            <g id="编组-42" transform="translate(360.000000, 302.000000)">
                <g id="weekly" transform="translate(16.000000, 30.000000)">
                    <path d="M8.4200136,0.525599989 C8.17784101,-0.175913236 7.783873,-0.175120028 7.54472359,0.527503688 L6.19415796,4.49402001 C5.95500856,5.19664372 5.18282488,5.96700741 4.47810584,6.20592168 L0.529356159,7.54485692 C-0.175203763,7.7837712 -0.176635796,8.17878882 0.526173865,8.42277962 L4.45121546,9.78519382 C5.15402512,10.0291846 5.92716348,10.8027211 6.16933607,11.504393 L7.53915458,15.4745581 C7.78116805,16.17623 8.17402226,16.1749608 8.41189875,15.4718612 L9.74925786,11.518988 C9.98697523,10.8158884 10.7577269,10.0439383 11.4618095,9.80359625 L15.4724548,8.43404318 C16.1765373,8.19370113 16.1757418,7.80249091 15.4707045,7.56484577 L11.523546,6.23368397 C10.8185087,5.99588019 10.043461,5.2274202 9.80128837,4.52590697 L8.4200136,0.525599989 Z" id="路径"></path>
                </g>
            </g>
        </g>
    </g>
</svg>