<?xml version="1.0" encoding="UTF-8"?>
<svg width="32px" height="32px" viewBox="0 0 32 32" version="1.1" xmlns="http://www.w3.org/2000/svg" xmlns:xlink="http://www.w3.org/1999/xlink">
    <title>Others</title>
    <g id="det门户" stroke="none" stroke-width="1" fill="none" fill-rule="evenodd">
        <g id="价格" transform="translate(-360.000000, -3028.000000)" fill-rule="nonzero">
            <g id="编组-2备份-27" transform="translate(360.000000, 3004.000000)">
                <g id="mine备份" transform="translate(0.000000, 24.000000)">
                    <g id="编组" transform="translate(1.000000, 1.000000)">
                        <path d="M13.950229,29.7895787 L1.00500197,23.0564576 C-0.335000658,22.3594471 -0.335000658,20.4426683 1.00500197,19.7474004 L13.950229,13.0142792 C14.486927,12.735475 15.1264341,12.7337325 15.6631322,13.0107941 L28.763444,19.7439153 C30.1139018,20.4374407 30.1139018,22.3681597 28.763444,23.0616852 L15.6631322,29.7948063 C15.1249307,30.0702314 14.4867393,30.0682837 13.950229,29.7895787 L13.950229,29.7895787 Z" id="路径" fill="#A5ADF6"></path>
                        <path d="M13.950229,16.9872389 L1.00500197,10.2523752 C-0.335000658,9.55536473 -0.335000658,7.63858594 1.00500197,6.94331799 L13.950229,0.210196829 C14.486927,-0.0686073594 15.1264341,-0.0703498856 15.6631322,0.206711777 L28.763444,6.93983294 C30.1139018,7.63335836 30.1139018,9.56407736 28.763444,10.2576028 L15.6631322,16.9907239 C15.1254232,17.2675702 14.486807,17.2662709 13.950229,16.9872389 L13.950229,16.9872389 Z" id="路径" fill="#A5ADF6"></path>
                        <path d="M13.950229,23.5286822 L1.00500197,16.795561 C-0.335000658,16.0985505 -0.335000658,14.1817717 1.00500197,13.4865038 L13.950229,6.75338264 C14.486927,6.47457845 15.1264341,6.47283592 15.6631322,6.74989758 L28.763444,13.4830187 C30.1139018,14.1765442 30.1139018,16.1072632 28.763444,16.8007886 L15.6631322,23.5339097 C15.1251406,23.8102104 14.4865241,23.8082614 13.950229,23.5286822 L13.950229,23.5286822 Z" id="路径" fill="#A5ADF6"></path>
                        <path d="M13.950229,13.0125367 L3.8418346,18.2714807 L13.950229,23.5304247 C14.486927,23.8092289 15.1264341,23.8109714 15.6631322,23.5339097 L25.902216,18.2714807 L15.6631322,13.0090516 C15.125629,12.7313536 14.4865978,12.7326538 13.950229,13.0125367 Z" id="路径" fill="#8695EA"></path>
                        <path d="M13.950229,6.75164011 L4.11192615,11.8694395 L13.950229,16.9872389 C14.486927,17.2660431 15.1264341,17.2677856 15.6631322,16.9907239 L25.6268969,11.8694395 L15.6631322,6.74815506 C15.1254232,6.47130883 14.486807,6.47260815 13.950229,6.75164011 Z" id="路径" fill="#8695EA"></path>
                        <path d="M13.950229,13.0125367 L10.1288691,15.000759 L13.950229,16.9889814 C14.486927,17.2677856 15.1264341,17.2695281 15.6631322,16.9924665 L19.5385104,15.000759 L15.6631322,13.0090516 C15.125629,12.7313536 14.4865978,12.7326538 13.950229,13.0125367 Z" id="路径" fill="#635DF7"></path>
                    </g>
                </g>
            </g>
        </g>
    </g>
</svg>