<?xml version="1.0" encoding="UTF-8"?>
<svg width="181px" height="33px" viewBox="0 0 181 33" version="1.1" xmlns="http://www.w3.org/2000/svg" xmlns:xlink="http://www.w3.org/1999/xlink">
    <title>logo</title>
    <defs>
        <polygon id="path-1" points="0.1389825 0.154629371 25.0278075 0.154629371 25.0278075 31.7762014 0.1389825 31.7762014"></polygon>
        <polygon id="path-3" points="0.08388 0.154629371 94.274955 0.154629371 94.274955 31.7762014 0.08388 31.7762014"></polygon>
        <polygon id="path-5" points="0 0.154651748 24.126435 0.154651748 24.126435 31.7762238 0 31.7762238"></polygon>
    </defs>
    <g id="自适应布局" stroke="none" stroke-width="1" fill="none" fill-rule="evenodd">
        <g id="出海牛头替代" transform="translate(-1016.000000, -556.000000)">
            <g id="logo" transform="translate(1016.000000, 556.000000)">
                <path d="M29.1059775,28.7109594 L29.1059775,3.35823217 C29.1059775,2.46737902 29.3681025,1.74502937 29.8937025,1.19163077 C30.4188525,0.63867972 31.1451525,0.362092308 32.0721525,0.362092308 L47.3669775,0.362092308 C48.3243525,0.362092308 49.0889025,0.63867972 49.6610775,1.19163077 C50.2325775,1.74502937 50.5185525,2.45216224 50.5185525,3.31213427 C50.5185525,4.1418965 50.2325775,4.83314126 49.6610775,5.38653986 C49.0889025,5.93971469 48.3243525,6.2163021 47.3669775,6.2163021 L36.1970775,6.2163021 C36.0116775,6.2163021 35.9189775,6.3084979 35.9189775,6.49266573 L35.9189775,12.7156587 C35.9189775,12.9000503 36.0116775,12.9922462 36.1970775,12.9922462 L45.1421775,12.9922462 C46.0995525,12.9922462 46.8571275,13.261449 47.4133275,13.7989594 C47.9695275,14.3369175 48.2476275,15.0362182 48.2476275,15.8961902 C48.2476275,16.7568336 47.9695275,17.456358 47.4133275,17.9936448 C46.8571275,18.5318266 46.0995525,18.800358 45.1421775,18.800358 L36.1970775,18.800358 C36.0116775,18.800358 35.9189775,18.8925538 35.9189775,19.0767217 L35.9189775,25.5763021 C35.9189775,25.7606937 36.0116775,25.8531133 36.1970775,25.8531133 L47.3669775,25.8531133 C48.3243525,25.8531133 49.0889025,26.1297007 49.6610775,26.6828755 C50.2325775,27.2358266 50.5185525,27.9272951 50.5185525,28.7568336 C50.5185525,29.6177007 50.2325775,30.324386 49.6610775,30.8775608 C49.0889025,31.4305119 48.3243525,31.7070993 47.3669775,31.7070993 L32.0721525,31.7070993 C31.1451525,31.7070993 30.4188525,31.4305119 29.8937025,30.8775608 C29.3681025,30.324386 29.1059775,29.6024839 29.1059775,28.7109594" id="Fill-1" fill="#1F0609"></path>
                <g id="编组" transform="translate(52.650000, 0.069147)">
                    <mask id="mask-2" fill="white">
                        <use xlink:href="#path-1"></use>
                    </mask>
                    <g id="Clip-4"></g>
                    <path d="M12.5603325,31.7762014 C11.6022825,31.7762014 10.7990325,31.4463552 10.1503575,30.7853203 C9.5014575,30.1247329 9.1770075,29.2567049 9.1770075,28.1807888 L9.1770075,6.4697958 C9.1770075,6.2854042 9.0843075,6.19320839 8.8989075,6.19320839 L3.5688825,6.19320839 C2.5181325,6.19320839 1.6838325,5.90923636 1.0662075,5.3403972 C0.4476825,4.77222937 0.1389825,4.05748811 0.1389825,3.19684476 C0.1389825,2.30599161 0.4476825,1.57625734 1.0662075,1.00741818 C1.6838325,0.439026573 2.5181325,0.154606993 3.5688825,0.154606993 L21.5981325,0.154606993 C22.6482075,0.154606993 23.4822825,0.439026573 24.1010325,1.00741818 C24.7186575,1.57625734 25.0278075,2.30599161 25.0278075,3.19684476 C25.0278075,4.05748811 24.7186575,4.77222937 24.1010325,5.3403972 C23.4822825,5.90923636 22.6482075,6.19320839 21.5981325,6.19320839 L16.2681075,6.19320839 C16.0827075,6.19320839 15.9900075,6.2854042 15.9900075,6.4697958 L15.9900075,28.1807888 C15.9900075,29.2567049 15.6657825,30.1247329 15.0166575,30.7853203 C14.3679825,31.4463552 13.5487575,31.7762014 12.5603325,31.7762014" id="Fill-3" fill="#1F0609" mask="url(#mask-2)"></path>
                </g>
                <g id="编组" transform="translate(85.725000, 0.069147)">
                    <mask id="mask-4" fill="white">
                        <use xlink:href="#path-3"></use>
                    </mask>
                    <g id="Clip-6"></g>
                    <path d="M88.21593,31.7762014 L6.142905,31.7762014 C2.81043,31.7762014 0.08388,29.0644811 0.08388,25.7501315 L0.08388,6.1809007 C0.08388,2.86655105 2.81043,0.154606993 6.142905,0.154606993 L88.21593,0.154606993 C91.548405,0.154606993 94.274955,2.86655105 94.274955,6.1809007 L94.274955,25.7501315 C94.274955,29.0644811 91.548405,31.7762014 88.21593,31.7762014" id="Fill-5" fill="#E86342" mask="url(#mask-4)"></path>
                </g>
                <path d="M99.60579,15.4699189 C100.406565,15.4699189 101.033865,15.2517371 101.48724,14.8149259 C101.940615,14.3785622 102.16719,13.8061427 102.16719,13.0983385 C102.16719,12.390758 101.940615,11.8185622 101.48724,11.3815273 C101.033865,10.9451636 100.406565,10.726758 99.60579,10.726758 L96.56829,10.726758 C96.477615,10.726758 96.43239,10.7719608 96.43239,10.8623664 L96.43239,15.3345343 C96.43239,15.4247161 96.477615,15.4699189 96.56829,15.4699189 L99.60579,15.4699189 Z M95.09499,23.8044643 C94.71699,23.8044643 94.39974,23.6766881 94.14279,23.4202406 C93.88584,23.1646881 93.757365,22.8258909 93.757365,22.4040727 L93.757365,9.52977902 C93.757365,9.16815664 93.863115,8.87859021 94.07484,8.66018462 C94.28634,8.4420028 94.57344,8.33257622 94.936365,8.33257622 L99.764415,8.33257622 C100.76184,8.33257622 101.64204,8.53240839 102.40524,8.93095385 C103.168215,9.33017063 103.765365,9.8875972 104.196015,10.6025622 C104.626665,11.3179748 104.84199,12.149751 104.84199,13.0983385 C104.84199,14.0469259 104.626665,14.8827301 104.196015,15.6053035 C103.765365,16.3281007 103.168215,16.8895552 102.40524,17.2881007 C101.64204,17.6873175 100.76184,17.8867021 99.764415,17.8867021 L96.56829,17.8867021 C96.477615,17.8867021 96.43239,17.9319049 96.43239,18.0220867 L96.43239,22.4040727 C96.43239,22.8258909 96.30774,23.1646881 96.058215,23.4202406 C95.808915,23.6766881 95.487615,23.8044643 95.09499,23.8044643 L95.09499,23.8044643 Z" id="Fill-7" fill="#FEFEFE"></path>
                <path d="M109.806053,14.0243245 L109.806053,14.0695273 L109.828778,14.0695273 C110.070428,13.6481566 110.429528,13.2903385 110.905628,12.9967441 C111.381503,12.7031497 111.944228,12.5563524 112.594253,12.5563524 C112.896428,12.5563524 113.161028,12.586786 113.387603,12.646758 C113.614178,12.7069538 113.810378,12.774758 113.977103,12.8497231 C114.430253,13.0909538 114.657053,13.4371357 114.657053,13.8889399 C114.657053,14.2655552 114.543653,14.5743664 114.316853,14.8149259 C114.090278,15.0559329 113.787878,15.1763245 113.410328,15.1763245 C113.243828,15.1763245 113.047628,15.1389538 112.820828,15.0633175 C112.669628,15.0181147 112.503578,14.9769399 112.322228,14.9391217 C112.140878,14.901751 111.966953,14.8827301 111.800903,14.8827301 C111.105653,14.8827301 110.599403,15.1349259 110.282153,15.6393175 C109.964903,16.1439329 109.806053,16.8103385 109.806053,17.6380867 L109.806053,22.4718769 C109.806053,22.8936951 109.688828,23.2213035 109.454603,23.4544783 C109.220153,23.6881007 108.914378,23.8044643 108.536603,23.8044643 C108.174128,23.8044643 107.871503,23.6881007 107.630077,23.4544783 C107.387977,23.2213035 107.267377,22.8936951 107.267377,22.4718769 L107.267377,14.0243245 C107.267377,13.6029538 107.384152,13.2755692 107.618603,13.0419469 C107.852828,12.8085483 108.158828,12.6917371 108.536603,12.6917371 C108.914378,12.6917371 109.220153,12.8085483 109.454603,13.0419469 C109.688828,13.2755692 109.806053,13.6029538 109.806053,14.0243245" id="Fill-9" fill="#FEFEFE"></path>
                <path d="M120.21075,21.8846881 C120.951,21.8846881 121.5369,21.7414713 121.96755,21.4554853 C122.3982,21.1697231 122.613525,20.7405203 122.613525,20.1678769 L122.613525,19.1966881 C122.613525,19.1065063 122.5683,19.0613035 122.477625,19.0613035 L120.664125,19.0613035 C119.83275,19.0613035 119.232225,19.1819189 118.8621,19.4227021 C118.491525,19.6634853 118.306575,20.0324923 118.306575,20.5292755 C118.306575,21.4326601 118.9413,21.8846881 120.21075,21.8846881 L120.21075,21.8846881 Z M125.58285,21.8846881 C125.718975,22.1254713 125.786925,22.3740867 125.786925,22.6298629 C125.786925,22.9614993 125.665875,23.2398769 125.424225,23.4656671 C125.18235,23.6914573 124.880175,23.8044643 124.5177,23.8044643 C124.049025,23.8044643 123.69375,23.6314853 123.452325,23.2850797 L123.089625,22.7428699 L123.0669,22.7428699 C122.749425,23.1194853 122.318775,23.4130797 121.77495,23.6236531 C121.230675,23.8344503 120.5883,23.9400727 119.84805,23.9400727 C118.563525,23.9400727 117.581175,23.6502825 116.90145,23.0704783 C116.221275,22.4908979 115.8813,21.6812755 115.8813,20.6422825 C115.8813,19.4676811 116.2701,18.5947301 117.0486,18.0220867 C117.82665,17.4503385 118.8882,17.1639049 120.233475,17.1639049 L122.477625,17.1639049 C122.5683,17.1639049 122.613525,17.1187021 122.613525,17.0285203 L122.613525,16.7573035 C122.613525,16.1249119 122.420925,15.6319329 122.0355,15.2781427 C121.650075,14.9243524 121.0266,14.7471217 120.1653,14.7471217 C119.787525,14.7471217 119.421,14.7923245 119.06595,14.8827301 C118.710675,14.9729119 118.4121,15.0785343 118.170675,15.1989259 C117.9441,15.2891077 117.724725,15.3345343 117.513225,15.3345343 C117.210825,15.3345343 116.961525,15.2405483 116.765325,15.0519049 C116.568675,14.8639329 116.470575,14.6117371 116.470575,14.2953175 C116.470575,14.1147301 116.5194,13.9305622 116.61795,13.7421427 C116.71605,13.5539469 116.8785,13.4071497 117.1053,13.3015273 C117.4527,13.0909538 117.9099,12.9141706 118.476675,12.7707301 C119.04345,12.6277371 119.69685,12.5563524 120.437325,12.5563524 C121.99365,12.5563524 123.1461,12.9253594 123.894225,13.6629259 C124.64235,14.4009399 125.0163,15.4399329 125.0163,16.7799049 L125.0163,20.2130797 C125.0163,20.4995133 125.034975,20.7141147 125.073,20.8568839 C125.110575,21.0001007 125.16705,21.1468979 125.2431,21.2972755 L125.58285,21.8846881 Z" id="Fill-11" fill="#FEFEFE"></path>
                <path d="M132.473903,23.9399608 C131.370502,23.9399608 130.425952,23.6801566 129.640252,23.160772 C128.854552,22.6411636 128.302853,21.899793 127.985602,20.9359888 C127.759027,20.2583944 127.645628,19.3626182 127.645628,18.2479888 C127.645628,17.1340308 127.759027,16.2380308 127.985602,15.5602126 C128.302853,14.5816392 128.854552,13.8362406 129.640252,13.3242406 C130.425952,12.8124643 131.370502,12.5562406 132.473903,12.5562406 C133.244528,12.5562406 133.928078,12.6882685 134.525227,12.9516531 C135.122152,13.2150378 135.586778,13.5426462 135.919328,13.9340308 C136.085378,14.1146182 136.202603,14.2842406 136.270778,14.4422266 C136.338728,14.6004364 136.372703,14.7624503 136.372703,14.927821 C136.372703,15.2440168 136.266728,15.5076252 136.055228,15.7184224 C135.843727,15.9294434 135.579352,16.0346182 135.262103,16.0346182 C135.065453,16.0346182 134.884103,15.985835 134.717827,15.887821 C134.551553,15.7900308 134.385503,15.6584503 134.219227,15.4924084 C134.022803,15.2666182 133.784752,15.0972196 133.505302,14.9842126 C133.225403,14.8714294 132.889252,14.814814 132.496627,14.814814 C132.012653,14.814814 131.593253,14.931849 131.238428,15.1650238 C130.883152,15.3986462 130.622602,15.7560168 130.456327,16.2380308 C130.365653,16.5088 130.305127,16.8064224 130.275202,17.1300028 C130.244602,17.4542545 130.229752,17.826842 130.229752,18.2479888 C130.229752,18.669807 130.244602,19.0423944 130.275202,19.3661986 C130.305127,19.6902266 130.365653,19.9871776 130.456327,20.2583944 C130.622602,20.7251916 130.883152,21.0792056 131.238428,21.3199888 C131.593253,21.560772 132.012653,21.6811636 132.496627,21.6811636 C132.889252,21.6811636 133.225403,21.624772 133.505302,21.511765 C133.784752,21.3992056 134.022803,21.2295832 134.219227,21.003793 C134.385503,20.8381986 134.551553,20.7066182 134.717827,20.6083804 C134.884103,20.510814 135.065453,20.4615832 135.262103,20.4615832 C135.579352,20.4615832 135.843727,20.5672056 136.055228,20.777779 C136.266728,20.9888 136.372703,21.2521846 136.372703,21.5683804 C136.372703,21.7344224 136.338728,21.8959888 136.270778,22.0539748 C136.202603,22.2121846 136.085378,22.3813594 135.919328,22.5621706 C135.586778,22.9385622 135.122152,23.2623664 134.525227,23.5335832 C133.928078,23.8045762 133.244528,23.9399608 132.473903,23.9399608" id="Fill-13" fill="#FEFEFE"></path>
                <path d="M139.024845,14.7697455 L138.707595,14.7697455 C138.39012,14.7697455 138.136995,14.6793399 137.94822,14.4987524 C137.758995,14.318165 137.664945,14.0847664 137.664945,13.7985566 C137.664945,13.4975776 137.758995,13.2563469 137.94822,13.0757594 C138.136995,12.8949483 138.39012,12.8047664 138.707595,12.8047664 L139.024845,12.8047664 C139.13037,12.8047664 139.18347,12.7595636 139.18347,12.669158 L139.18347,10.6815776 C139.18347,10.260207 139.304295,9.9325986 139.54617,9.6992 C139.78782,9.4658014 140.097645,9.34899021 140.47542,9.34899021 C140.838345,9.34899021 141.13647,9.4658014 141.37092,9.6992 C141.605145,9.9325986 141.72237,10.260207 141.72237,10.6815776 L141.72237,12.669158 C141.72237,12.7595636 141.767595,12.8047664 141.85827,12.8047664 L143.01432,12.8047664 C143.331795,12.8047664 143.584695,12.8949483 143.773695,13.0757594 C143.96247,13.2563469 144.057195,13.4975776 144.057195,13.7985566 C144.057195,14.0847664 143.96247,14.318165 143.773695,14.4987524 C143.584695,14.6793399 143.331795,14.7697455 143.01432,14.7697455 L141.85827,14.7697455 C141.767595,14.7697455 141.72237,14.8149483 141.72237,14.9051301 L141.72237,20.3261091 C141.72237,20.7629203 141.80157,21.0679273 141.960195,21.2409063 C142.11882,21.4141091 142.43247,21.5233119 142.901145,21.5685147 C143.29377,21.5989483 143.584695,21.7229203 143.773695,21.9411021 C143.96247,22.1595077 144.057195,22.4117035 144.057195,22.6976895 C144.057195,23.0141091 143.943795,23.2812979 143.716995,23.4994797 C143.49042,23.7174378 143.14257,23.8270881 142.674345,23.8270881 L142.47027,23.8270881 C141.27642,23.8270881 140.430195,23.5525147 139.931595,23.0026965 C139.43277,22.4531021 139.18347,21.5835077 139.18347,20.3939133 L139.18347,14.9051301 C139.18347,14.8149483 139.13037,14.7697455 139.024845,14.7697455" id="Fill-15" fill="#FEFEFE"></path>
                <path d="M147.592958,23.8044867 C147.214958,23.8044867 146.908958,23.6878993 146.674958,23.4545007 C146.440508,23.2213259 146.323507,22.8937175 146.323507,22.4718993 L146.323507,14.0243469 C146.323507,13.6029762 146.440508,13.2755916 146.674958,13.0419692 C146.908958,12.8085706 147.214958,12.6917594 147.592958,12.6917594 C147.970508,12.6917594 148.276508,12.8085706 148.511183,13.0419692 C148.745183,13.2755916 148.862408,13.6029762 148.862408,14.0243469 L148.862408,22.4718993 C148.862408,22.8937175 148.745183,23.2213259 148.511183,23.4545007 C148.276508,23.6878993 147.970508,23.8044867 147.592958,23.8044867 M146.074207,9.64258462 C146.074207,9.22121399 146.221582,8.86317203 146.516333,8.5698014 C146.810857,8.27598322 147.169733,8.12918601 147.592958,8.12918601 C148.015958,8.12918601 148.375058,8.27598322 148.669808,8.5698014 C148.964333,8.86317203 149.111708,9.22121399 149.111708,9.64258462 C149.111708,10.0644028 148.964333,10.4219972 148.669808,10.7153678 C148.375058,11.0089622 148.015958,11.1557594 147.592958,11.1557594 C147.169733,11.1557594 146.810857,11.0089622 146.516333,10.7153678 C146.221582,10.4219972 146.074207,10.0644028 146.074207,9.64258462" id="Fill-17" fill="#FEFEFE"></path>
                <path d="M156.410708,23.9399608 C155.307533,23.9399608 154.362758,23.6801566 153.577283,23.160772 C152.791358,22.6411636 152.239883,21.899793 151.922408,20.9359888 C151.695833,20.2583944 151.582433,19.3626182 151.582433,18.2479888 C151.582433,17.1340308 151.695833,16.2380308 151.922408,15.5602126 C152.239883,14.5816392 152.791358,13.8362406 153.577283,13.3242406 C154.362758,12.8124643 155.307533,12.5562406 156.410708,12.5562406 C157.181333,12.5562406 157.864883,12.6882685 158.462033,12.9516531 C159.058958,13.2150378 159.523583,13.5426462 159.856133,13.9340308 C160.022183,14.1146182 160.139408,14.2842406 160.207583,14.4422266 C160.275533,14.6004364 160.309508,14.7624503 160.309508,14.927821 C160.309508,15.2440168 160.203533,15.5076252 159.992033,15.7184224 C159.780533,15.9294434 159.516158,16.0346182 159.198908,16.0346182 C159.002258,16.0346182 158.820908,15.985835 158.654858,15.887821 C158.488358,15.7900308 158.322308,15.6584503 158.156033,15.4924084 C157.959608,15.2666182 157.721558,15.0972196 157.442108,14.9842126 C157.162208,14.8714294 156.826058,14.814814 156.433433,14.814814 C155.949683,14.814814 155.530058,14.931849 155.175233,15.1650238 C154.819958,15.3986462 154.559408,15.7560168 154.393358,16.2380308 C154.302458,16.5088 154.242158,16.8064224 154.212008,17.1300028 C154.181408,17.4542545 154.166558,17.826842 154.166558,18.2479888 C154.166558,18.669807 154.181408,19.0423944 154.212008,19.3661986 C154.242158,19.6902266 154.302458,19.9871776 154.393358,20.2583944 C154.559408,20.7251916 154.819958,21.0792056 155.175233,21.3199888 C155.530058,21.560772 155.949683,21.6811636 156.433433,21.6811636 C156.826058,21.6811636 157.162208,21.624772 157.442108,21.511765 C157.721558,21.3992056 157.959608,21.2295832 158.156033,21.003793 C158.322308,20.8381986 158.488358,20.7066182 158.654858,20.6083804 C158.820908,20.510814 159.002258,20.4615832 159.198908,20.4615832 C159.516158,20.4615832 159.780533,20.5672056 159.992033,20.777779 C160.203533,20.9888 160.309508,21.2521846 160.309508,21.5683804 C160.309508,21.7344224 160.275533,21.8959888 160.207583,22.0539748 C160.139408,22.2121846 160.022183,22.3813594 159.856133,22.5621706 C159.523583,22.9385622 159.058958,23.2623664 158.462033,23.5335832 C157.864883,23.8045762 157.181333,23.9399608 156.410708,23.9399608" id="Fill-19" fill="#FEFEFE"></path>
                <path d="M169.489935,17.0284755 C169.489935,16.6822937 169.444485,16.3734825 169.354035,16.1022657 C169.20261,15.6656783 168.938235,15.3230769 168.560685,15.0746853 C168.182685,14.8262937 167.736735,14.7020979 167.223285,14.7020979 C166.709385,14.7020979 166.259835,14.8262937 165.87441,15.0746853 C165.488985,15.3230769 165.22056,15.6656783 165.06981,16.1022657 C164.979135,16.3734825 164.933685,16.6822937 164.933685,17.0284755 C164.933685,17.1186573 164.979135,17.1638601 165.06981,17.1638601 L169.354035,17.1638601 C169.444485,17.1638601 169.489935,17.1186573 169.489935,17.0284755 M167.33646,23.940028 C166.17276,23.940028 165.19446,23.6728392 164.40111,23.1382378 C163.607535,22.6038601 163.05966,21.862042 162.75771,20.9132308 C162.651735,20.567049 162.56106,20.1756643 162.485685,19.7388531 C162.40986,19.3022657 162.372285,18.8052587 162.372285,18.2480559 C162.372285,17.6760839 162.406485,17.1716923 162.47421,16.7348811 C162.542385,16.2980699 162.62901,15.9069091 162.734985,15.5602797 C163.036935,14.6116923 163.585035,13.8741259 164.378385,13.3469091 C165.171735,12.8199161 166.11246,12.5563077 167.20056,12.5563077 C168.318585,12.5563077 169.270785,12.8237203 170.05671,13.3580979 C170.842185,13.8929231 171.386235,14.6266853 171.688635,15.5602797 C171.80946,15.9216783 171.900135,16.3168671 171.96066,16.7460699 C172.02096,17.1752727 172.051335,17.6532587 172.051335,18.1802517 C172.051335,18.4364755 171.975735,18.6472727 171.82476,18.8128671 C171.67356,18.9786853 171.454185,19.0612587 171.16731,19.0612587 L165.06981,19.0612587 C164.979135,19.0612587 164.933685,19.1064615 164.933685,19.1966434 C164.933685,19.3472448 164.948535,19.4942657 164.979135,19.6372587 C165.00906,19.7804755 165.047085,19.9120559 165.092535,20.0324476 C165.46986,21.1318601 166.29381,21.6812308 167.56326,21.6812308 C168.031485,21.6812308 168.43581,21.6174545 168.77601,21.4894545 C169.115985,21.3614545 169.45956,21.1768392 169.807185,20.9360559 C169.95816,20.8306573 170.10936,20.7440559 170.26056,20.6762517 C170.411535,20.6084476 170.57016,20.5746573 170.73666,20.5746573 C171.068985,20.5746573 171.329535,20.6762517 171.51876,20.8794406 C171.707535,21.0828531 171.802035,21.335049 171.802035,21.6362517 C171.802035,22.0278601 171.62811,22.3588252 171.28071,22.6298182 C170.79696,23.0216503 170.241435,23.3378462 169.614585,23.5786294 C168.98751,23.8194126 168.228135,23.940028 167.33646,23.940028" id="Fill-21" fill="#FEFEFE"></path>
                <g id="编组" transform="translate(0.000000, 0.069147)">
                    <mask id="mask-6" fill="white">
                        <use xlink:href="#path-5"></use>
                    </mask>
                    <g id="Clip-24"></g>
                    <path d="M16.99596,19.8485259 C16.88661,20.8246378 16.75431,21.5769734 16.59861,22.1035189 C16.19316,23.3439105 15.445035,24.2506517 14.354235,24.8241902 C13.26276,25.3979524 11.922885,25.684386 10.33326,25.684386 L7.914285,25.684386 C7.33941,25.684386 6.87321,25.2209455 6.87321,24.6489734 L6.87321,14.8567497 C6.87321,14.3984559 7.22286,14.0220643 7.68051,13.9681343 C11.089035,13.5677986 13.732785,10.684442 13.732785,7.18681958 L13.732785,7.18301538 C13.732785,7.00399441 13.91526,6.88046993 14.079735,6.9531972 C14.17311,6.99437203 14.26491,7.03756084 14.354235,7.08343497 C15.445035,7.64130909 16.19316,8.55633007 16.59861,9.82693147 C16.75431,10.3548196 16.88661,11.1058126 16.99596,12.082372 C17.10486,13.0591552 17.15976,14.3539245 17.15976,15.9653371 C17.15976,17.5776448 17.10486,18.8717427 16.99596,19.8485259 M23.89266,10.687351 C23.736285,9.43174266 23.50251,8.35493147 23.191335,7.45535105 C22.34961,4.8825958 20.876985,3.02234406 18.772785,1.87526713 C16.66881,0.728637762 13.917285,0.154651748 10.520235,0.154651748 L2.99241,0.154651748 C2.05731,0.154651748 1.324485,0.433700699 0.794835,0.991574825 C0.26451,1.54967273 -9e-05,2.27828811 -9e-05,3.1771972 L-9e-05,28.8000224 C-9e-05,29.699379 0.26451,30.420386 0.794835,30.9625958 C1.324485,31.5052531 2.05731,31.7762462 2.99241,31.7762462 L10.520235,31.7762462 C13.917285,31.7762462 16.66881,31.2029315 18.772785,30.0556308 C20.876985,28.9090014 22.34961,27.0489734 23.191335,24.4753231 C23.50251,23.5766378 23.736285,22.4989315 23.89266,21.2433231 C24.04836,19.9877147 24.126435,18.2288336 24.126435,15.9653371 C24.126435,13.7029594 24.04836,11.9427357 23.89266,10.687351" id="Fill-23" fill="#E86342" mask="url(#mask-6)"></path>
                </g>
            </g>
        </g>
    </g>
</svg>