<?xml version="1.0" encoding="UTF-8"?>
<svg width="20px" height="20px" viewBox="0 0 20 20" version="1.1" xmlns="http://www.w3.org/2000/svg" xmlns:xlink="http://www.w3.org/1999/xlink">
    <title>编组 30备份 4</title>
    <g id="det门户" stroke="none" stroke-width="1" fill="none" fill-rule="evenodd">
        <g id="首页交互说明" transform="translate(-120.000000, -903.000000)">
            <g id="编组-3备份" transform="translate(112.000000, 894.000000)">
                <g id="编组-30备份-4" transform="translate(8.000000, 9.000000)">
                    <circle id="椭圆形" fill="#4D6BFE" cx="10" cy="10" r="10"></circle>
                    <g id="编组" transform="translate(4.000000, 5.000000)" fill="#FFFFFF" fill-rule="nonzero">
                        <path d="M12.8633755,0.819589161 C12.7257108,0.750741159 12.6662754,0.881968958 12.5858535,0.948655671 C12.5584459,0.970174587 12.5350476,0.998146046 12.5116493,1.02395622 C12.3104928,1.24337398 12.0754762,1.38752253 11.7681034,1.37031053 C11.3190252,1.34450036 10.9355531,1.48863324 10.5967163,1.83929447 C10.5246577,1.40688016 10.2853185,1.14873147 9.92095347,0.983079672 C9.73002399,0.897035332 9.53748138,0.81097533 9.40382605,0.623804614 C9.31079667,0.490431188 9.28550333,0.341991388 9.2387224,0.195712877 C9.20913781,0.107507248 9.17955321,0.0171559917 9.08007129,0.0020896182 C8.97169364,-0.0151223823 8.92947021,0.0773901622 8.88698053,0.154836333 C8.71756996,0.47107356 8.65168199,0.819589161 8.65840078,1.17239602 C8.67293466,1.96623101 9.00154448,2.59870547 9.65392471,3.04833178 C9.72814461,3.09995212 9.74723599,3.15158812 9.7238377,3.22687301 C9.67946864,3.38176535 9.6262195,3.53236644 9.57970481,3.68725878 C9.55010456,3.78622387 9.50575116,3.80772712 9.40168042,3.76470495 C9.04375225,3.61195823 8.73450006,3.38607226 8.46101876,3.11287287 C7.99715613,2.65463272 7.5776469,2.14907915 7.05461508,1.75325013 C6.93352239,1.66193655 6.809112,1.57510787 6.6816362,1.49294016 C6.14784493,0.963722045 6.75154919,0.529162104 6.89139082,0.477526103 C7.03740308,0.423744474 6.94221242,0.238735047 6.46973596,0.240880674 C5.9972595,0.243026301 5.56511143,0.404386847 5.01437441,0.61951336 C4.93371762,0.651776072 4.84898885,0.675440615 4.76241202,0.694813904 C4.26223035,0.597994444 3.7432392,0.57649119 3.2008341,0.638870987 C2.1797819,0.755048075 1.36416174,1.24769656 0.764498149,2.08884498 C0.0443505575,3.09995212 -0.125341912,4.24875527 0.082533321,5.44701746 C0.300353614,6.7098364 0.932013669,7.75536754 1.90225993,8.57285142 C2.90852766,9.42045239 4.06727586,9.83567036 5.38924833,9.75607857 C6.19221399,9.70873382 7.08607906,9.59902493 8.09449242,8.72774376 C8.34888234,8.85682594 8.6159111,8.90846194 9.05855238,8.94717719 C9.39980104,8.9794399 9.72814461,8.92996519 9.98226829,8.87618356 C10.3805248,8.79013922 10.3528196,8.41365216 10.208953,8.34481982 C9.04160662,7.78977588 9.29787593,8.01566185 9.06500492,7.83281371 C9.65821597,7.11642488 10.552081,6.3720646 10.9016773,3.96047384 C10.9293668,3.76901187 10.9059685,3.64854352 10.9016773,3.49365118 C10.899516,3.39899301 10.9204868,3.36240772 11.0267188,3.35166392 C11.3190252,3.31723992 11.6029997,3.23548684 11.863576,3.08920833 C12.619745,2.66755347 12.9249565,1.97482918 12.9970308,1.14442456 C13.0077903,1.01750367 12.9948852,0.886275874 12.8633755,0.819589161 M6.27262019,8.29318382 C5.1415772,7.38533302 4.59271955,7.0863078 4.36603484,7.09921288 C4.1541346,7.11211797 4.19231736,7.35952285 4.23883205,7.52086774 C4.28750803,7.680067 4.35123471,7.78977588 4.44023908,7.92961751 C4.50156956,8.02213005 4.54405924,8.1598104 4.37867368,8.26306674 C4.01429297,8.49325962 3.38100412,8.18562057 3.35143519,8.17056985 C2.61407559,7.72739608 1.99745059,7.14223505 1.56315689,6.34196317 C1.14366333,5.57179272 0.900299109,4.745695 0.859955057,3.86367004 C0.849195599,3.65068915 0.91077666,3.57538861 1.1181194,3.53665769 C1.39117117,3.4834601 1.6711853,3.47619257 1.94662899,3.51515444 C3.10135218,3.68727444 4.08448786,4.21433126 4.90842428,5.04904281 C5.37875512,5.52446363 5.734522,6.09241266 6.10131458,6.6474566 C6.49097297,7.23689322 6.9104822,7.79838971 7.44427347,8.25875982 C7.63277542,8.42010471 7.7830946,8.54273434 7.92722748,8.63308559 C7.49293379,8.68257597 6.7682287,8.69331976 6.27262019,8.29318382 M6.81500963,4.73278992 C6.81500963,4.63813175 6.88924519,4.5628312 6.98254081,4.5628312 C7.00369429,4.56319664 7.02269692,4.56678312 7.03954871,4.57359066 C7.10530345,4.59886299 7.14841705,4.66234985 7.14766012,4.73278992 C7.14823721,4.77757368 7.13088685,4.82072966 7.0994713,4.85265116 C7.06805575,4.88457265 7.02518245,4.90261022 6.98039518,4.90274863 C6.93577429,4.90261867 6.89308648,4.88452154 6.86196779,4.85254237 C6.83084909,4.82056319 6.81392276,4.77739776 6.81500963,4.73278992 M8.49921718,5.61481489 C8.39137202,5.65999834 8.28327627,5.69872926 8.17920553,5.70302052 C8.01839314,5.71163435 7.84253003,5.64494763 7.74733937,5.56319455 C7.59889957,5.436258 7.49293379,5.36526437 7.44856473,5.14368532 C7.42947335,5.04902715 7.4399509,4.90274863 7.45691231,4.81884992 C7.49509508,4.63813175 7.4526054,4.52197032 7.32783014,4.41655269 C7.22618693,4.33049269 7.09682285,4.30682815 6.95485126,4.30682815 C6.90186837,4.30682815 6.85320805,4.28317927 6.81717092,4.26380598 C6.78169454,4.24682526 6.75491029,4.21581466 6.74327116,4.1782454 C6.73163203,4.14067614 6.73619332,4.09995455 6.7558561,4.06589146 C6.77064057,4.03577438 6.84271484,3.96261946 6.8596606,3.94971438 C7.05245379,3.83784421 7.27484725,3.87442949 7.48029495,3.95832821 C7.67095818,4.03792001 7.81482482,4.18421418 8.02270005,4.39074252 C8.23460029,4.64029304 8.27278306,4.70914104 8.3932514,4.89629609 C8.48872397,5.0425746 8.57558271,5.19317569 8.6347519,5.36526437 C8.67103962,5.47284329 8.62425868,5.56103326 8.49921718,5.61481489" id="形状"></path>
                    </g>
                </g>
            </g>
        </g>
    </g>
</svg>