<?xml version="1.0" encoding="UTF-8"?>
<svg width="20px" height="20px" viewBox="0 0 20 20" version="1.1" xmlns="http://www.w3.org/2000/svg" xmlns:xlink="http://www.w3.org/1999/xlink">
    <title>编组 30备份</title>
    <g id="det门户" stroke="none" stroke-width="1" fill="none" fill-rule="evenodd">
        <g id="首页交互说明" transform="translate(-552.000000, -510.000000)">
            <g id="编组-8" transform="translate(544.000000, 504.000000)">
                <g id="编组-30备份" transform="translate(8.000000, 6.000000)">
                    <circle id="椭圆形" fill="#6936E9" opacity="0" cx="10" cy="10" r="10"></circle>
                    <g id="编组" transform="translate(2.000000, 2.000000)" fill="#666666" fill-rule="nonzero">
                        <path d="M8,15.1428571 C11.9448929,15.1428571 15.1428571,11.9448929 15.1428571,8 C15.1428571,4.05510714 11.9448929,0.857142857 8,0.857142857 C4.05510714,0.857142857 0.857142857,4.05510714 0.857142857,8 C0.857142857,11.9448929 4.05510714,15.1428571 8,15.1428571 Z M8,16 C3.58171429,16 0,12.4182857 0,8 C0,3.58171429 3.58171429,0 8,0 C12.4182857,0 16,3.58171429 16,8 C16,12.4182857 12.4182857,16 8,16 Z M1.19214286,4.64721429 L0.843964286,4.39732143 L1.34375,3.70096429 L1.69192857,3.95085714 C2.16578571,4.29092857 2.82939286,4.56023214 3.68103571,4.75582143 C4.32283929,2.75826786 5.62153571,1.26814286 7.57142857,0.307357143 L7.57142857,0.0714285714 L8.42857143,0.0714285714 L8.42857143,0.376910714 C10.3008214,1.33894643 11.553,2.80441071 12.1797857,4.75294643 C13.0254464,4.55758929 13.6848929,4.28926786 14.1564464,3.95085714 L14.504625,3.70096429 L15.0043929,4.39732143 L14.6562143,4.64721429 C14.0949286,5.05003571 13.3441786,5.36030357 12.4021964,5.58107143 C12.5674643,6.33632143 12.6502321,7.15485714 12.6502321,8.03571429 C12.6502321,8.78260714 12.5907321,9.48467857 12.471875,10.141375 C13.4482143,10.3605179 14.2248571,10.6701071 14.80375,11.0732143 L15.1554464,11.3181071 L14.6656429,12.0215179 L14.3139286,11.7766071 C13.8291071,11.4390179 13.1511429,11.1715357 12.2818571,10.9770179 C11.6951786,13.0965357 10.4086429,14.6770714 8.42857143,15.6945179 L8.42857143,15.9285714 L8.09801786,15.9285714 L8.06394643,15.9999464 L7.930875,15.9364286 L7.79780357,15.9999464 L7.76375,15.9285714 L7.57142857,15.9285714 L7.57142857,15.7640714 C5.51208929,14.7493571 4.17910714,13.1442321 3.57921429,10.9745179 C2.70451786,11.1692321 2.02278571,11.4375536 1.53589286,11.7766071 L1.18417857,12.0215179 L0.694375,11.3181071 L1.04607143,11.0732143 C1.62723214,10.6685357 2.40767857,10.3581071 3.38941071,10.1388036 C3.270875,9.48285714 3.21151786,8.781625 3.21151786,8.03571429 C3.21151786,7.15601786 3.29407143,6.33846429 3.45891071,5.58403571 C2.51094643,5.36308929 1.75596429,5.05185714 1.19216071,4.64721429 L1.19214286,4.64721429 Z M8.42857143,9.74089286 C9.64125,9.75798214 10.7080893,9.83785714 11.6303393,9.98248214 C11.7389107,9.37901786 11.7930893,8.73030357 11.7930893,8.03571429 C11.7930893,7.20771429 11.7160714,6.44489286 11.56175,5.74619643 C10.6594107,5.89289286 9.61539286,5.97410714 8.42857143,5.99178571 L8.42857143,9.74089286 Z M11.3315,4.91475 C10.8091607,3.36755357 9.84278571,2.18569643 8.42857143,1.35466071 L8.42857143,5.1345 C9.53367857,5.11748214 10.5016786,5.04360714 11.3315,4.91475 Z M4.29953571,5.74830357 C4.14553571,6.44642857 4.06866071,7.20853571 4.06866071,8.03571429 C4.06866071,8.72960714 4.12276786,9.37771429 4.23110714,9.98066071 C5.18860714,9.83128571 6.30160714,9.75146429 7.57142857,9.73910714 L7.57142857,5.99367857 C6.32742857,5.98092857 5.23721429,5.89985714 4.29953571,5.74830357 L4.29953571,5.74830357 Z M7.57142857,1.27535714 C6.08116071,2.11017857 5.068625,3.31864286 4.52960714,4.91671429 C5.39439286,5.05019643 6.40873214,5.12414286 7.57142857,5.13646429 L7.57142857,1.27535714 Z M8.42857143,14.7167679 C9.94366071,13.8264643 10.94475,12.5334821 11.4365,10.8199821 C10.5781964,10.6894107 9.57516071,10.6148393 8.42857143,10.5981607 L8.42857143,14.7167679 L8.42857143,14.7167679 Z M4.42476786,10.8182679 C4.931125,12.5841964 5.97832143,13.903625 7.57142857,14.7960714 L7.57142857,10.5963036 C6.36719643,10.6084286 5.31785714,10.6831071 4.42476786,10.8182679 L4.42476786,10.8182679 Z" id="形状"></path>
                    </g>
                </g>
            </g>
        </g>
    </g>
</svg>