<?xml version="1.0" encoding="UTF-8"?>
<svg width="16px" height="16px" viewBox="0 0 16 16" version="1.1" xmlns="http://www.w3.org/2000/svg" xmlns:xlink="http://www.w3.org/1999/xlink">
    <title>编组</title>
    <g id="det门户" stroke="none" stroke-width="1" fill="none" fill-rule="evenodd">
        <g id="首页交互说明" transform="translate(-1480.000000, -513.000000)" fill="#FFFFFF" fill-rule="nonzero">
            <g id="编组-30备份-2" transform="translate(1472.000000, 504.000000)">
                <g id="路径" transform="translate(8.000000, 9.000000)">
                    <path d="M9.15150297,13.3200595 L13.2560387,15.0782075 C13.5095254,15.1844692 13.7922607,15.0299067 13.8312586,14.7594224 L15.9956456,0.472054895 C16.0443931,0.133949512 15.6739124,-0.117214487 15.3814277,0.0566682812 L0.201470268,8.90536917 C-0.0812649701,9.06959179 -0.0617659882,9.4849784 0.230718741,9.62988071 L3.63329108,11.2141459 C3.78928294,11.281767 3.96477378,11.2624467 4.09151716,11.1465249 L14.4064786,1.85345689 L6.05116484,12.1898215 C5.9926679,12.2574425 5.96341942,12.3443839 5.96341942,12.4313253 L5.8854235,15.5805355 C5.87567401,15.9669416 6.36314855,16.1504845 6.61663532,15.8510198 L8.69327689,13.4359813 C8.7907718,13.3007392 8.98576162,13.2524384 9.15150297,13.3200595 Z"></path>
                </g>
            </g>
        </g>
    </g>
</svg>