<?xml version="1.0" encoding="UTF-8"?>
<svg width="32px" height="32px" viewBox="0 0 32 32" version="1.1" xmlns="http://www.w3.org/2000/svg" xmlns:xlink="http://www.w3.org/1999/xlink">
    <title>Practice Test</title>
    <g id="24.9" stroke="none" stroke-width="1" fill="none" fill-rule="evenodd">
        <g id="Course-官网-未买前" transform="translate(-149.000000, -518.000000)">
            <g id="Practice-Test" transform="translate(149.000000, 518.000000)">
                <rect id="矩形" fill="#D8D8D8" opacity="0" x="0" y="0" width="32" height="32"></rect>
                <g id="编组" transform="translate(2.000000, 2.000000)" fill-rule="nonzero">
                    <path d="M21.5527017,28.0390729 L4.27078914,28.0390729 C1.91199945,28.0390729 0,26.1270735 0,23.7682838 L0,6.46337468 C0,4.10458498 1.91199945,2.19258554 4.27078914,2.19258554 L21.5527017,2.19258554 C23.9114914,2.19258554 25.8234908,4.10458498 25.8234908,6.46337468 L25.8234908,23.7666411 C25.8234908,26.1270735 23.9114914,28.0390729 21.5527017,28.0390729 Z" id="路径" fill="#FE8468"></path>
                    <path d="M15.6967927,16.6409937 L11.7463127,18.0536394 C10.722966,18.4199417 10.0675641,17.738258 10.4453647,16.7034129 L11.8415842,12.8646306 C11.956567,12.5476066 12.1602508,12.2322252 12.4230686,11.962837 L23.2248799,0.617321388 C23.9279175,-0.105427544 24.7065152,-0.162918936 25.1680889,0.285513923 L27.6927824,2.74121768 C28.1543561,3.18965054 28.1215039,3.9748187 27.4184663,4.69756763 L16.646222,16.0135162 C16.3636929,16.2993306 16.0302428,16.5210831 15.6967927,16.6409937 L15.6967927,16.6409937 Z" id="路径" fill="#FE8468"></path>
                    <path d="M21.7366741,2.19587076 L12.421426,11.9611944 C12.1586082,12.2305826 11.956567,12.545964 11.8399416,12.8629879 L10.4437221,16.7017703 C10.0675641,17.738258 10.722966,18.4182991 11.7446701,18.0519968 L15.6951501,16.6393511 C16.0302428,16.5194405 16.3636929,16.2993306 16.6445794,16.010231 L25.818563,6.38945717 C25.8119925,4.11444065 23.9985498,2.26321782 21.7366741,2.19587076 Z" id="路径" fill="#F66442"></path>
                    <path d="M18.0621528,22.9650469 L7.76133796,22.9650469 C7.12564742,22.9650469 6.61151011,22.4509096 6.61151011,21.815219 C6.61151011,21.1795285 7.12564742,20.6653912 7.76133796,20.6653912 L18.0621528,20.6653912 C18.6978434,20.6653912 19.2119807,21.1795285 19.2119807,21.815219 C19.2119807,22.4509096 18.6978434,22.9650469 18.0621528,22.9650469 Z" id="路径" fill="#FFFFFF"></path>
                </g>
            </g>
        </g>
    </g>
</svg>