<?xml version="1.0" encoding="UTF-8"?>
<svg width="480px" height="410px" viewBox="0 0 480 410" version="1.1" xmlns="http://www.w3.org/2000/svg" xmlns:xlink="http://www.w3.org/1999/xlink">
    <title>introduction_pic</title>
    <defs>
        <rect id="path-1" x="0" y="0" width="480" height="410" rx="20"></rect>
        <linearGradient x1="50%" y1="100%" x2="50%" y2="3.061617e-15%" id="linearGradient-3">
            <stop stop-color="#F2FFF6" offset="0%"></stop>
            <stop stop-color="#E7FDEC" offset="100%"></stop>
        </linearGradient>
        <linearGradient x1="0.0266665005%" y1="49.9589804%" x2="99.9829914%" y2="49.9589804%" id="linearGradient-4">
            <stop stop-color="#FFD400" offset="0%"></stop>
            <stop stop-color="#FFBD00" offset="100%"></stop>
        </linearGradient>
        <linearGradient x1="-0.13%" y1="50.0061538%" x2="99.9166667%" y2="50.0061538%" id="linearGradient-5">
            <stop stop-color="#FFD400" offset="0%"></stop>
            <stop stop-color="#FFBD00" offset="100%"></stop>
        </linearGradient>
        <linearGradient x1="-0.155897436%" y1="49.9851662%" x2="99.8905128%" y2="49.9851662%" id="linearGradient-6">
            <stop stop-color="#FFD400" offset="0%"></stop>
            <stop stop-color="#FFBD00" offset="100%"></stop>
        </linearGradient>
    </defs>
    <g id="det门户" stroke="none" stroke-width="1" fill="none" fill-rule="evenodd">
        <g id="Course" transform="translate(-360.000000, -986.000000)">
            <g id="introduction_pic" transform="translate(360.000000, 986.000000)">
                <mask id="mask-2" fill="white">
                    <use xlink:href="#path-1"></use>
                </mask>
                <g id="蒙版"></g>
                <g id="配图备份" mask="url(#mask-2)">
                    <g transform="translate(0.000000, 5.000000)">
                        <path d="M112.932878,196.180309 C88.2997874,200.997012 61.0525725,197.384485 39.8379513,210.730767 C17.8189843,224.578789 9.47389639,254.582836 16.5119224,279.569484 C23.5499484,304.556132 43.5580508,324.425033 66.5824501,336.567139 C89.6068494,348.608897 115.647545,353.826992 141.386612,357.339172 C201.712549,365.668054 264.95424,365.668054 321.157904,342.387322 C377.361569,319.10659 425.119602,268.631554 431.654912,208.222067 C434.06795,186.346207 430.750023,163.26617 418.986465,144.701793 C405.010957,122.524889 380.679495,108.977911 355.744775,100.849724 C308.388914,85.4964825 250.777644,88.5069221 209.052205,117.607837 C194.473436,127.843332 187.43541,141.992398 176.677285,155.639723 C160.489825,175.910016 138.671945,191.062562 112.932878,196.180309 Z" id="路径" fill="url(#linearGradient-3)" fill-rule="nonzero"></path>
                        <g id="mine备份" stroke-width="1" fill="none" fill-rule="evenodd" transform="translate(0.000000, 252.876920)"></g>
                        <g id="编组" stroke-width="1" fill="none" fill-rule="evenodd" transform="translate(15.808120, 86.402823)">
                            <g fill-rule="nonzero" id="路径">
                                <path d="M310.678575,5.21488696 L300.121536,174.903328 C299.719364,181.726991 296.401437,188.048914 290.871559,192.464225 L290.871559,192.464225 L134.22521,222.970013 L139.855631,159.550087 L146.893657,80.877267 L148.502348,63.4167178 C148.703435,61.6104541 149.909953,60.0048863 151.719732,59.3024504 L303.540006,0.297835734 C307.059019,-0.906340076 310.879662,1.70270751 310.678575,5.21488696 Z" fill="#C6C6C6"></path>
                                <path d="M291.474819,192.163181 L159.964276,278.3621 C155.439831,281.272191 150.41267,283.379499 145.083878,284.583675 L11.3613848,313.483894 C10.4564957,313.68459 9.9537796,312.580763 10.6575822,312.079023 L141.062149,228.5895 L290.2683,189.855178 C291.876992,189.353438 292.781881,191.26005 291.474819,192.163181 Z" fill="#D8D8D8"></path>
                                <path d="M291.273732,182.329079 L304.444895,10.0315902 C304.545439,8.22532648 302.635117,6.92080269 300.825339,7.62323858 L156.244177,64.0188057 C155.339288,64.4201976 154.736028,65.1226335 154.635485,66.0257654 L140.257803,221.364445 L291.273732,182.329079 Z" fill="#002331"></path>
                                <path d="M291.273732,182.329079 L291.273732,182.329079 C294.792745,185.038475 294.491116,190.156222 290.771016,192.564573 L167.102845,273.746093 C167.102845,273.746093 155.942547,281.171843 151.518645,282.777411 C147.094743,284.382979 93.3041159,295.722301 93.3041159,295.722301 L11.1602983,313.383546 C8.54617441,313.985634 5.73096401,313.283198 3.61955622,311.677631 L-5.71522084e-14,308.867887 L291.273732,182.329079 Z" fill="#CECECE"></path>
                                <path d="M291.273732,182.329079 L153.026793,272.842961 C148.502348,275.753052 143.475187,277.86036 138.146396,279.064536 L0.100543228,308.867887 L134.22521,223.070361 L291.273732,182.329079 Z" fill="#EFEFEF"></path>
                                <polygon fill="#002331" points="254.776541 197.782669 194.450604 240.129518 66.7607036 269.130085 128.192616 229.291936"></polygon>
                                <polygon fill="#F9F9F9" points="147.999632 252.371972 102.252463 283.881239 43.7363043 296.023345 86.9698925 266.822082"></polygon>
                                <path d="M87.6736951,289.80177 L87.8747815,291.909078 C87.9753248,293.213602 87.0704357,294.317429 85.7633737,294.618473 L63.3422338,299.535525 C62.1357151,299.836569 60.8286531,299.234481 60.325937,298.231001 L59.1194182,296.023345 L87.6736951,289.80177 Z" fill="#F9F9F9"></path>
                                <path d="M265.836296,205.810507 L275.287359,199.789628 C275.890618,199.388236 276.091705,198.585452 275.689532,197.983365 L275.689532,197.983365 C275.287359,197.381277 274.38247,197.180581 273.678667,197.682321 L264.227604,203.7032 C263.624345,204.104592 263.423258,204.907375 263.825431,205.509463 L263.825431,205.509463 C264.328147,206.011203 265.233036,206.211899 265.836296,205.810507 Z" fill="#BCBCBC"></path>
                                <path d="M250.955898,215.64461 L260.406961,209.623731 C261.010221,209.222339 261.211307,208.419555 260.809134,207.817467 L260.809134,207.817467 C260.406961,207.215379 259.502072,207.014683 258.79827,207.516423 L249.347206,213.537302 C248.743947,213.938694 248.54286,214.741478 248.945033,215.343566 L248.945033,215.343566 C249.447749,215.945654 250.352638,216.046002 250.955898,215.64461 Z" fill="#BCBCBC"></path>
                                <path d="M286.146028,189.353438 C286.146028,190.457266 287.15146,191.360398 288.357979,191.360398 C289.564498,191.360398 290.56993,190.457266 290.56993,189.353438 C290.56993,188.24961 289.564498,187.346478 288.357979,187.346478 C287.15146,187.346478 286.146028,188.24961 286.146028,189.353438 Z" fill="#BCBCBC"></path>
                                <polygon fill="#F2ECEB" points="297.708499 16.5542092 286.045485 169.986277 146.592027 206.613291 159.361017 69.8389888"></polygon>
                            </g>
                            <g transform="translate(98.297115, 31.205015)" fill-rule="nonzero" id="路径">
                                <g transform="translate(56.137284, 0.000000)">
                                    <polygon fill="#F66442" points="9.75269315 45.6583328 131.10837 0 130.304024 10.5365383 8.94834732 54.4889554"></polygon>
                                    <polygon fill="#F66442" points="9.55160669 60.0080945 131.10837 16.9588093 130.304024 27.4953477 8.94834732 68.4373252"></polygon>
                                    <polygon fill="#F66442" points="7.54074212 97.9396326 129.600221 60.3091385 128.795875 70.7453289 6.13313693 107.573039"></polygon>
                                    <polygon fill="#F66442" points="5.83150724 114.49705 127.99153 79.0742115 127.187184 89.5104019 4.32335882 124.832892"></polygon>
                                    <polygon fill="#F66442" points="4.32335882 129.649596 126.483381 94.2267572 122.964368 133.964559 0 164.26965"></polygon>
                                    <polygon fill="#3D3BE2" points="9.14943378 72.7522885 77.7199155 50.475036 76.5133967 60.2087905 8.64671763 82.0846511"></polygon>
                                </g>
                                <g transform="translate(0.000000, 11.376370)">
                                    <path d="M151.050091,10.7001869 L146.02293,82.9507355 C145.922387,84.8573472 144.514782,86.5632629 142.705003,87.0650028 L41.5585157,117.06905 L48.5965417,38.3962305 L144.916954,5.88348364 C148.033795,4.88000379 151.251178,7.3887034 151.050091,10.7001869 Z" fill="#000000" opacity="0.6"></path>
                                    <g>
                                        <path d="M7.77599102,47.0261572 L0.0341624435,114.861394 C-0.36801047,118.172878 2.84937284,120.781926 6.06675614,119.878794 L135.968607,81.3451677 C137.878928,80.7430798 139.18599,79.1375121 139.286534,77.2309004 L144.313695,4.98035178 C144.514782,1.6688683 141.297398,-0.839831304 138.180558,0.263996522 L10.8928311,43.1125858 C9.18359622,43.7146737 7.97707748,45.2198934 7.77599102,47.0261572 Z" fill="url(#linearGradient-4)"></path>
                                        <polygon fill="#FFFFFF" points="11.5966337 109.944343 6.77055874 108.740167 6.77055874 114.359655"></polygon>
                                        <g transform="translate(13.381276, 74.421157)">
                                            <line x1="0.930024862" y1="35.1217945" x2="118.967775" y2="0" stroke="#FFFFFF" stroke-width="2" fill="#FFFFFF" opacity="0.3" stroke-linecap="round" stroke-linejoin="round"></line>
                                            <g transform="translate(0.000000, 7.199968)">
                                                <line x1="0.930024862" y1="28.1225226" x2="91.5194736" y2="0.82787087" fill="#00D7BE"></line>
                                                <path d="M0.930024862,29.0256544 C0.527851949,29.0256544 0.125679035,28.7246105 0.0251358071,28.4235665 C-0.0754074212,27.9218266 0.125679035,27.4200867 0.628395177,27.3197387 L91.2178439,0.025086996 C91.72056,-0.0752609881 92.2232762,0.12543498 92.3238194,0.627174901 C92.4243626,1.12891482 92.2232762,1.63065474 91.72056,1.73100273 L1.13111132,29.0256544 C1.13111132,29.0256544 1.03056809,29.0256544 0.930024862,29.0256544 Z" fill="#F66442"></path>
                                            </g>
                                        </g>
                                    </g>
                                </g>
                            </g>
                        </g>
                        <g id="编组" stroke-width="1" fill="none" fill-rule="evenodd" transform="translate(280.754548, 192.389523)">
                            <ellipse id="椭圆形" fill="#C13A1A" fill-rule="nonzero" transform="translate(38.019648, 39.713989) rotate(-39.233373) translate(-38.019648, -39.713989) " cx="38.0196476" cy="39.7139892" rx="21.3997534" ry="33.8446371"></ellipse>
                            <path d="M61.0147184,63.9995761 C58.199508,66.3075797 54.5799518,67.3110596 50.6587659,67.1103636 C42.0120483,66.8093197 31.6560958,60.9891366 23.6126375,51.1550341 C11.949623,36.8052724 9.63712876,19.3447231 18.4849328,12.1196683 C18.4849328,12.1196683 18.4849328,12.1196683 18.5854761,12.0193203 C27.5338234,4.79426543 44.2239993,10.5141005 55.987557,24.7635143 C67.6505715,39.213624 69.9630657,56.7745212 61.0147184,63.9995761 Z" id="路径" fill="#F66442" fill-rule="nonzero"></path>
                            <polygon id="路径" fill="#FFFFFD" fill-rule="nonzero" points="32.1588119 29.6805655 42.313678 50.1515543 50.9603956 32.791353"></polygon>
                        </g>
                        <g id="编组" stroke-width="1" fill="none" fill-rule="evenodd" transform="translate(256.307522, 4.013919)">
                            <g fill-rule="nonzero" id="路径">
                                <polygon fill="#082432" points="143.073014 61.6136623 134.124667 64.7244498 130.002394 66.2296696 108.3856 73.8561164 102.45355 71.3474168 22.018967 38.132234 17.192892 36.1252743 0 3.11078751 131.912716 56.997655"></polygon>
                                <polygon fill="#666672" points="0 3.11078751 1.80977811 0 144.882792 58.9042667 143.073014 61.6136623"></polygon>
                                <path d="M15.6847436,50.77608 L26.5434123,29.0005674 C26.5434123,29.0005674 45.5460824,26.1908239 68.268852,35.6235344 C91.0921648,45.0562449 107.179081,62.1154022 107.179081,62.1154022 L96.3204127,83.7905668 L15.6847436,50.77608 Z" fill="#666672"></path>
                                <path d="M52.1819355,76.364816 C34.4863273,68.9390651 20.5108186,60.1084425 16.6901759,54.2882594 C15.6847436,52.7830397 15.3831139,51.5788639 15.7852868,50.575384 C17.8966946,45.5579848 37.6031674,49.0701643 59.8232208,58.3021788 C70.1791734,62.6171421 79.1275207,67.4338454 85.6628305,71.8491567 C93.2035726,76.9669039 97.325845,81.4825632 96.2198695,84.1919587 C94.1084617,89.10901 74.4019889,85.5968305 52.1819355,76.364816 Z" fill="#082432"></path>
                                <path d="M52.1819355,76.364816 C34.4863273,68.9390651 20.5108186,60.1084425 16.6901759,54.2882594 C16.8912624,54.1879115 16.9918056,53.9872155 17.192892,53.8868675 C21.9184238,50.876428 28.0515607,53.5858236 32.9781789,56.2952191 C42.9319585,61.8143583 52.8857381,67.4338454 62.8395177,72.9529845 C66.3585307,74.9599442 69.9780869,76.9669039 73.999816,77.5689918 C80.6356691,78.6728196 83.5514227,75.963424 85.6628305,71.7488087 C93.2035726,76.8665559 97.325845,81.3822152 96.2198695,84.0916107 C94.1084617,89.10901 74.4019889,85.5968305 52.1819355,76.364816 Z" fill="#000000" opacity="0.4"></path>
                            </g>
                            <path d="M134.124667,64.7244498 L130.002394,66.1293216 C129.298592,60.6101824 131.912716,56.997655 131.912716,56.997655 L134.124667,64.7244498 Z" id="路径" fill="#000000" fill-rule="nonzero" opacity="0.4"></path>
                            <g transform="translate(131.489742, 53.585824)" fill-rule="nonzero" id="路径">
                                <path d="M6.7571971,2.5086996 C6.7571971,2.5086996 -1.28626116,33.4158787 21.8386813,46.3607687 L18.7218413,51.5788639 C18.7218413,51.5788639 -4.90581738,36.1252743 0.925689858,0 L6.7571971,2.5086996 Z" fill="#4BE2AC"></path>
                                <path d="M21.8386813,46.4611167 C21.8386813,46.4611167 42.3494999,55.6931312 52.2027363,55.3920873 L33.0995229,80.4790833 C29.2788802,70.9460248 24.3522621,61.3126183 18.7218413,51.7795598 L21.8386813,46.4611167 Z" fill="#4BE2AC"></path>
                                <path d="M17.716409,55.8938272 L17.716409,55.8938272 C19.2245574,56.796959 21.1348787,56.3955671 22.0397678,54.8903474 L25.8604105,48.7691203 C26.7652995,47.2639006 26.3631266,45.3572889 24.8549782,44.454157 L24.8549782,44.454157 C23.3468298,43.5510251 21.4365084,43.9524171 20.5316194,45.4576368 L16.7109767,51.5788639 C15.8060876,52.9837357 16.3088038,54.9906953 17.716409,55.8938272 Z" fill="#06CC76"></path>
                                <polygon fill="#06CC76" points="49.1864394 59.0046147 32.3957203 53.9872155 47.2761181 61.8143583"></polygon>
                                <polygon fill="#06CC76" points="31.6919177 63.620622 37.8250546 74.1571603 39.4337463 72.0498526"></polygon>
                            </g>
                        </g>
                        <g id="编组" stroke-width="1" fill="none" fill-rule="evenodd" transform="translate(85.685663, 52.883388)">
                            <g fill-rule="nonzero" id="路径">
                                <path d="M102.15192,55.1913913 L16.3885462,55.1913913 C7.33965567,55.1913913 0,47.8659885 0,38.8346699 L0,16.3567214 C0,7.32540285 7.33965567,0 16.3885462,0 L102.15192,0 C111.200811,0 118.540466,7.32540285 118.540466,16.3567214 L118.540466,38.8346699 C118.540466,47.8659885 111.200811,55.1913913 102.15192,55.1913913 Z" fill="#06CC76"></path>
                                <path d="M101.045944,65.1258417 L17.192892,65.1258417 C7.74182858,65.1258417 0,57.399047 0,47.9663364 L0,21.1734247 C0,11.7407141 7.74182858,4.01391937 17.192892,4.01391937 L101.045944,4.01391937 C110.497008,4.01391937 118.238836,11.7407141 118.238836,21.1734247 L118.238836,47.9663364 C118.238836,57.399047 110.497008,65.1258417 101.045944,65.1258417 Z" fill="#4BE2AC"></path>
                                <polygon fill="#4BE2AC" points="28.0515607 54.5893034 35.7933893 88.1055301 47.3558605 54.0875635"></polygon>
                            </g>
                            <rect id="矩形" fill="#FEFFFF" fill-rule="nonzero" x="11.8641009" y="13.4466299" width="96.5214992" height="9.23201455"></rect>
                            <rect id="矩形" fill="#FEFFFF" fill-rule="nonzero" x="11.8641009" y="44.153113" width="96.5214992" height="9.23201455"></rect>
                            <rect id="矩形" fill="#FEFFFF" fill-rule="nonzero" x="11.8641009" y="29.1009154" width="49.2661819" height="9.23201455"></rect>
                            <rect id="矩形" fill="#FEFFFF" fill-rule="nonzero" x="64.749839" y="29.1009154" width="43.8368475" height="9.23201455"></rect>
                        </g>
                        <path d="M400.687598,309.473183 L361.475739,309.473183 L361.475739,290.70811 C361.475739,279.469136 370.625172,270.337469 381.886014,270.337469 L400.687598,270.337469 L400.687598,309.473183 Z" id="路径" fill="url(#linearGradient-5)" fill-rule="nonzero"></path>
                        <path d="M236.198876,39.2360618 L196.987017,39.2360618 L196.987017,20.3706408 C196.987017,9.13166656 206.136451,0 217.397293,0 L236.198876,0 L236.198876,39.2360618 Z" id="路径" fill="url(#linearGradient-6)" fill-rule="nonzero"></path>
                        <path d="M62.4601777,228.49236 L40.8433836,228.49236 L40.8433836,209.325895 C40.8433836,197.886225 50.0933606,188.553862 61.6558319,188.553862 L80.8595885,188.553862 L80.8595885,210.128679 C80.8595885,220.263825 72.6150438,228.49236 62.4601777,228.49236 Z" id="路径" fill="#3D3BE2" fill-rule="nonzero"></path>
                    </g>
                </g>
            </g>
        </g>
    </g>
</svg>