<?xml version="1.0" encoding="UTF-8"?>
<svg width="56px" height="56px" viewBox="0 0 56 56" version="1.1" xmlns="http://www.w3.org/2000/svg" xmlns:xlink="http://www.w3.org/1999/xlink">
    <title>listening_cilck</title>
    <g id="det门户" stroke="none" stroke-width="1" fill="none" fill-rule="evenodd">
        <g id="Course" transform="translate(-124.000000, -1978.000000)" fill="#F66442" fill-rule="nonzero">
            <g id="listening_cilck" transform="translate(124.000000, 1978.000000)">
                <path d="M51.472979,24.226019 L51.472979,23.4380793 C51.472979,20.2863205 50.8476999,17.2221106 49.6221527,14.3329983 C48.4403752,11.5439419 46.7458687,9.03629257 44.5886556,6.88509213 C42.4314426,4.73389168 39.9240732,3.03919598 37.1415811,1.85103294 C34.2527914,0.625348967 31.1889236,0 28.0375167,0 C24.8861099,0 21.8222421,0.625348967 18.9334524,1.85103294 C16.1447075,3.03294249 13.6373381,4.72763819 11.4863778,6.88509213 C9.3354176,9.04254606 7.63465833,11.5501954 6.45288075,14.3329983 C5.22733363,17.2221106 4.60205449,20.2863205 4.60205449,23.4380793 L4.60205449,24.1634841 C1.88209022,25.4454495 0,28.2094919 0,31.4050251 C0,35.2134003 2.67619473,38.4026801 6.24028584,39.2093802 C7.64716391,42.7551089 9.92317999,45.9381351 12.8494864,48.439531 C15.9321126,51.0785036 19.6525234,52.8732552 23.6042876,53.6361809 C23.6167932,53.6361809 23.6355516,53.6424344 23.6480572,53.6424344 C24.2858419,55.0307091 25.6864672,56 27.3121929,56 L32.7208575,56 C34.9405985,56 36.7476552,54.1927415 36.7476552,51.9727527 C36.7476552,49.7527638 34.9405985,47.9455053 32.7208575,47.9455053 L27.3121929,47.9455053 C25.2612774,47.9455053 23.5667709,49.4838638 23.3166592,51.46622 C16.8262617,49.9841429 11.3238053,45.4691234 8.56632425,39.3969849 L11.4613667,39.3969849 C12.0303707,39.3969849 12.4930773,38.9342267 12.4930773,38.3651591 L12.4930773,24.4448911 C12.4930773,23.8758236 12.0303707,23.4130653 11.4613667,23.4130653 L9.44796784,23.4130653 C9.45422063,18.4853155 11.392586,13.8327192 14.9129075,10.3120045 C18.4332291,6.79128978 23.0978115,4.84645449 28.0375167,4.84645449 C32.977222,4.84645449 37.6418044,6.78503629 41.1621259,10.3120045 C44.6824475,13.8327192 46.6270657,18.491569 46.6270657,23.4318258 L44.5386333,23.4318258 C43.9696293,23.4318258 43.5069227,23.894584 43.5069227,24.4636516 L43.5069227,38.3901731 C43.5069227,38.9592406 43.9696293,39.4219989 44.5386333,39.4219989 L48.0026798,39.4219989 C52.4108977,39.4219989 56,35.8324958 56,31.4237856 C55.9937472,28.2657733 54.1491737,25.5204913 51.472979,24.226019 Z M27.3059402,50.0154104 L32.7146047,50.0154104 C33.7963377,50.0154104 34.6779812,50.8971524 34.6779812,51.9790061 C34.6779812,53.0608599 33.7963377,53.9426019 32.7146047,53.9426019 L27.3059402,53.9426019 C26.2242072,53.9426019 25.3425636,53.0608599 25.3425636,51.9790061 C25.3488164,50.8908989 26.2242072,50.0154104 27.3059402,50.0154104 Z M10.4296561,25.4767169 L10.4296561,37.3395868 L7.99732023,37.3395868 C4.72711032,37.3395868 2.06342117,34.6756002 2.06342117,31.4050251 C2.06342117,28.13445 4.72711032,25.4704634 7.99732023,25.4704634 L10.4296561,25.4704634 L10.4296561,25.4767169 Z M42.0437695,9.43026242 C38.2858419,5.67191513 33.3086199,3.60201005 28.0375167,3.60201005 C22.7601608,3.60201005 17.7891916,5.67191513 14.031264,9.43026242 C10.2795891,13.1823562 8.20991514,18.147627 8.20366235,23.4130653 L7.99732023,23.4130653 C7.54711925,23.4130653 7.10317106,23.4505863 6.67172845,23.5256281 L6.67172845,23.4443328 C6.67172845,11.6565047 16.2572577,2.06990508 28.0437695,2.06990508 C39.8302814,2.06990508 49.4158106,11.6565047 49.4158106,23.4443328 L49.4158106,23.5631491 C48.9593569,23.4818537 48.4903975,23.4380793 48.0089326,23.4380793 L47.8838767,23.4380793 C47.8713711,18.160134 45.8016972,13.1886097 42.0437695,9.43026242 Z M48.0026798,37.3646008 L45.5703439,37.3646008 L45.5703439,25.4954774 L48.0026798,25.4954774 C51.2728897,25.4954774 53.9365788,28.159464 53.9365788,31.4300391 C53.9365788,34.7006142 51.2728897,37.3646008 48.0026798,37.3646008 Z" id="形状"></path>
                <path d="M20.2914754,27.3598016 C20.6471925,27.3598016 20.9465915,27.6261112 20.9882104,27.9794247 L20.9931219,28.0615265 L20.9931219,35.8029559 C20.9927102,36.1742339 20.7031942,36.4809378 20.3325955,36.5026964 C19.9619968,36.524455 19.6385868,36.2537372 19.5947403,35.8850577 L19.5898288,35.8029559 L19.5898288,28.0615265 C19.5898288,27.6739746 19.9039667,27.3598016 20.2914754,27.3598016 Z M25.4366496,19.6232841 C25.7926345,19.6229753 26.0924362,19.8893279 26.1340863,20.2429075 L26.1382962,20.3250093 L26.1382962,35.7875179 C26.1375184,36.1586636 25.8478987,36.4650209 25.4774206,36.4865865 C25.1069426,36.5081521 24.7837406,36.2374673 24.7399146,35.868918 L24.7350031,35.7875179 L24.7350031,20.3250093 C24.7350031,19.9374573 25.0491409,19.6232841 25.4366496,19.6232841 L25.4366496,19.6232841 Z M30.5825256,25.5697013 C30.9382427,25.5697013 31.2376417,25.8360109 31.2792606,26.1893244 L31.2841721,26.2714263 L31.2841721,35.7882196 C31.2867242,36.1617844 30.9961924,36.4718587 30.623291,36.4935545 C30.2503897,36.5152503 29.9258665,36.2409605 29.8850889,35.8696197 L29.880879,35.7882196 L29.880879,26.2714263 C29.880879,25.8838743 30.1950169,25.5697013 30.5825256,25.5697013 Z M35.7276999,22.9333208 C36.0836552,22.9333208 36.3831441,23.2000538 36.4244349,23.5536456 L36.4293464,23.6350457 L36.4293464,35.7882196 C36.4285686,36.1593653 36.1389489,36.4657226 35.7684708,36.4872882 C35.3979928,36.5088538 35.0747908,36.238169 35.0309648,35.8696197 L35.0260533,35.7882196 L35.0260533,23.6350457 C35.0260533,23.2474938 35.3401912,22.9333208 35.7276999,22.9333208 Z" id="形状"></path>
            </g>
        </g>
    </g>
</svg>