<?xml version="1.0" encoding="UTF-8"?>
<svg width="56px" height="56px" viewBox="0 0 56 56" version="1.1" xmlns="http://www.w3.org/2000/svg" xmlns:xlink="http://www.w3.org/1999/xlink">
    <title>speaking_nor</title>
    <g id="det门户" stroke="none" stroke-width="1" fill="none" fill-rule="evenodd">
        <g id="Course" transform="translate(-474.000000, -1860.000000)" fill-rule="nonzero">
            <g id="编组-13" transform="translate(360.000000, 1516.000000)">
                <g id="编组-11" transform="translate(0.000000, 320.000000)">
                    <g id="speaking_nor" transform="translate(114.000000, 24.000000)">
                        <path d="M13.7269615,13.0806564 L27.6610514,17.5989747 C27.7677538,17.6301786 27.8744563,17.6489009 27.9811588,17.6489009 C28.0878613,17.6489009 28.1945638,17.6301786 28.2949897,17.5989747 L42.3295054,13.1493049 L45.712602,23.864709 C43.1642955,23.7211713 40.7226914,23.864709 38.4254496,24.2953222 C36.2537401,24.7009723 34.2075629,25.3687349 32.3434077,26.2674059 C30.1214852,27.3408185 28.7029698,28.4953612 28.0125419,29.1319199 C27.3409439,28.501602 25.9600881,27.3720224 23.7695488,26.3048505 C21.9367766,25.4124202 19.9157059,24.76338 17.7565496,24.3577299 C15.471861,23.9333575 13.030257,23.7960605 10.4819505,23.9395983 L13.7269615,13.0806564 L13.7269615,13.0806564 Z" id="路径" fill="#F1F1F1"></path>
                        <polygon id="路径" fill="#FBCCD1" points="7.3248121 8.83693199 28.0062653 2.17178837 48.7002717 8.96798819 27.9874354 15.5332795"></polygon>
                        <polygon id="形状" fill="#F1F1F1" points="7.3248121 8.83693199 28.0062653 2.17178837 48.7002717 8.96798819 27.9874354 15.5332795"></polygon>
                        <path d="M30.5545718,46.337726 C30.5545718,47.7106957 29.4310574,48.8277937 28.0502016,48.8277937 C26.6693459,48.8277937 25.5458314,47.7106957 25.5458314,46.337726 C25.5458314,44.9647564 26.6693459,43.8476583 28.0502016,43.8476583 C29.4310574,43.8476583 30.5545718,44.9647564 30.5545718,46.337726 Z" id="路径" fill="#F66442"></path>
                        <path d="M49.0517623,26.6246901 C48.794421,25.8945198 48.4931434,25.1705904 48.154206,24.4653832 C48.1165463,24.390494 48.07261,24.3218455 48.0286737,24.2656785 C48.0223971,24.253197 48.0223971,24.2407155 48.0161205,24.2219931 L44.3003632,12.4643802 L52.3658161,9.90566406 C52.792626,9.76836709 53.087627,9.37519851 53.087627,8.93210375 C53.087627,8.489009 52.8051793,8.08959964 52.3783693,7.94606191 L28.3263728,0.0514863622 C28.1192444,-0.0171621207 27.8932862,-0.0171621207 27.6798812,0.0514863622 L3.64043789,7.80252417 C3.21362793,7.93982114 2.92490355,8.33298972 2.92490355,8.78232524 C2.92490355,9.23166077 3.21362793,9.62482935 3.64043789,9.76212632 L11.7435505,12.389491 L8.19726187,24.2968824 C8.15332555,24.3530493 8.11566585,24.4154571 8.08428276,24.4778648 C7.74534544,25.1830719 7.45034444,25.9070014 7.18672653,26.6371716 C5.01501703,27.7105842 3.29522395,28.9400162 2.07756024,30.2942635 C0.696704493,31.8294932 0,33.470816 0,35.1807873 C0,38.7380269 3.03788265,41.9894687 8.56758228,44.3609617 C9.59067086,46.264397 10.8899306,47.9993313 12.440255,49.5408018 C14.4738789,51.5628117 16.8464402,53.1542083 19.488896,54.2650656 C22.225501,55.4133675 25.1252981,56 28.1192444,56 C31.1131907,56 34.0192644,55.4196083 36.7495928,54.2650656 C39.3920486,53.1542083 41.7646099,51.5628117 43.7982338,49.5408018 C45.3862179,47.9618867 46.7043075,46.1832669 47.7399493,44.2299056 C48.1102697,44.0676455 48.4743135,43.8991447 48.8258041,43.7244031 C51.0351733,42.6322681 52.7675196,41.3778731 53.9851833,40.0049035 C55.3221027,38.4946368 55.9999887,36.8720363 55.9999887,35.1870281 C56.006254,32.1165687 53.4077345,28.9275346 49.0517623,26.6246901 Z M7.31225887,8.77608447 L27.9937121,2.11094085 L48.6877185,8.90714067 L27.9748822,15.472432 L7.31225887,8.77608447 L7.31225887,8.77608447 Z M13.7144083,13.0198089 L27.6484981,17.5381272 C27.7552006,17.5693311 27.8619031,17.5880534 27.9686056,17.5880534 C28.0753081,17.5880534 28.1820106,17.5693311 28.2824364,17.5381272 L42.3169522,13.0884574 L45.7000488,23.8038615 C43.1517422,23.6603237 40.7101382,23.8038615 38.4128964,24.2344747 C36.2411869,24.6401248 34.1950097,25.3078873 32.3308544,26.2065584 C30.108932,27.279971 28.6904166,28.4345137 27.9999887,29.0710724 C27.3283907,28.4407545 25.9475349,27.3111749 23.7569955,26.244003 C21.9242234,25.3515727 19.9031527,24.7025325 17.7439964,24.2968824 C15.4593078,23.87251 13.0177038,23.735213 10.4693972,23.8787507 L13.7144083,13.0198089 Z M2.07128363,35.1683058 C2.07128363,33.1462959 3.59650157,31.1430084 6.40842601,29.408074 C6.10087178,30.880896 5.94395635,32.3974034 5.94395635,33.9326331 C5.94395635,36.5100716 6.38331954,39.0251024 7.25576931,41.4153177 C3.92916228,39.5867718 2.07128363,37.3775388 2.07128363,35.1683058 Z M46.2272846,42.6197866 C42.3232288,44.2236648 37.3395949,45.2845959 31.9542574,45.6278383 C31.8852146,45.6340791 31.8098952,45.6340791 31.7408524,45.6403198 C31.4395748,43.8804224 29.895527,42.5386566 28.0376484,42.5386566 C25.9663648,42.5386566 24.2779548,44.217424 24.2779548,46.2768785 C24.2779548,48.336333 25.9663648,50.0151004 28.0376484,50.0151004 C29.600526,50.0151004 30.9437221,49.0602624 31.5086176,47.7122559 C31.5462773,47.7184966 31.5776604,47.7184966 31.6153201,47.7184966 L31.6780863,47.7184966 C31.8161718,47.7122559 31.9542574,47.6997743 32.0860664,47.6935336 C36.6240605,47.4002173 40.91099,46.6138801 44.5639811,45.4281336 C40.9235432,50.5705291 34.9105441,53.9343047 28.1192444,53.9343047 C17.0347387,53.9343047 8.01523998,44.9663166 8.01523998,33.9451146 C8.01523998,30.9433037 8.66800815,28.0538267 9.95471465,25.3640543 C9.9735445,25.3266096 9.98609773,25.289165 9.99865097,25.2454796 C10.0174808,25.2205165 10.0300341,25.2017942 10.0488639,25.1768311 C16.1748421,24.7399772 20.5182611,26.0942245 23.1167806,27.336138 C26.0730672,28.752793 27.4915827,30.3379489 27.5229658,30.3753935 C27.6422215,30.5126905 27.8179668,30.5938205 27.9999887,30.5938205 C28.1820106,30.5938205 28.3514792,30.5126905 28.470735,30.3816343 C28.5083947,30.3379489 29.977123,28.7340707 32.9836226,27.2986933 C35.6260784,26.0380576 40.0197103,24.6588471 46.1456886,25.0957011 C46.1645184,25.126905 46.1896249,25.1581088 46.2084547,25.1830719 C46.2272846,25.2454796 46.2461145,25.3016466 46.2712209,25.3578135 C47.5579274,28.0475859 48.2170132,30.9370629 48.2170132,33.9451146 C48.2232488,37.0467779 47.5077145,39.9924219 46.2272846,42.6197866 L46.2272846,42.6197866 Z M30.5420186,46.2768785 C30.5420186,47.6498482 29.4185041,48.7669462 28.0376484,48.7669462 C26.6567926,48.7669462 25.5332782,47.6498482 25.5332782,46.2768785 C25.5332782,44.9039088 26.6567926,43.7868108 28.0376484,43.7868108 C29.4185041,43.7868108 30.5420186,44.9039088 30.5420186,46.2768785 L30.5420186,46.2768785 Z M49.0454857,41.2592985 C49.8802757,38.9127685 50.3008091,36.4539047 50.3008091,33.9326331 C50.3008091,32.4286072 50.1501703,30.9495445 49.8551693,29.5016856 C52.416029,31.2428607 53.941247,33.3147968 53.941247,35.162065 C53.9349703,37.3151311 52.2089007,39.4494748 49.0454857,41.2592985 L49.0454857,41.2592985 Z" id="形状" fill="#484848"></path>
                        <path d="M22.0428584,36.0266896 C21.7833537,36.0597796 21.5474404,35.8801485 21.5144125,35.6201563 C21.3917376,34.6889111 20.5849139,33.9845684 19.6459788,33.9845684 C18.7070436,33.9845684 17.9049382,34.684184 17.777545,35.6154291 C17.7445171,35.8754214 17.5038855,36.0550524 17.2490991,36.0219625 C16.9895944,35.9888726 16.8103003,35.7477888 16.8433281,35.4925237 C17.0320588,34.0932924 18.2352169,33.0391419 19.6459788,33.0391419 C21.0567406,33.0391419 22.2598987,34.0932924 22.4486294,35.4925237 C22.4816572,35.7572431 22.3023631,35.9935997 22.0428584,36.0266896 L22.0428584,36.0266896 Z M38.8822688,36.0266896 C38.6227641,36.0597796 38.3868507,35.8801485 38.3538229,35.6201563 C38.2311479,34.6889111 37.4243243,33.9845684 36.4853891,33.9845684 C35.546454,33.9845684 34.7443486,34.684184 34.6169554,35.6154291 C34.5839275,35.8754214 34.3432959,36.0550524 34.0885095,36.0219625 C33.8290048,35.9888726 33.6497106,35.7477888 33.6827385,35.4925237 C33.8714692,34.0932924 35.0746273,33.0391419 36.4853891,33.0391419 C37.896151,33.0391419 39.099309,34.0932924 39.2880397,35.4925237 C39.3210676,35.7572431 39.1417734,35.9935997 38.8822688,36.0266896 L38.8822688,36.0266896 Z" id="形状结合" fill="#F66442"></path>
                    </g>
                </g>
            </g>
        </g>
    </g>
</svg>