<?xml version="1.0" encoding="UTF-8"?>
<svg width="56px" height="56px" viewBox="0 0 56 56" version="1.1" xmlns="http://www.w3.org/2000/svg" xmlns:xlink="http://www.w3.org/1999/xlink">
    <title>Vocabulary_click</title>
    <g id="det门户" stroke="none" stroke-width="1" fill="none" fill-rule="evenodd">
        <g id="Course" transform="translate(-264.000000, -765.000000)" fill-rule="nonzero">
            <g id="Vocabulary_click" transform="translate(264.000000, 765.000000)">
                <path d="M9.89989306,43.928826 C9.89989306,44.7584957 10.5673717,45.4259743 11.3970413,45.4259743 L31.2155418,45.4259743 L31.2155418,42.4316778 L11.3970413,42.4316778 C10.5736098,42.4316778 9.89989306,43.0991564 9.89989306,43.928826 Z" id="形状" fill="#F1F1F1"></path>
                <path d="M52.2005703,0 L19.7249287,0 C17.678826,0 16.0070105,1.66557747 16.0070105,3.71791825 L16.0070105,24.1727067 C16.0070105,26.2188094 17.6725879,27.890625 19.7249287,27.890625 L27.0921459,27.890625 L27.0921459,34.4967918 C27.0921459,34.9209838 27.3541469,35.3077471 27.7533864,35.457462 C27.8719106,35.5011288 27.996673,35.5260813 28.1214354,35.5260813 C28.4083888,35.5260813 28.6891041,35.407557 28.8887239,35.1829848 L35.4699382,27.8843869 L52.2068085,27.8843869 C54.2529111,27.8843869 55.9247267,26.2188094 55.9247267,24.1664686 L55.9247267,3.71791825 C55.9184886,1.66557747 54.2529111,0 52.2005703,0 Z M53.8599097,24.1664686 C53.8599097,25.083472 53.1175737,25.825808 52.2005703,25.825808 L35.0083175,25.825808 C34.715126,25.825808 34.4406488,25.9505703 34.241029,26.1626663 L29.1444867,31.808163 L29.1444867,26.8488593 C29.1444867,26.2811906 28.682866,25.8195699 28.1151972,25.8195699 L19.7249287,25.8195699 C18.8079254,25.8195699 18.0655894,25.0772338 18.0655894,24.1602305 L18.0655894,3.71791825 C18.0655894,2.80091492 18.8079254,2.0585789 19.7249287,2.0585789 L52.2005703,2.0585789 C53.1175737,2.0585789 53.8599097,2.80091492 53.8599097,3.71791825 L53.8599097,24.1664686 Z" id="形状" fill="#F66442"></path>
                <path d="M9.27608127,43.928826 C9.27608127,45.0953541 10.2305133,46.0497861 11.3970413,46.0497861 L44.5651141,46.0497861 C45.7316421,46.0497861 46.6860741,45.0953541 46.6860741,43.928826 C46.6860741,42.762298 45.7316421,41.807866 44.5651141,41.807866 L11.3970413,41.807866 C10.2305133,41.807866 9.27608127,42.762298 9.27608127,43.928826 Z" id="路径" fill="#F66442"></path>
                <path d="M44.5651141,43.0554895 C45.0454491,43.0554895 45.4384506,43.448491 45.4384506,43.928826 C45.4384506,44.4091611 45.0454491,44.8021625 44.5651141,44.8021625 L31.8393536,44.8021625 L31.8393536,43.0554895 L44.5651141,43.0554895 Z" id="路径" fill="#FFFFFF"></path>
                <path d="M30.59173,44.8021625 L11.3970413,44.8021625 C10.9167063,44.8021625 10.5237048,44.4091611 10.5237048,43.928826 C10.5237048,43.448491 10.9167063,43.0554895 11.3970413,43.0554895 L30.59173,43.0554895 L30.59173,44.8021625 Z" id="路径" fill="#FFFFFF"></path>
                <path d="M30.7625713,7.65009506 L26.5625713,18.9375951 L28.0500713,18.9375951 L29.1000713,16.0500951 L33.8250713,16.0500951 L34.8750713,18.8500951 L36.4500713,18.8500951 L32.2500713,7.65009506 L30.7625713,7.65009506 Z M29.6250713,14.5625951 L31.3750713,9.66259506 L31.4625713,9.66259506 L33.2125713,14.5625951 L29.6250713,14.5625951 L29.6250713,14.5625951 Z M41.4375713,10.2750951 C40.4750713,10.2750951 39.6875713,10.4500951 39.0750713,10.8000951 C38.3750713,11.2375951 38.0250713,11.8500951 37.8500713,12.7250951 L39.0750713,12.8125951 C39.1625713,12.2875951 39.4250713,11.9375951 39.8625713,11.6750951 C40.2125713,11.4125951 40.7375713,11.3250951 41.3500713,11.3250951 C42.7500713,11.3250951 43.4500713,12.0250951 43.4500713,13.3375951 L43.4500713,13.7750951 L41.5250713,13.7750951 C40.3000713,13.7750951 39.3375713,14.0375951 38.7250713,14.4750951 C37.9375713,14.9125951 37.5875713,15.6125951 37.5875713,16.5750951 C37.5875713,17.2750951 37.8500713,17.8000951 38.3750713,18.2375951 C38.9000713,18.6750951 39.5125713,18.8500951 40.3000713,18.8500951 C41.0875713,18.8500951 41.7000713,18.6750951 42.3125713,18.3250951 C42.8375713,18.0625951 43.2750713,17.7125951 43.5375713,17.2750951 L43.5375713,18.6750951 L44.7625713,18.6750951 L44.7625713,13.4250951 C44.7625713,12.4625951 44.5000713,11.7625951 44.0625713,11.2375951 C43.4500713,10.6250951 42.5750713,10.2750951 41.4375713,10.2750951 L41.4375713,10.2750951 Z M43.4500713,15.4375951 C43.4500713,16.0500951 43.1875713,16.6625951 42.5750713,17.1000951 C41.9625713,17.6250951 41.2625713,17.8875951 40.5625713,17.8875951 C40.0375713,17.8875951 39.6875713,17.8000951 39.3375713,17.5375951 C38.9875713,17.2750951 38.9000713,17.0125951 38.9000713,16.5750951 C38.9000713,15.3500951 39.7750713,14.8250951 41.6125713,14.7375951 L43.4500713,14.7375951 L43.4500713,15.4375951 L43.4500713,15.4375951 Z" id="形状" fill="#F66442"></path>
                <path d="M6.21940352,51.8574739 L49.7240375,51.8574739 C51.5081393,51.8574739 52.9553826,50.4102305 52.9553826,48.6261288 L52.9553826,27.3350166 C52.9553826,26.7673479 52.4937619,26.3057272 51.9260932,26.3057272 C51.3584244,26.3057272 50.8968037,26.7673479 50.8968037,27.3350166 L50.8968037,48.6198907 C50.8968037,49.2686549 50.3728018,49.7926568 49.7240375,49.7926568 L6.21940352,49.7926568 C5.57063926,49.7926568 5.04663736,49.2686549 5.04663736,48.6198907 L5.04663736,18.9264496 C5.04663736,18.2776854 5.57063926,17.7536835 6.21940352,17.7536835 L16.5127139,17.7536835 C17.0803826,17.7536835 17.5420033,17.2920627 17.5420033,16.724394 C17.5420033,16.1567253 17.0803826,15.6951046 16.5127139,15.6951046 L6.21940352,15.6951046 C4.43530181,15.6951046 2.98805846,17.1423479 2.98805846,18.9264496 L2.98805846,48.6198907 C2.98805846,50.4039924 4.43530181,51.8574739 6.21940352,51.8574739 Z M54.8891991,53.7600998 L1.02928945,53.7600998 C0.461620722,53.7600998 0,54.2217205 0,54.7893893 C0,55.357058 0.461620722,55.8186787 1.02928945,55.8186787 L54.8891991,55.8186787 C55.4568679,55.8186787 55.9184886,55.357058 55.9184886,54.7893893 C55.9184886,54.2217205 55.4568679,53.7600998 54.8891991,53.7600998 Z" id="形状" fill="#F66442"></path>
            </g>
        </g>
    </g>
</svg>