<?xml version="1.0" encoding="UTF-8"?>
<svg width="214px" height="60px" viewBox="0 0 214 60" version="1.1" xmlns="http://www.w3.org/2000/svg" xmlns:xlink="http://www.w3.org/1999/xlink">
    <title>编组 13</title>
    <defs>
        <polygon id="path-1" points="0 0 12.8041103 0 12.8041103 16.8585582 0 16.8585582"></polygon>
        <polygon id="path-3" points="0 0 12.8043402 0 12.8043402 16.8585121 0 16.8585121"></polygon>
        <polygon id="path-5" points="0 0 55.2824922 0 55.2824922 39.5082712 0 39.5082712"></polygon>
    </defs>
    <g id="自适应布局" stroke="none" stroke-width="1" fill="none" fill-rule="evenodd">
        <g id="画板" transform="translate(-373.000000, -300.000000)">
            <g id="编组-5" transform="translate(180.000000, 220.000000)">
                <g id="编组-13" transform="translate(193.000000, 80.000000)">
                    <g id="编组-3">
                        <g id="编组" transform="translate(3.412514, 0.000000)">
                            <mask id="mask-2" fill="white">
                                <use xlink:href="#path-1"></use>
                            </mask>
                            <g id="Clip-2"></g>
                            <path d="M2.5906568,14.5405926 C3.68911734,15.6427275 5.07535203,16.4565869 6.62570072,16.8585582 C8.27005869,14.3980692 10.3720511,12.2904295 12.8041103,10.6664007 C12.6383874,10.5540886 12.4384165,10.4885924 12.2235053,10.4885924 L11.1951495,10.4885924 C7.63888634,10.4885924 4.5138247,7.57516495 4.42326319,4.00838997 C4.38533768,2.51373921 4.83883478,1.12609631 5.63458084,-2.30620391e-05 C2.33644098,1.28868369 0,4.50445443 0,8.26840985 C0,9.03568389 0.0972272047,9.7787428 0.28064874,10.4885924 C0.680820285,12.0455106 1.4919664,13.4382272 2.5906568,14.5405926" id="Fill-1" fill="#FAD5B3" mask="url(#mask-2)"></path>
                        </g>
                        <g id="编组" transform="translate(39.065730, 0.000000)">
                            <mask id="mask-4" fill="white">
                                <use xlink:href="#path-3"></use>
                            </mask>
                            <g id="Clip-4"></g>
                            <path d="M6.17840961,16.8585121 C7.72898815,16.4565407 9.11499298,15.642912 10.2134535,14.5405465 C11.3121439,13.4381811 12.12329,12.0454645 12.5234616,10.4885462 C12.7068831,9.77869667 12.8043402,9.03586839 12.8043402,8.26836373 C12.8043402,4.50463893 10.4676693,1.28863756 7.16952948,-6.91861173e-05 C7.96527554,1.12605019 8.41900249,2.51369309 8.38107699,4.00834385 C8.29051548,7.57534945 5.16522398,10.4885462 1.60919069,10.4885462 L0.58060501,10.4885462 C0.365693813,10.4885462 0.165952818,10.5540424 0,10.6663546 C2.43228908,12.2903834 4.53428148,14.3980231 6.17840961,16.8585121" id="Fill-3" fill="#F9D5B2" mask="url(#mask-4)"></path>
                        </g>
                        <g id="编组" transform="translate(0.000000, 7.050942)">
                            <mask id="mask-6" fill="white">
                                <use xlink:href="#path-5"></use>
                            </mask>
                            <g id="Clip-6"></g>
                            <path d="M0.722630281,36.5632488 C0.722630281,27.513474 12.7744365,20.1772087 27.6412346,20.1772087 C42.5078029,20.1772087 54.5598389,27.513474 54.5598389,36.5632488 C54.5598389,37.5685231 54.4102056,38.5528109 54.1251896,39.5082712 C54.8763445,37.5592983 55.2824922,35.4950151 55.2824922,33.3564722 C55.2824922,28.6974791 53.3685183,24.3858002 50.1186473,20.8679168 C49.6837682,20.3969899 49.4159911,19.7909196 49.3180744,19.1474887 C47.6695791,8.29818294 38.5929713,0 27.6412346,0 C16.6894979,0 7.61311998,8.29818294 5.96416498,19.1474887 C5.86647807,19.7909196 5.59870102,20.3969899 5.16359204,20.8679168 C1.91395085,24.3858002 -2.29851551e-05,28.6974791 -2.29851551e-05,33.3564722 C-2.29851551e-05,35.4950151 0.4061247,37.5592983 1.15704971,39.5082712 C0.872263639,38.5528109 0.722630281,37.5685231 0.722630281,36.5632488" id="Fill-5" fill="#FC2623" mask="url(#mask-6)"></path>
                        </g>
                        <path d="M24.8982322,21.1874875 C24.8982322,23.3756137 23.1833098,25.1493152 21.067986,25.1493152 C18.9526622,25.1493152 17.2379697,23.3756137 17.2379697,21.1874875 C17.2379697,18.9993612 18.9526622,17.2256597 21.067986,17.2256597 C23.1833098,17.2256597 24.8982322,18.9993612 24.8982322,21.1874875" id="Fill-7" fill="#FFFFFF"></path>
                        <path d="M23.1978134,21.7674055 C23.1978134,22.8580093 22.3432254,23.7419773 21.2888963,23.7419773 C20.2345673,23.7419773 19.3799792,22.8580093 19.3799792,21.7674055 C19.3799792,20.6768017 20.2345673,19.7926031 21.2888963,19.7926031 C22.3432254,19.7926031 23.1978134,20.6768017 23.1978134,21.7674055" id="Fill-9" fill="#000000"></path>
                        <path d="M30.38426,21.1874875 C30.38426,23.3756137 32.0989525,25.1493152 34.2142763,25.1493152 C36.3296001,25.1493152 38.0445225,23.3756137 38.0445225,21.1874875 C38.0445225,18.9993612 36.3296001,17.2256597 34.2142763,17.2256597 C32.0989525,17.2256597 30.38426,18.9993612 30.38426,21.1874875" id="Fill-11" fill="#FFFFFF"></path>
                        <path d="M32.0845868,21.7674055 C32.0845868,22.8580093 32.9394047,23.7419773 33.9935039,23.7419773 C35.047833,23.7419773 35.902421,22.8580093 35.902421,21.7674055 C35.902421,20.6768017 35.047833,19.7926031 33.9935039,19.7926031 C32.9394047,19.7926031 32.0845868,20.6768017 32.0845868,21.7674055" id="Fill-13" fill="#000000"></path>
                        <path d="M54.559747,43.6141905 C54.559747,52.6637347 42.5079408,60 27.6411427,60 C12.7745744,60 0.722538341,52.6637347 0.722538341,43.6141905 C0.722538341,34.5644157 12.7745744,27.2281504 27.6411427,27.2281504 C42.5079408,27.2281504 54.559747,34.5644157 54.559747,43.6141905" id="Fill-15" fill="#FAD5B3"></path>
                        <path d="M21.9152188,32.785041 C21.9152188,33.65079 20.9560483,34.3527985 19.7727725,34.3527985 C18.5894968,34.3527985 17.6300964,33.65079 17.6300964,32.785041 C17.6300964,31.9190615 18.5894968,31.2172836 19.7727725,31.2172836 C20.9560483,31.2172836 21.9152188,31.9190615 21.9152188,32.785041" id="Fill-17" fill="#FC2623"></path>
                        <path d="M37.6521889,32.785041 C37.6521889,33.65079 36.6930184,34.3527985 35.5097426,34.3527985 C34.3264669,34.3527985 33.3670665,33.65079 33.3670665,32.785041 C33.3670665,31.9190615 34.3264669,31.2172836 35.5097426,31.2172836 C36.6930184,31.2172836 37.6521889,31.9190615 37.6521889,32.785041" id="Fill-19" fill="#FC2623"></path>
                        <path d="M27.6411886,54.0993005 C35.6218642,54.0993005 42.0914957,48.2812093 42.0914957,41.1043027 L13.1908815,41.1043027 C13.1908815,48.2812093 19.660513,54.0993005 27.6411886,54.0993005" id="Fill-21" fill="#FC2623"></path>
                    </g>
                    <g id="大牛DLG" transform="translate(72.338028, 13.403196)" fill="#1E0306" fill-rule="nonzero">
                        <path d="M32.7290635,7.33117932 C32.7766348,7.33117932 32.8004205,7.35502055 32.8004205,7.40270302 L32.8004205,11.6226014 C32.8004205,11.6702838 32.7766348,11.6941251 32.7290635,11.6941251 L0.975211922,11.6941251 C0.927640609,11.6941251 0.903854952,11.6702838 0.903854952,11.6226014 L0.903854952,7.40270302 C0.903854952,7.35502055 0.927640609,7.33117932 0.975211922,7.33117932 L32.7290635,7.33117932 Z M18.9928468,0 C19.0404181,0 19.0642038,0.0238412335 19.0642038,0.0715237006 L19.0642038,5.5430868 C19.0642038,17.2252912 13.4864673,26.4280074 2.33099435,33.1512353 C2.30720869,33.1750765 2.27153021,33.1631559 2.2239589,33.1154734 L0.0118928283,29.4677647 C-0.0118928283,29.4439234 1.42108547e-14,29.4081616 0.0475713133,29.3604791 C5.01877355,26.3564837 8.6936575,22.9233461 11.0722232,19.0610662 C13.4507888,15.1987864 14.6400717,10.6927932 14.6400717,5.5430868 L14.6400717,0.0715237006 C14.6400717,0.0238412335 14.6638573,0 14.7114286,0 L18.9928468,0 Z M19.2069177,9.11927183 C19.254489,9.11927183 19.2782747,9.14311307 19.2782747,9.19079553 C19.8015592,13.4345351 21.234645,17.1895294 23.5775321,20.4557784 C25.9204193,23.7220274 29.2801433,26.690261 33.6567041,29.3604791 C33.7042755,29.4081616 33.7161683,29.4439234 33.6923826,29.4677647 L31.4803166,33.1154734 C31.4327452,33.1631559 31.3970668,33.1750765 31.3732811,33.1512353 C26.4972215,30.1949223 22.6736772,26.767745 19.9026482,22.8697033 C17.1316192,18.9716616 15.448784,14.5908349 14.8541426,9.72722329 C14.8541426,9.65569959 14.8779282,9.61993774 14.9254995,9.61993774 L19.2069177,9.11927183 Z" id="形状"></path>
                        <path d="M55.0637951,0 C55.1113664,0 55.1351521,0.0238412335 55.1351521,0.0715237006 L55.1351521,32.8293786 C55.1351521,32.8770611 55.1113664,32.9009023 55.0637951,32.9009023 L50.71102,32.9009023 C50.6634486,32.9009023 50.639663,32.8770611 50.639663,32.8293786 L50.639663,0.0715237006 C50.639663,0.0238412335 50.6634486,0 50.71102,0 L55.0637951,0 Z M68.6216194,18.4531148 C68.6691907,18.4531148 68.6929764,18.476956 68.6929764,18.5246385 L68.6929764,22.6730131 C68.6929764,22.7206956 68.6691907,22.7445368 68.6216194,22.7445368 L36.439626,22.7445368 C36.3920547,22.7445368 36.368269,22.7206956 36.368269,22.6730131 L36.368269,18.5246385 C36.368269,18.476956 36.3920547,18.4531148 36.439626,18.4531148 L68.6216194,18.4531148 Z M42.2908975,1.32318846 C42.3384688,1.32318846 42.3622545,1.3470297 42.3622545,1.39471216 L42.3622545,4.89937349 L67.4442294,4.89937349 C67.4918007,4.89937349 67.5155864,4.92321473 67.5155864,4.97089719 L67.5155864,9.11927183 C67.5155864,9.1669543 67.4918007,9.19079553 67.4442294,9.19079553 L38.2235502,9.19079553 C38.1997646,9.19079553 38.1819253,9.18483522 38.1700325,9.17291461 C38.1581397,9.16099399 38.1521932,9.14311307 38.1521932,9.11927183 L38.1521932,1.39471216 C38.1521932,1.3470297 38.1759789,1.32318846 38.2235502,1.32318846 L42.2908975,1.32318846 Z" id="形状"></path>
                        <path d="M73.1171085,28.9670988 C73.0933228,28.9670988 73.0754836,28.9611385 73.0635908,28.9492178 C73.0516979,28.9372972 73.0457515,28.9194163 73.0457515,28.8955751 L73.0457515,2.53909137 C73.0457515,2.51525014 73.0516979,2.49736921 73.0635908,2.4854486 C73.0754836,2.47352798 73.0933228,2.46756767 73.1171085,2.46756767 L77.8266685,2.46756767 L77.8266685,28.9670988 L73.1171085,28.9670988 Z M75.578924,24.3180582 L81.9296943,24.3180582 C83.7374042,24.3180582 85.241847,23.9604397 86.4430226,23.2452027 C87.6441983,22.5299657 88.5361604,21.5286339 89.118909,20.2412073 C89.7016576,18.9537807 89.9930319,17.4491753 89.9930319,15.7273912 C89.9930319,13.9683552 89.707604,12.4451239 89.1367482,11.1576973 C88.5658925,9.87027069 87.6798768,8.87489919 86.4787011,8.1715828 C85.2775255,7.46826641 83.7611898,7.11660821 81.9296943,7.11660821 L75.578924,7.11660821 L75.578924,2.46756767 L81.9296943,2.46756767 C84.6174735,2.46756767 86.9306286,3.07551913 88.8691596,4.29142204 C90.8076906,5.50732495 92.2764549,7.13067082 93.2754525,9.16145964 C94.2744501,11.1922485 94.7739489,13.3835 94.7739489,15.7352141 C94.7739489,18.0392459 94.2744501,20.2066561 93.2754525,22.2374449 C92.2764549,24.2682338 90.8076906,25.8975399 88.8691596,27.1253635 C86.9306286,28.353187 84.6174735,28.9670988 81.9296943,28.9670988 L75.578924,28.9670988 L75.578924,24.3180582 Z" id="形状"></path>
                        <path d="M99.0909323,28.9670988 C99.0671467,28.9670988 99.0493074,28.9611385 99.0374146,28.9492178 C99.0255218,28.9372972 99.0195753,28.9194163 99.0195753,28.8955751 L99.0195753,2.53909137 C99.0195753,2.51525014 99.0255218,2.49736921 99.0374146,2.4854486 C99.0493074,2.47352798 99.0671467,2.46756767 99.0909323,2.46756767 L103.729135,2.46756767 C103.752921,2.46756767 103.77076,2.47352798 103.782653,2.4854486 C103.794546,2.49736921 103.800492,2.51525014 103.800492,2.53909137 L103.800492,28.9670988 L99.0909323,28.9670988 Z M114.904306,24.3180582 C114.92549,24.3180582 114.941378,24.3240185 114.95197,24.3359391 C114.962562,24.3478598 114.967858,24.3657407 114.967858,24.3895819 L114.967858,28.8955751 C114.967858,28.9194163 114.962562,28.9372972 114.95197,28.9492178 C114.941378,28.9611385 114.92549,28.9670988 114.904306,28.9670988 L102.087925,28.9670988 L102.087925,24.3180582 L114.904306,24.3180582 Z" id="形状"></path>
                        <path d="M141.583925,14.340502 C141.607711,14.340502 141.62555,14.3464623 141.637443,14.3583829 C141.649336,14.3703035 141.655282,14.3881844 141.655282,14.4120257 C141.726639,17.5352273 141.22714,20.2233264 140.156786,22.4763229 C139.086431,24.7293195 137.566286,26.439928 135.596351,27.6081484 C133.626415,28.7763689 131.364641,29.3604791 128.811028,29.3604791 C126.361105,29.3604791 124.113918,28.7465674 122.069466,27.5187438 C120.025015,26.2909203 118.413537,24.6279943 117.235032,22.5299657 C116.056527,20.4319372 115.467274,18.1550993 115.467274,15.6994523 C115.467274,13.2676465 116.054761,11.0027293 117.229736,8.90470073 C118.40471,6.80667218 120.011264,5.14374614 122.049397,3.91592261 C124.087531,2.68809908 126.341407,2.07418732 128.811028,2.07418732 C130.975522,2.07418732 132.973517,2.5569723 134.805013,3.52254226 C136.636509,4.48811222 138.158791,5.79397853 139.371859,7.4401412 C139.395645,7.46360992 139.401591,7.48121145 139.389698,7.49294581 C139.377805,7.50468017 139.359966,7.5222817 139.336181,7.54575042 L135.625618,10.1921273 C135.601833,10.2159686 135.578047,10.2219289 135.554261,10.2100083 C135.530476,10.1980877 135.518583,10.1802067 135.518583,10.1563655 C134.638513,8.96430381 133.663301,8.07621786 132.592947,7.49210764 C131.522592,6.90799742 130.261953,6.61594231 128.811028,6.61594231 C127.146032,6.61594231 125.671321,7.00336236 124.386895,7.77820245 C123.10247,8.55304254 122.109419,9.62589805 121.407742,10.996769 C120.706065,12.3676399 120.355227,13.9366911 120.355227,15.7039225 C120.355227,17.4890349 120.706065,19.0670265 121.407742,20.4378975 C122.109419,21.8087684 123.096524,22.8816239 124.369056,23.656464 C125.641589,24.4313041 127.117972,24.8187241 128.798206,24.8187241 C130.495535,24.8187241 131.950734,24.4730262 133.163803,23.7816305 C134.376871,23.0902347 135.304512,22.0948632 135.946725,20.795516 C136.588937,19.4961687 136.910044,17.9524489 136.910044,16.1643563 L136.910044,14.340502 L141.583925,14.340502 Z M139.58593,18.9895425 L129.15945,18.9895425 C129.138266,18.9895425 129.122471,18.9835822 129.112065,18.9716616 C129.101659,18.959741 129.096455,18.9418601 129.096455,18.9180188 L129.096455,14.4120257 C129.096455,14.3881844 129.101659,14.3703035 129.112065,14.3583829 C129.122471,14.3464623 129.138266,14.340502 129.15945,14.340502 L139.58593,14.340502 L139.58593,18.9895425 Z" id="形状"></path>
                    </g>
                </g>
            </g>
        </g>
    </g>
</svg>