<?xml version="1.0" encoding="UTF-8"?>
<svg width="401px" height="32px" viewBox="0 0 401 32" version="1.1" xmlns="http://www.w3.org/2000/svg" xmlns:xlink="http://www.w3.org/1999/xlink">
    <title>payment</title>
    <g id="det门户" stroke="none" stroke-width="1" fill="none" fill-rule="evenodd">
        <g id="价格" transform="translate(-823.000000, -1124.000000)" fill-rule="nonzero">
            <g id="编组-22" transform="translate(696.000000, 1124.000000)">
                <g id="payment" transform="translate(128.000000, 0.000000)">
                    <g id="编组-7" transform="translate(0.000000, 0.500000)">
                        <rect id="矩形" stroke-opacity="0.1" stroke="#000000" fill="#FFFFFF" x="0" y="0" width="49.3081761" height="31" rx="4"></rect>
                        <g id="编组" transform="translate(6.540881, 9.500000)">
                            <path d="M15.7038264,11.4843714 L12.7493491,11.4843714 L14.5953706,0.201039324 L17.5526576,0.201039324 L15.7038264,11.4843714 Z M10.2612944,0.201039324 L7.4430911,7.96199488 L7.11013289,6.2908555 L6.11547293,1.21740479 C6.11547293,1.21740479 5.99605754,0.201039324 4.71339574,0.201039324 L0.0547905914,0.201039324 L0,0.392305902 C0,0.392305902 1.42455537,0.686884356 3.0921562,1.68230823 L5.66028955,11.4843714 L8.73980176,11.4843714 L13.4433633,0.201039324 L10.2612944,0.201039324 L10.2612944,0.201039324 Z M33.5121735,11.4843714 L36.2264151,11.4843714 L33.8605855,0.201039324 L31.4849217,0.201039324 C30.3877049,0.201039324 30.1193715,1.04149539 30.1193715,1.04149539 L25.7108362,11.4843714 L28.7917534,11.4843714 L29.4084987,9.80904367 L33.1665713,9.80904367 L33.5121735,11.4843714 L33.5121735,11.4843714 Z M30.2598602,7.49429923 L31.8122602,3.27107733 L32.6860999,7.49429923 L30.2598602,7.49429923 Z M25.9426425,2.91507019 L26.3641087,0.491429458 C26.3641087,0.491429458 25.0617784,-5.04091027e-17 23.7060625,-5.04091027e-17 C22.2393605,-5.04091027e-17 18.7552409,0.636624525 18.7552409,3.73458466 C18.7552409,6.64965485 22.8448668,6.68595362 22.8448668,8.21608625 C22.8448668,9.74621888 19.176707,9.47397813 17.9670993,8.50787249 L17.5273697,11.0404095 C17.5273697,11.0404095 18.8465585,11.6784302 20.8639763,11.6784302 C22.879989,11.6784302 25.9243791,10.639727 25.9243791,7.81540371 C25.9243791,4.88218413 21.798226,4.60854727 21.798226,3.33250601 C21.798226,2.05786085 24.6768394,2.22260141 25.9426425,2.91507019 Z" id="形状" fill="#0461A5"></path>
                            <path d="M7.11013289,6.2908555 L6.11547293,1.21740479 C6.11547293,1.21740479 5.99605754,0.201039324 4.71339574,0.201039324 L0.0547905914,0.201039324 L0,0.392305902 C0,0.392305902 2.23938981,0.853021019 4.38746197,2.58140076 C6.4414067,4.23299465 7.11013289,6.2908555 7.11013289,6.2908555 Z" id="路径" fill="#EF9F38"></path>
                        </g>
                    </g>
                    <g id="编组-9" transform="translate(57.861635, 0.000000)">
                        <rect id="矩形" fill="#022F58" x="0" y="0" width="50.3144654" height="32" rx="4"></rect>
                        <g id="编组" transform="translate(10.062893, 7.000000)">
                            <path d="M0,9.18857162 C0,14.2632795 4.13973692,18.3771431 9.24636119,18.3771431 C14.3529855,18.3771431 18.4927224,14.2632795 18.4927224,9.18857162 C18.4927224,4.11386375 14.3529855,1.93634605e-07 9.24636119,1.93634605e-07 C4.13973692,1.93634605e-07 0,4.11386375 0,9.18857162 Z" id="路径" fill="#EA001B"></path>
                            <path d="M11.6959568,9.18857162 C11.6959568,12.4713321 13.4583033,15.5047278 16.3191374,17.1461081 C19.1799715,18.7874883 22.7046646,18.7874883 25.5654987,17.1461081 C28.4263329,15.5047278 30.1886792,12.4713321 30.1886792,9.18857162 C30.1886792,5.90581118 28.4263329,2.87241542 25.5654987,1.23103518 C22.7046646,-0.41034506 19.1799715,-0.41034506 16.3191374,1.23103518 C13.4583033,2.87241542 11.6959568,5.90581118 11.6959568,9.18857162 Z" id="路径" fill="#F79F1A"></path>
                            <path d="M11.7132075,9.20571448 C11.7132075,12.0658288 13.0283989,14.6208002 15.0901994,16.3056002 C17.176841,14.6208002 18.509973,12.0507431 18.509973,9.17142877 C18.509973,6.31131448 17.1947817,3.75634305 15.1329811,2.07154305 C13.0463396,3.75634305 11.7132075,6.32571448 11.7132075,9.20571448 Z" id="路径" fill="#FF5F01"></path>
                        </g>
                    </g>
                    <g id="编组-9" transform="translate(116.226415, 0.000000)">
                        <rect id="矩形" fill="#117DC2" x="0" y="0" width="50.3144654" height="32" rx="4"></rect>
                        <g id="编组" transform="translate(5.031447, 10.000000)" fill="#FFFFFF">
                            <path d="M25.7895069,2.79069767 L25.7895069,4.45165979 L28.4560893,4.45165979 L28.4560893,5.78089835 L25.7895069,5.78089835 L25.7895069,7.44186047 L28.6874058,7.44186047 L30.8907415,5.00550919 L28.9193358,2.79069767 L25.7895069,2.79069767 Z M5.61649847,5.33781883 L7.81922066,5.33781883 L6.65957025,2.79069767 L5.61649847,5.33781883 Z" id="形状"></path>
                            <path d="M40.2515723,0 L34.1667731,0 L32.645883,1.86025999 L31.1249927,0 L18.604896,0 L17.0840058,3.37222123 L15.6801548,0 L10.0635124,0 L10.0635124,2.09286941 L9.24423803,0 L4.68094824,0 L0,11.1627907 L5.38256411,11.1627907 L6.08479923,9.18622599 L7.83976778,9.18622599 L8.5420029,11.1627907 L14.9773004,11.1627907 L14.9773004,10.5812671 L15.328418,11.1627907 L30.7738752,11.1627907 L32.5288438,9.18622599 L34.2838123,11.1627907 L40.2515723,11.1627907 L35.6882826,5.58139535 L40.2515723,0 Z M22.8170682,9.65082947 L20.4769037,9.65082947 L20.4769037,3.72051999 L18.0197,9.65082947 L16.2647315,9.65082947 L13.5734495,3.60421528 L13.5734495,9.65082947 L9.59535559,9.65082947 L8.65904209,7.67426476 L5.14848573,7.67426476 L4.32921142,9.65082947 L2.2231253,9.65082947 L5.61664248,1.51134586 L8.19088534,1.51134586 L11.5844025,9.18561063 L11.5844025,1.51196123 L14.7438413,1.51196123 L17.0840058,6.86074716 L19.5412095,1.51196123 L22.8176874,1.51196123 L22.8176874,9.65082947 L22.8170682,9.65082947 Z M37.0921335,9.65082947 L34.751969,9.65082947 L32.5288438,6.9764365 L30.1886792,9.65082947 L24.2209192,9.65082947 L24.2209192,1.51196123 L30.5391776,1.51196123 L32.6452637,4.07004949 L34.7513497,1.51196123 L37.0915143,1.51196123 L33.8162748,5.58139535 L37.0921335,9.65082947 Z" id="形状"></path>
                        </g>
                    </g>
                    <g id="编组-9" transform="translate(175.094340, 0.500000)">
                        <rect id="矩形" stroke-opacity="0.1" stroke="#000000" fill="#FFFFFF" x="0" y="0" width="49.3081761" height="31" rx="4"></rect>
                        <g id="编组" transform="translate(11.572327, 5.500000)">
                            <path d="M8.3856868,0.000684908051 L8.3856868,15.0001712 C8.3856868,18.0137667 8.14446132,20 3.35441256,20 L0,20 L0,12.9139413 C1.50938227,13.333105 3.42126649,13.333105 3.42126649,13.333105 C6.61647023,13.333105 7.54691136,12.1009554 7.54691136,10.5777199 L7.54691136,6.66689497 L4.67839582,6.66689497 L4.67839582,10.5777199 C4.67839582,11.5297421 4.03673606,12.2413616 2.8802322,12.2413616 C1.89878911,12.2413616 0.930441126,11.9495908 0,11.4920722 L0,5.00051368 C0,0.822574569 1.59691265,0.000684908051 5.03127423,0.000684908051 L8.3856868,0.000684908051 Z" id="路径" fill="#086CB4"></path>
                            <path d="M17.6094598,0.000684908051 L17.6094598,15.0001712 C17.6094598,18.6986747 16.6907354,20 12.5781856,20 L9.22377303,20 L9.2223946,12.1071196 C10.0439397,12.9112017 11.556768,13.4317318 14.1282315,13.3180371 C14.1282315,13.3180371 15.4115511,13.2680388 16.7706844,12.9344885 L16.7706844,11.5338516 C16.1104158,11.8680867 15.2716404,12.1899935 14.2295463,12.2639636 C12.400368,12.4002603 11.3072719,11.5338516 11.3072719,9.99897264 C11.3072719,8.4647786 12.400368,7.59768501 14.2295463,7.73398171 C15.2709511,7.80863669 16.0973207,8.11753022 16.7706844,8.45176535 L16.7706844,7.06551146 C15.4108619,6.73127633 14.1282315,6.68196295 14.1282315,6.68196295 C11.556768,6.56826821 10.0439397,7.08879833 9.2223946,7.89288038 L9.22377303,4.99982877 C9.22377303,0.821889661 10.6249484,0 14.2550472,0 L17.6094598,0 L17.6094598,0.000684908051 Z" id="路径" fill="#E90037"></path>
                            <path d="M22.3030184,9.37365159 C22.6972497,9.31406459 22.9867203,8.96065203 22.9763821,8.55039211 C22.9867203,8.13739256 22.6993174,7.78055546 22.3030184,7.71411938 C22.2651115,7.71411938 22.1762028,7.70042122 22.1127949,7.70042122 L20.3463352,7.70042122 L20.3463352,9.38666484 L22.1637968,9.38666484 L22.2175556,9.38529502 C22.2520164,9.3832403 22.2837204,9.37981576 22.3030184,9.37365159 L22.3030184,9.37365159 Z M20.3449568,12.2488956 L22.2892341,12.2488956 L22.4043331,12.2413616 L22.5180536,12.2228691 C22.8702429,12.1509537 23.1569566,11.8557584 23.1989987,11.4407041 L23.2045125,11.3345433 L23.1989987,11.2304373 C23.1569566,10.822917 22.8702429,10.5167631 22.5180536,10.4441629 C22.4429292,10.42841 22.3664263,10.4201911 22.2892341,10.4181364 L20.3449568,10.4181364 L20.3449568,12.2488956 L20.3449568,12.2488956 Z" id="形状" fill="#69A547"></path>
                            <path d="M23.5484311,0.000684908051 C18.8962254,0.000684908051 18.5171568,1.78144584 18.5171568,5.00051368 L18.5171568,6.66689497 L23.4602115,6.66689497 L23.5491203,6.66894969 C23.6400968,6.67305914 23.7331408,6.68059313 23.7903458,6.68059313 C24.8703467,6.73264614 25.6705261,7.307284 25.6705261,8.30108558 C25.6705261,9.02982775 25.1832506,9.66473751 24.2934732,9.85445704 L24.1321967,9.88322318 L24.1321967,9.92226294 L24.286581,9.93733091 C25.2542398,10.05582 25.9903221,10.6174446 26.0585545,11.4653608 L26.063379,11.5948084 L26.0585545,11.7249409 C25.9910113,12.6660046 25.1742908,13.2783124 24.0694781,13.3296805 L23.9171615,13.333105 L18.5171568,13.333105 L18.5171568,20 L21.8715694,20 C26.3397545,20 26.9028437,18.1507483 26.9028437,15.0001712 L26.9028437,0.000684908051 L23.5484311,0.000684908051 Z" id="路径" fill="#69A547"></path>
                        </g>
                    </g>
                    <g id="编组-9" transform="translate(233.459119, 0.500000)">
                        <rect id="矩形" stroke-opacity="0.1" stroke="#000000" fill="#FFFFFF" x="0" y="0" width="49.3081761" height="31" rx="4"></rect>
                        <g id="编组" transform="translate(6.540881, 12.500000)">
                            <path d="M2.42765772,0.203835459 C1.64515373,0.0558507327 0.851819229,0.137885744 0.063358455,0.12769839 C0.0389898185,0.127162213 0.0146211819,0.153434864 0,0.162013689 L0,5.84816595 C0.702899783,5.84173183 1.39171991,5.87122154 2.07945699,5.8218933 C3.49229638,5.72001975 4.66903076,4.55812518 4.74538582,3.19784529 C4.83040529,1.67671243 3.91360303,0.485328145 2.42765772,0.203835459 L2.42765772,0.203835459 Z M3.24698544,4.10988159 C2.87170844,4.67608402 2.13036036,4.96722788 1.11879118,4.84980522 L1.11879118,1.14857853 C1.92024856,0.960380564 2.82026354,1.27029061 3.24211171,1.87348922 C3.69753445,2.52387137 3.69374378,3.43644385 3.24698544,4.10988159 Z M35.3274832,4.63426225 C35.0361426,4.24607043 34.7453435,3.85680626 34.4404648,3.44931208 C34.5514774,3.41070737 34.6364969,3.38282619 34.7209749,3.35172795 C35.1206205,3.20481558 35.4238746,2.9506679 35.5966212,2.56086755 C36.0661236,1.5013827 35.5197247,0.438680786 34.380897,0.196865164 C33.7435218,0.0612124982 33.0963991,0.142175156 32.4536087,0.123945154 C32.3182273,0.120191918 32.182846,0.123408977 32.0350096,0.123408977 L32.0350096,5.82832741 L33.15705,5.82832741 L33.15705,3.59515211 C33.3335872,3.52759386 33.3639126,3.661638 33.4186066,3.74099213 C33.8973149,4.43748546 34.3722327,5.13612349 34.8455257,5.8310083 L36.2264151,5.8310083 C35.9101643,5.40957353 35.6182823,5.02191789 35.3274832,4.63426225 L35.3274832,4.63426225 Z M33.1635483,2.76193375 L33.1635483,1.0349091 C33.6222202,1.01882381 34.079809,0.972712624 34.4144715,1.36841091 C34.6148359,1.60540095 34.6332478,2.08849601 34.4502122,2.35819282 C34.1399183,2.81608759 33.6585023,2.76944023 33.1635483,2.76193375 Z M28.0954133,5.82993594 L31.2633362,5.82993594 L31.2633362,4.89269934 C30.573433,4.85516699 29.8943603,4.91575494 29.2131215,4.86481816 L29.2131215,3.33993207 L31.1723598,3.33993207 L31.1723598,2.36301841 L29.2244935,2.36301841 L29.2244935,1.10193117 L31.2649607,1.10193117 L31.2649607,0.136813391 L28.0954133,0.136813391 L28.0954133,5.82993594 Z M24.7774881,3.95814363 L23.2520115,0.143783686 L21.9989221,0.143783686 C22.825831,2.11369631 23.6397436,4.05358305 24.4504068,5.9864995 L25.0617889,5.9864995 C25.890864,4.04232334 26.7193977,2.10136425 27.5582203,0.134668685 L26.3273334,0.134668685 C25.8172166,1.39414739 25.310349,2.64397491 24.7774881,3.95814363 L24.7774881,3.95814363 Z M9.79240122,2.58928491 C9.62073771,2.50510519 9.44311742,2.43218518 9.26495561,2.36301841 C9.04347179,2.27723016 8.81873881,2.20055691 8.60916853,2.08688748 C8.39905673,1.97268188 8.25717712,1.81987157 8.27992118,1.56197065 C8.30158219,1.3115762 8.45320926,1.15876589 8.67198546,1.07244146 C9.09112601,0.906226733 9.48264876,0.958772034 9.83626476,1.24777119 C9.89799864,1.29817179 9.93752998,1.38181533 10.0485427,1.39575592 C10.2342858,1.16466383 10.4227366,0.929818501 10.6095629,0.69711788 C9.9765198,0.0606763216 8.82252948,-0.146287825 8.04544073,0.230644286 C7.4400155,0.524469033 7.11997408,1.01292587 7.10156221,1.68153802 C7.08369188,2.34103517 7.43135109,2.76568699 8.01619837,3.02573261 C8.21223052,3.11259321 8.41205333,3.18980264 8.61079311,3.27022912 C8.80953287,3.3506556 9.0136879,3.41982237 9.20701242,3.51097239 C9.52001401,3.65842094 9.66622583,3.90667068 9.64077415,4.22140631 C9.61369788,4.55812518 9.43878523,4.78814492 9.11766075,4.90395905 C8.67685919,5.06320348 8.10988224,4.90771229 7.77576116,4.53346106 C7.68965865,4.43748546 7.61601121,4.33078632 7.54832055,4.24392572 C7.31979689,4.46697517 7.09235629,4.68895226 6.85083603,4.92433376 C7.37665705,5.78328858 8.40988724,6.18381246 9.42362252,5.91947743 C10.2277876,5.70929622 10.7222001,5.13022555 10.8104687,4.29379014 C10.8971128,3.48362738 10.6003569,2.98444702 9.79240122,2.58928491 Z M12.9765698,4.49753723 C12.2682547,3.86431273 12.1155446,2.72332904 12.6359503,1.90994922 C12.8823444,1.52443829 13.2197145,1.24616266 13.6648483,1.11211853 C14.4067379,0.888532907 15.0462792,1.09281617 15.6159639,1.6407886 L15.6159639,0.366296952 C14.504754,-0.307676965 12.8725968,-0.024575749 11.9492963,0.99362351 C10.9642618,2.08045337 10.8927806,3.66807212 11.7781743,4.80798345 C12.6565283,5.93877978 14.3060142,6.30659689 15.6072994,5.65460621 C15.6576613,5.21762233 15.640874,4.54418459 15.5775156,4.39191045 C14.6493413,5.10502526 13.7000475,5.14362997 12.9765698,4.49753723 L12.9765698,4.49753723 Z M5.28636956,5.83154447 L6.37700142,5.83154447 L6.37700142,0.133596332 L5.28636956,0.133596332 L5.28636956,5.83154447 Z" id="形状" fill="#000000"></path>
                            <path d="M16.1006289,3 C16.1006289,4.65685425 17.4522222,6 19.1194969,6 C20.7867715,6 22.1383648,4.65685425 22.1383648,3 C22.1383648,1.34314575 20.7867715,1.06877618e-10 19.1194969,1.06877618e-10 C17.4522222,1.06877618e-10 16.1006289,1.34314575 16.1006289,3 Z" id="路径" fill="#F07824"></path>
                        </g>
                    </g>
                    <g id="编组-9" transform="translate(291.823899, 0.500000)">
                        <rect id="矩形" stroke-opacity="0.1" stroke="#000000" fill="#FFFFFF" x="0" y="0" width="49.3081761" height="31" rx="4"></rect>
                        <g id="编组" transform="translate(12.172950, 6.273437)">
                            <path d="M24.6605389,9.67139089 C24.6605389,3.95193152 19.7866007,-0.00222144742 14.447306,0 L9.85079177,0 C4.44773427,-0.00222142245 -6.03521657e-25,3.95304318 -6.03521657e-25,9.67139089 C-6.03521657e-25,14.9028341 4.4477343,19.2015998 9.85079177,19.1762578 L14.4461873,19.1762578 C19.7866007,19.2015998 24.6594202,14.9017225 24.6594202,9.67139089 L24.6605389,9.67139089 Z" id="路径" fill="#0079BE"></path>
                            <path d="M9.87987657,0.810397578 C4.94217557,0.810397578 0.941899456,4.74009416 0.939662177,9.58801686 C0.940780829,14.4359395 4.94217559,18.3645244 9.87987657,18.3656361 C14.8186963,18.3645244 18.8212097,14.4359395 18.8212097,9.58801686 C18.8212097,4.74009416 14.8186963,0.811509239 9.87987657,0.810397578 Z" id="路径" fill="#FFFFFF"></path>
                            <path d="M4.22847979,9.56578377 C4.23407302,7.19573763 5.74088842,5.17475082 7.86743341,4.37324837 L7.86743341,14.7560958 C5.74200707,13.9545934 4.23295436,11.9347182 4.22847979,9.56467211 L4.22847979,9.56578377 Z M11.9225232,14.7594308 L11.9225232,4.37324837 C14.0501868,5.17363918 15.5592394,7.19573766 15.563714,9.56578377 C15.5592394,11.9369415 14.0501868,13.9568167 11.9225232,14.7594308 Z" id="形状" fill="#0079BE"></path>
                        </g>
                    </g>
                    <g id="编组-9" transform="translate(349.685535, 0.000000)">
                        <rect id="矩形" fill="#FFFFFF" opacity="0" x="0" y="0" width="50.3144654" height="32" rx="4"></rect>
                        <g transform="translate(0.600623, 0.773438)">
                            <rect id="矩形" stroke-opacity="0.1" stroke="#000000" fill="#FFFFFF" x="25.2044692" y="10.7226586" width="4.82230066" height="2.71238671" rx="1.35619335"></rect>
                            <g id="编组">
                                <path d="M40.2594698,30 L26.0814247,30 C24.9985819,30 24.2007938,28.9912387 24.4548838,27.9435045 L30.6978501,2.23776435 C31.0166012,0.924471299 32.1978013,0 33.5547699,0 L47.0743665,0 C48.5196747,0 49.584303,1.34592145 49.2446055,2.74350453 L43.1810505,27.710574 C42.8550137,29.0537764 41.6474028,30 40.2594698,30 L40.2594698,30 Z" id="路径" fill="#007E86"></path>
                                <path d="M24.4548838,27.9435045 L30.6978501,2.23776435 C31.0166012,0.924471299 32.1978013,0 33.5547699,0 L20.6071037,0 C18.9377591,0 17.486076,1.13746224 17.0944675,2.75166163 L11.177538,27.1141994 C10.8205369,28.5851964 11.9398083,30 13.4597953,30 L26.080514,30 C24.9985819,30 24.2007938,28.9912387 24.4548838,27.9435045 L24.4548838,27.9435045 Z" id="路径" fill="#004480"></path>
                                <path d="M11.177538,27.1141994 L17.0944675,2.75166163 C17.4869867,1.13746224 18.9386699,0 20.6071037,0 L9.4963541,0 C7.82700951,0 6.37532632,1.13746224 5.98371794,2.75166163 L0.0667884034,27.1141994 C-0.290212732,28.5851964 0.829058685,30 2.34904567,30 L13.4597953,30 C11.940719,30 10.8205369,28.58429 11.177538,27.1141994 Z" id="路径" fill="#F7002D"></path>
                                <path d="M18.0680243,10.9205438 C17.9031844,10.9422961 17.8612914,11.0193353 17.8412556,11.1643505 C17.7911662,11.5277946 17.7292374,11.889426 17.666398,12.2510574 C17.5653084,12.8256798 17.4032007,13.3839879 17.2073965,13.9332326 C17.1545749,14.0818731 17.1782535,14.152568 17.3640398,14.1453172 C17.8221306,14.129003 18.2811321,14.129003 18.7392227,14.1271903 C18.857616,14.1271903 18.935027,14.0945619 18.9559734,13.9676737 C19.1262776,12.923565 19.3994927,11.9021148 19.643565,10.8743202 C19.6581365,10.8117825 19.6945651,10.7392749 19.6289935,10.6785498 C19.0980454,10.7628399 18.5844009,10.852568 18.0680243,10.9205438 Z M16.4378405,9.81752266 C16.2666256,9.78217523 16.0972322,9.7858006 15.9251067,9.80483384 C15.5316769,9.84833837 15.1783186,9.99697885 14.8404426,10.2072508 C14.8140317,10.0975831 14.8622998,10.0169184 14.8850677,9.93353474 C14.9233178,9.79577039 14.8859784,9.73232628 14.739353,9.76404834 C14.2603157,9.86827795 13.7758141,9.93987915 13.2904019,10.0069486 C13.1510621,10.0259819 13.1109906,10.092145 13.0982406,10.2154079 C13.051794,10.663142 12.9725616,11.1054381 12.8851328,11.5459215 C12.7275787,12.3407855 12.5335959,13.1274924 12.3396132,13.9141994 C12.2840594,14.1380665 12.2895237,14.1425982 12.5144708,14.1398792 C12.9224722,14.1344411 13.3304735,14.1163142 13.737564,14.129003 C13.9306361,14.1353474 13.988922,14.0574018 14.0226185,13.8888218 C14.1856368,13.0694864 14.3668696,12.2537764 14.5226023,11.4326284 C14.5681381,11.1933535 14.6910849,11.0900302 14.9132999,11.0429003 C15.2256759,10.9767372 15.3823193,11.1117825 15.341337,11.4253776 C15.2848726,11.8522659 15.2001758,12.2746224 15.1054612,12.6951662 C14.9998181,13.1628399 14.8905319,13.6305136 14.7785137,14.1163142 C14.829514,14.1299094 14.8531926,14.1425982 14.8768712,14.1425982 C15.3486227,14.1398792 15.8194635,14.1063444 16.2921257,14.1253776 C16.4260011,14.1308157 16.4578762,14.0383686 16.4770013,13.9287009 C16.5935731,13.2480363 16.7365557,12.573716 16.8868241,11.8993958 C16.9833601,11.4679758 17.1135927,11.0401813 17.0953783,10.5897281 C17.077164,10.1755287 16.8431096,9.90181269 16.4378405,9.81752266 L16.4378405,9.81752266 Z M13.0199189,6.83111782 C12.9862224,6.8265861 12.955258,6.81933535 12.9242935,6.81933535 C12.4142919,6.81570997 11.9042903,6.81752266 11.393378,6.80664653 C11.2768062,6.80392749 11.2749848,6.87009063 11.2585919,6.94531722 C11.0418412,7.94773414 10.8296441,8.9510574 10.6037862,9.95166163 C10.4562501,10.6060423 10.353339,11.2722054 10.1156418,11.9030211 C9.84880165,12.6108761 9.33606788,12.9507553 8.60749414,12.9126888 C8.15668913,12.8891239 7.85979533,12.6072508 7.81881305,12.163142 C7.78147365,11.7589124 7.8743668,11.3637462 7.96452781,10.9794562 C8.23774296,9.82114804 8.54374393,8.67099698 8.8388163,7.51812689 C8.89619148,7.29335347 8.95994169,7.0694864 9.02551332,6.8265861 L6.95272102,6.8265861 C6.91447089,6.99607251 6.87622077,7.16193353 6.83979208,7.32779456 C6.52559466,8.76253776 6.15766492,10.1854985 5.88536048,11.6293051 C5.82434243,11.9519637 5.75239577,12.2800604 5.76969939,12.6090634 C5.8070388,13.3377644 6.14946846,13.7655589 6.87986364,13.9785498 C7.81425947,14.2504532 8.75594103,14.2205438 9.68942614,13.963142 C10.6165363,13.7066465 11.2640562,13.1320242 11.6055751,12.2311178 C11.6948254,11.9945619 11.7767899,11.7534743 11.8405402,11.5087613 C12.2139342,10.0685801 12.5827746,8.62749245 12.9497936,7.18549849 C12.9780259,7.07039275 13.0445083,6.96253776 13.0199189,6.83111782 L13.0199189,6.83111782 Z M19.656315,9.48851964 C19.1982242,9.2102719 18.2893285,9.43685801 18.0133812,9.89728097 C17.8758629,10.1274924 17.9286845,10.3640483 18.1572745,10.5054381 C18.3120964,10.6024169 18.4869542,10.634139 18.7337585,10.6359517 C19.0880275,10.6132931 19.4741716,10.5054381 19.7546724,10.1691843 C19.962316,9.92084592 19.9176908,9.64622356 19.656315,9.48851964 L19.656315,9.48851964 Z M36.0710815,10.7311178 C35.5847585,11.2975831 35.4017044,11.9900302 35.335222,12.7132931 C35.238686,13.7664653 35.9135274,14.2477341 36.861584,14.2703927 C37.1848886,14.2776435 37.4480858,14.1425982 37.7103724,13.9685801 C37.6967116,14.2187311 37.7012652,14.2314199 37.930766,14.2160121 C38.3770174,14.1851964 38.8232688,14.1824773 39.2695202,14.1906344 C39.40886,14.1933535 39.4707887,14.1471299 39.4944673,14.0012085 C39.6283427,13.1900302 39.7931826,12.38429 39.9844332,11.5839879 C40.1064693,11.073716 40.2294162,10.5625378 40.3496308,10.0522659 C40.3705773,9.96253776 40.4170239,9.83836858 40.245809,9.86465257 C39.7248788,9.94531722 39.2048593,10.036858 38.6839291,10.1202417 C38.5910359,10.1347432 38.5536965,10.1864048 38.5354822,10.2906344 C38.287767,9.99879154 38.0099984,9.81480363 37.6393365,9.86646526 C37.0091202,9.95347432 36.4818149,10.252568 36.0710815,10.7311178 L36.0710815,10.7311178 Z M37.4435323,11.1543807 C37.5746755,10.934139 37.8132834,10.8516616 38.0191055,10.9151057 C38.2048919,10.9722054 38.3187315,11.2042296 38.3169101,11.5966767 C38.220374,11.9936556 38.1702846,12.4758308 37.9508017,12.9117825 C37.8278549,13.1546828 37.6010863,13.2570997 37.3424427,13.281571 C37.1238705,13.3024169 36.9608521,13.1555891 36.9726915,12.8963746 C37.0018345,12.2845921 37.1247813,11.6891239 37.4435323,11.1543807 L37.4435323,11.1543807 Z M23.3283266,15.9589124 C23.0806116,15.9643505 22.7882714,15.8682779 22.5988422,15.9960725 C22.4194309,16.1166163 22.3283592,16.3858006 22.2281803,16.6033233 C22.084287,16.9151057 21.874822,17.0891239 21.514178,17.0374622 C21.4440528,17.0274924 21.3739275,17.0338369 21.3475168,17.1244713 C21.2655522,17.402719 21.1799449,17.6800604 21.0870517,17.9882175 C21.3529811,17.9882175 21.5824818,17.9954683 21.8101611,17.9864048 C22.2154302,17.9700906 22.5806278,17.8305136 22.8957361,17.5785498 C22.9931827,17.5006042 23.0869866,17.4706949 23.208112,17.4706949 C23.813739,17.4743202 24.4193658,17.4734139 25.0249928,17.4706949 C25.0960287,17.4706949 25.1943862,17.5042296 25.2253505,17.4072508 C25.3200651,17.1099698 25.4047619,16.8099698 25.5012978,16.4864048 L23.9303107,16.4864048 C23.9849538,16.2942598 24.1188292,16.1546828 24.1607222,15.9570997 C23.8747569,15.9570997 23.6015418,15.952568 23.3283266,15.9589124 L23.3283266,15.9589124 Z M31.1641373,14.1462236 C31.4373525,14.1462236 31.435531,14.1471299 31.4883526,13.8833837 C31.6304245,13.176435 31.7779607,12.4703927 31.9537291,11.7706949 C31.9974435,11.5966767 32.0821402,11.5015106 32.2852302,11.5096677 C32.7569816,11.5277946 33.2287332,11.5015106 33.6959311,11.4380665 C34.3170402,11.3528701 34.8980778,11.1598187 35.3844007,10.7465257 C36.1202602,10.121148 36.471797,9.30362538 36.5328151,8.36283988 C36.5838152,7.58247734 36.1585103,7.05679758 35.3907757,6.88640483 C34.9718458,6.7939577 34.5438088,6.7858006 34.1175932,6.77492447 C33.2250903,6.75407855 32.3325875,6.83564955 31.4400846,6.7694864 C31.2761555,6.75770393 31.2652269,6.86012085 31.2451911,6.96253776 C30.8481184,8.94833837 30.3499561,10.910574 29.8663653,12.8755287 C29.7652757,13.2861027 29.6696504,13.6984894 29.5630965,14.1453172 C30.1204554,14.1462236 30.6422964,14.1453172 31.1641373,14.1462236 L31.1641373,14.1462236 Z M32.8516962,7.90785498 C33.0566076,7.87160121 33.2551439,7.94501511 33.4573232,7.94138973 C33.615788,7.93867069 33.7742528,7.96314199 33.9327175,7.97854985 C34.2888079,8.01389728 34.5410766,8.28308157 34.565666,8.65015106 C34.6239519,9.53202417 33.960039,10.2743202 33.0739112,10.3141994 C32.8225533,10.3250755 32.5711954,10.3740181 32.2970695,10.3241692 C32.4837665,9.51208459 32.6668206,8.71450151 32.8516962,7.90785498 L32.8516962,7.90785498 Z M22.2673412,14.1761329 C23.0004684,14.0564955 23.6070061,13.7311178 23.9804002,13.0667674 C24.3146334,12.4703927 24.493134,11.8277946 24.4803839,11.1398792 C24.4694553,10.5380665 24.1415971,10.1129909 23.562381,9.92900302 C23.2035584,9.81480363 22.834718,9.79939577 22.4658775,9.82749245 C21.5870354,9.89456193 20.8730332,10.2498489 20.4358889,11.0465257 C20.1444594,11.5776435 20.0069411,12.1531722 19.9759768,12.6534743 C19.9550302,13.523565 20.3184063,13.9848943 21.0715695,14.1471299 C21.4677314,14.2332326 21.868447,14.2413897 22.2673412,14.1761329 L22.2673412,14.1761329 Z M21.9804652,11.2123867 C22.0669833,11.0238671 22.1908409,10.8661631 22.409413,10.8108761 C22.6279851,10.7555891 22.7691463,10.8326284 22.8301643,11.047432 C22.8820753,11.2296073 22.8529323,11.4108761 22.8237894,11.5930514 C22.7664142,11.9492447 22.6844496,12.3 22.5542171,12.6380665 C22.5041276,12.7694864 22.4394667,12.8918429 22.3502165,13.0006042 C22.1890195,13.1954683 21.9850189,13.2779456 21.8174468,13.2009063 C21.6161783,13.1084592 21.597964,12.9244713 21.5997855,12.7314199 C21.6571607,12.2075529 21.759161,11.6945619 21.9804652,11.2123867 L21.9804652,11.2123867 Z M24.6980453,14.1453172 C25.1060466,14.1308157 25.5140479,14.1172205 25.9220492,14.1299094 C26.1251391,14.1362538 26.2016393,14.0682779 26.2344252,13.8752266 C26.3728542,13.063142 26.5668369,12.2628399 26.724391,11.4543807 C26.7790341,11.1752266 26.9293024,11.073716 27.1733746,11.0302115 C27.4156254,10.9876133 27.5640723,11.1090634 27.5495008,11.3501511 C27.542215,11.4697885 27.5249114,11.589426 27.5057864,11.7081571 C27.3819289,12.4649547 27.1934104,13.2081571 27.0212848,13.9549849 C27.0085348,14.0093656 26.9775704,14.0619335 27.0149098,14.1217523 C27.0303921,14.1271903 27.0476956,14.1398792 27.0649992,14.1398792 C27.5367508,14.1398792 28.0085022,14.1371601 28.4802538,14.1371601 C28.6305221,14.1371601 28.6724151,14.0392749 28.6906294,13.9169184 C28.7862547,13.2915408 28.930148,12.6752266 29.0603806,12.0561934 C29.1632917,11.5685801 29.3235779,11.0891239 29.307185,10.5806647 C29.2953456,10.1954683 29.0740414,9.91812689 28.7006473,9.82749245 C28.5130396,9.78217523 28.3236104,9.77945619 28.1314491,9.80302115 C27.745305,9.85015106 27.3919468,9.98429003 27.0531599,10.2054381 C27.0231063,10.0858006 27.0713743,10.0042296 27.0904993,9.91993958 C27.1241959,9.77039275 27.0713743,9.73867069 26.9311238,9.76404834 C26.4548187,9.84833837 25.9785137,9.93172205 25.5003871,10.0033233 C25.3646903,10.0232628 25.3209759,10.0821752 25.3064044,10.2090634 C25.2699756,10.5108761 25.2262612,10.8117825 25.1734397,11.1117825 C25.0058677,12.0670695 24.7709026,13.0069486 24.5386698,13.9477341 C24.4985982,14.1072508 24.5368484,14.1507553 24.6980453,14.1453172 L24.6980453,14.1453172 Z M45.4323433,9.82296073 C45.3777003,9.75045317 45.3057537,9.79577039 45.2392713,9.80845921 C44.8267165,9.88277946 44.4168937,9.97432024 43.9979638,10.0141994 C43.8322133,10.0296073 43.7256594,10.0984894 43.6600877,10.2652568 C43.4387835,10.8299094 43.1072824,11.3410876 42.8322458,11.8830816 C42.8422637,11.5812689 42.7857992,11.2876133 42.780335,10.9912387 C42.7739599,10.6549849 42.7539241,10.3196375 42.7347991,9.98429003 C42.7293347,9.88096677 42.7120312,9.75951662 42.564495,9.79033233 C42.0909221,9.88821752 41.6155276,9.9734139 41.1383118,10.0477341 C41.0290258,10.0649547 40.9944185,10.1374622 41.0162757,10.2435045 C41.086401,10.578852 41.1155439,10.9196375 41.1638119,11.2577039 C41.2894909,12.1477341 41.3942234,13.0404834 41.4916701,13.934139 C41.5053309,14.0564955 41.5208131,14.1806647 41.4479557,14.3030211 C41.0272043,15.0126888 40.6246674,15.7323263 40.1775052,16.4265861 C40.0673085,16.5987915 39.946183,16.7057402 39.7312538,16.6785498 C39.6574857,16.6694864 39.5755212,16.6649547 39.5454675,16.7664653 C39.4644137,17.0383686 39.3815384,17.3102719 39.2904667,17.6120846 C39.6274321,17.6628399 39.9325224,17.6483384 40.2367019,17.647432 C40.7403285,17.647432 41.1319368,17.4471299 41.386027,16.9975831 C41.7011351,16.4401813 42.0317254,15.8909366 42.3395479,15.329003 C43.3213009,13.5371601 44.36134,11.7770393 45.3849861,10.0087613 C45.4159505,9.95347432 45.4897185,9.89909366 45.4323433,9.82296073 L45.4323433,9.82296073 Z M23.423952,22.1864048 C23.1470939,22.223565 22.8711467,22.281571 22.5888244,22.2244713 C22.4522168,22.1963746 22.3911987,22.1501511 22.4458417,21.9933535 C22.5587706,21.6643505 22.6571281,21.329003 22.7491105,20.9936556 C22.7818964,20.8731118 22.8356287,20.8332326 22.9594862,20.8350453 C23.3802376,20.8422961 23.8018996,20.8386707 24.222651,20.836858 C24.2945976,20.836858 24.3811158,20.860423 24.4120801,20.7561934 C24.4995089,20.4679758 24.5878486,20.1797583 24.6871167,19.8570997 L23.0979152,19.8570997 C23.1817012,19.5851964 23.25638,19.3441088 23.333791,19.092145 L23.5496309,19.092145 C23.9448822,19.092145 24.3410441,19.0930514 24.7362954,19.0912387 C24.795492,19.0912387 24.8738137,19.118429 24.9011352,19.0350453 C24.9940284,18.7486405 25.0832787,18.4622356 25.1734397,18.1785498 C25.1351895,18.1613293 25.1233502,18.1522659 25.1124216,18.1522659 C23.868382,18.1495468 22.6243422,18.1477341 21.3803026,18.1468264 C21.3302131,18.1468264 21.2728379,18.1459215 21.2537129,18.2084592 C21.1644626,18.494864 21.0779446,18.7821752 20.9814085,19.0975831 L21.8629827,19.0975831 C21.7965003,19.3196375 21.7291073,19.5181269 21.6790179,19.7202417 C21.6516963,19.8308157 21.5943211,19.8598187 21.4904994,19.8570997 C21.2928738,19.8516616 21.0952481,19.855287 20.8976225,19.8561934 C20.8274973,19.8561934 20.7519077,19.8489426 20.725497,19.9377644 C20.6362466,20.2332326 20.5488178,20.5287009 20.4531926,20.8468278 L21.3329453,20.8468278 C21.1617305,21.4123867 20.9932478,21.9561934 20.8320508,22.5018127 C20.7482649,22.7854985 20.924944,23.0900302 21.2127307,23.1643505 C21.3047131,23.1879154 21.4003384,23.2087613 21.495053,23.2096677 C22.0943049,23.2160121 22.6944675,23.2169184 23.2937194,23.2187311 C23.3492732,23.2187311 23.4166663,23.2296073 23.4394342,23.158006 C23.5387023,22.8344411 23.636149,22.5090634 23.7354173,22.1773414 C23.610649,22.1528701 23.5177559,22.173716 23.423952,22.1864048 L23.423952,22.1864048 Z M31.2114945,16.1537764 C31.2278875,16.0975831 31.2716019,16.0386707 31.2269768,15.9661631 C31.1932802,15.9625378 31.1559408,15.9543807 31.1186015,15.9543807 C30.4610636,15.9561934 29.8026151,15.9308157 29.1478094,15.9697885 C28.569504,16.0042296 27.9957523,16.1120846 27.5240007,16.5 C27.4893935,16.5280967 27.4547862,16.5725076 27.391036,16.5516616 C27.4429469,16.3640483 27.4930364,16.1827795 27.5540543,15.9652568 C27.1314817,15.9652568 26.7435161,15.9706949 26.3555506,15.9625378 C26.2171216,15.9598187 26.1533714,16.0042296 26.1142105,16.1383686 C25.9338885,16.7592145 25.7426379,17.376435 25.5568516,17.9954683 C25.0978502,19.5244713 24.6361165,21.0534743 24.1816686,22.5833837 C24.0933291,22.8806647 24.2618117,23.1226586 24.5705449,23.1743202 C24.6579737,23.1888218 24.7472241,23.2006042 24.8364744,23.2024169 C25.2891008,23.2132931 25.7417272,23.2241692 26.1952643,23.2287009 C26.6387836,23.2332326 26.6433372,23.2314199 26.7635519,22.8081571 C26.8263913,22.5870091 26.9211059,22.3731118 26.940231,22.1138973 C26.6569979,22.1429003 26.39289,22.1728097 26.1278713,22.197281 C25.8282453,22.2244713 25.7608522,22.1483384 25.8446382,21.8637462 C26.0322459,21.2320242 26.2298716,20.6030211 26.4129258,19.9703927 C26.4493545,19.8435045 26.508551,19.8226586 26.627855,19.823565 C27.4575184,19.8280967 28.2871817,19.8326284 29.1159344,19.8190332 C29.6013466,19.8108761 29.9856692,19.6015106 30.2270093,19.1646526 C30.3372061,18.9643505 30.4255457,18.7540785 30.492028,18.5347432 C30.7342787,17.7416918 30.9747081,16.9486405 31.2114945,16.1537764 L31.2114945,16.1537764 Z M28.6423615,18.9208459 C28.0121451,18.923565 27.3819289,18.9217523 26.7389625,18.9217523 C26.7353196,18.7939577 26.7881413,18.7042296 26.8109092,18.6063444 C26.8263913,18.5392749 26.8646415,18.5138973 26.9329453,18.5138973 C27.6077867,18.5175227 28.2835388,18.5193353 28.9583803,18.5220544 C28.9702196,18.5220544 28.9811482,18.5320242 28.9929876,18.5374622 C28.9975411,18.8537764 28.9419873,18.9190332 28.6423615,18.9208459 Z M29.3836852,17.429003 C29.3590958,17.5178248 29.2907921,17.5169184 29.217024,17.5169184 C28.9492732,17.5160121 28.6815222,17.5132931 28.4137714,17.5205438 C27.9711629,17.5323263 27.5658937,17.673716 27.1888568,17.8984894 C27.1396781,17.9274924 27.0904993,17.9555891 27.0413207,17.9836858 C27.036767,17.9864048 27.0294813,17.9836858 27.0030705,17.9818731 C27.0932315,17.6909366 27.1833925,17.4036254 27.2699106,17.1163142 C27.288125,17.0574018 27.323643,17.0338369 27.3810182,17.0338369 L29.4966141,17.0338369 C29.4528997,17.1879154 29.4173817,17.3075529 29.3836852,17.429003 L29.3836852,17.429003 Z" id="形状" fill="#FFFFFF"></path>
                                <path d="M39.2103236,17.892145 C38.4252854,17.892145 37.6411579,17.8912387 36.8561196,17.8939577 C36.7914587,17.8939577 36.7012977,17.8595166 36.6712441,17.9483384 C36.5728866,18.244713 36.4727077,18.5401813 36.4062254,18.8691843 L38.0273019,18.8691843 C37.9954269,19.0821752 37.9125516,19.2616314 37.8670157,19.4501511 C37.8378728,19.5716012 37.7786762,19.610574 37.6548186,19.6087613 C37.2021922,19.6024169 36.7486551,19.605136 36.2960286,19.6069486 C36.236832,19.6069486 36.1557782,19.5806647 36.1284567,19.660423 C36.0419385,19.9205438 35.9463133,20.178852 35.895313,20.4806647 L37.3315141,20.4806647 C36.9772451,20.9782477 36.6339047,21.4350453 36.3178858,21.9108761 C36.1065994,22.2280967 35.7750984,22.3350453 35.3598113,22.2471299 C35.3616328,22.1229607 35.4527045,22.0123867 35.4290258,21.8827795 C35.3242933,21.8238671 35.1995251,21.8954683 35.1002569,21.8347432 C35.0756676,21.7830816 35.1002569,21.7432024 35.113007,21.7006042 C35.5710978,20.1924471 36.0310099,18.6851964 36.4845471,17.1761329 C36.5237079,17.044713 36.5792617,16.9939577 36.7213335,16.9966767 C37.0737811,17.0030211 37.0200488,17.0456193 37.1220491,16.7102719 C37.1275134,16.6912387 37.1302455,16.6586103 37.1703171,16.660423 C37.1703171,16.7564955 37.1694064,16.8516616 37.1703171,16.9468278 C37.1748707,17.3891239 37.4007286,17.6320242 37.84698,17.6483384 C38.1976061,17.6619335 38.5482323,17.6519637 38.8997691,17.6510574 C38.9489477,17.6510574 39.0081444,17.6610272 39.0290909,17.5975831 C39.1247162,17.3012085 39.2294487,17.0057402 39.2950203,16.7003021 C39.1119662,16.6404834 38.9070548,16.7510574 38.7932151,16.6232628 C38.6784648,16.4954683 38.7258221,16.2951662 38.7285542,16.1265861 C38.7303756,15.9888218 38.6757326,15.9561934 38.5482323,15.9543807 C37.4763181,15.9444109 36.4062254,15.9779456 35.3361327,16.0323263 C34.9609172,16.0513595 34.6075589,16.1429003 34.2915401,16.3540785 C34.2633079,16.3731118 34.2332542,16.4048338 34.1849862,16.3848943 C34.1877183,16.2444109 34.2906293,16.118429 34.2623972,15.952568 C33.9773427,15.952568 33.6977525,15.9480363 33.4181623,15.9543807 C33.2223581,15.9589124 32.9864824,15.876435 32.8407676,15.9915408 C32.70416,16.0993958 32.7078029,16.336858 32.6531598,16.5181269 C32.1249439,18.2564955 31.5994601,19.994864 31.074887,21.734139 C31.0375476,21.8574018 31.0029404,21.9643505 30.8381005,21.9362538 C30.7707075,21.9244713 30.7169752,21.9462236 30.6932965,22.0250755 C30.6095105,22.3087613 30.5202602,22.5906344 30.4219028,22.907855 L33.2551439,22.907855 C33.2943048,23.0256798 33.1986794,23.1036254 33.2496796,23.2141994 C33.6859132,23.2141994 34.1312538,23.2132931 34.5765946,23.2151057 C34.6412554,23.2151057 34.6603806,23.1743202 34.6822378,23.1253776 C34.7915238,22.8779456 34.8042739,22.8734139 35.0902391,22.9350453 C35.1157392,23.0274924 35.022846,23.1108761 35.0665604,23.2214502 C35.4445081,23.2386707 35.8251878,23.2323263 36.2067784,23.2205438 C36.6175117,23.207855 36.9426378,23.0320242 37.1894422,22.7138973 C37.4153,22.4229607 37.6284078,22.1220544 37.8488014,21.8256798 C37.8870516,21.7740181 37.9161945,21.7087613 37.9963376,21.681571 C38.0418734,21.9779456 38.08832,22.258006 38.1265702,22.5398792 C38.1566238,22.7619335 38.2631778,22.9151057 38.4562498,23.041994 C38.6948577,23.1987915 38.9553228,23.1770393 39.212145,23.1960725 C39.7030216,23.2323263 39.7057538,23.2268882 39.8478256,22.7619335 C39.9097544,22.5598187 39.9935403,22.363142 40.017219,22.1519637 C39.920683,22.1120846 39.836897,22.1274924 39.7549324,22.1256798 C39.4689672,22.118429 39.4507529,22.0984894 39.4106814,21.8166163 C39.3678776,21.51571 39.3095917,21.2175227 39.266788,20.9166163 C39.2531273,20.8187311 39.2085021,20.7888218 39.1165197,20.7906344 C38.9598763,20.7942598 38.8023223,20.7915408 38.6365718,20.7915408 C38.7704472,20.5151057 38.8360188,20.4716012 39.1019483,20.4716012 C39.5290746,20.4716012 39.9571116,20.4725076 40.3842381,20.4706949 C40.4434347,20.4706949 40.5272206,20.4987915 40.5527207,20.4208459 C40.6401495,20.1607251 40.7175606,19.8969789 40.8086323,19.605136 L39.2595023,19.605136 C39.3259847,19.3930514 39.3942885,19.2099698 39.4398243,19.0214502 C39.4707887,18.8954683 39.5363604,18.8664653 39.6556643,18.8682779 C40.0636656,18.873716 40.4725776,18.870997 40.8805789,18.8700906 C40.941597,18.8700906 41.0235615,18.8909366 41.0481508,18.8148036 C41.1437762,18.5175227 41.2321157,18.2175227 41.3304732,17.8930514 L41.0854903,17.8930514 C40.4607383,17.892145 39.8359863,17.892145 39.2103236,17.892145 L39.2103236,17.892145 Z M33.651306,21.792145 C33.6358237,21.8429003 33.6021272,21.8637462 33.5529484,21.8637462 L32.5192844,21.8637462 C32.6240169,21.521148 32.720553,21.2084592 32.8152675,20.894864 C32.8316605,20.839577 32.8617141,20.810574 32.9236429,20.8114804 C33.2533225,20.8132931 33.5839129,20.8123867 33.9463783,20.8123867 C33.8425565,21.1549849 33.7460205,21.4731118 33.651306,21.792145 L33.651306,21.792145 Z M34.2942722,19.6731118 C34.2806115,19.718429 34.25329,19.7537764 34.2022898,19.7574018 C33.8043064,19.7854985 33.4372873,19.9178248 33.0438575,20.1190332 C33.1695365,19.7093656 33.2779118,19.3522659 33.3871979,18.9960725 C33.4054123,18.9362538 33.4126981,18.8700906 33.5019483,18.8700906 C33.8380029,18.8719033 34.1740576,18.870997 34.5365231,18.870997 C34.4509156,19.1564955 34.3725939,19.4148036 34.2942722,19.6731118 Z M34.8689347,17.7833837 C34.8507204,17.8459215 34.8051846,17.8830816 34.7441665,17.8848943 C34.3607546,17.892145 34.0137714,18.0353474 33.6321808,18.1939577 C33.7533063,17.8006042 33.8644138,17.4416918 33.9736998,17.0809668 C33.9919142,17.021148 34.0283428,17.0012085 34.085718,17.0012085 L35.1029891,17.0012085 C35.0201138,17.2776435 34.9445243,17.5305136 34.8689347,17.7833837 L34.8689347,17.7833837 Z M29.5038999,19.9667674 C29.0066483,19.9694864 29.1204879,19.9069486 28.9747732,20.3456193 C28.9428981,20.4435045 28.9101123,20.5486405 28.7862547,20.5567976 C28.6487364,20.565861 28.5103074,20.5586103 28.3773427,20.5586103 C28.3299854,20.4172205 28.3736998,20.2984894 28.3773427,20.1797583 C28.3800749,20.0954683 28.3718784,20.0274924 28.2607709,20.0274924 C27.8600553,20.0293051 27.4593398,20.0283988 27.0558921,20.0283988 C27.0394992,20.0664653 27.0303921,20.0773414 27.0294813,20.0891239 C26.9721061,20.9564955 26.9976061,21.8265861 26.9657311,22.694864 C26.9548025,23.0003021 27.1050708,23.1371601 27.4156254,23.1725076 C27.9429306,23.2323263 28.4720573,23.205136 29.001184,23.210574 C29.0603806,23.2114804 29.1232201,23.2096677 29.1441665,23.1425982 C29.2397919,22.8371601 29.3317743,22.5308157 29.4237568,22.2280967 C29.3335958,22.1836858 29.2616491,22.1981873 29.1933453,22.2009063 C28.9765946,22.2099698 28.7607546,22.2253776 28.5449147,22.2362538 C28.4338072,22.2416918 28.3226997,22.2099698 28.3154139,22.0885196 C28.2999318,21.844713 28.3108604,21.6 28.3108604,21.3561934 C28.6013791,21.323565 28.8609335,21.3099698 29.1223093,21.3054381 C29.4392389,21.2990937 29.716097,21.1812689 29.8927762,20.9175227 C30.0749195,20.6438066 30.0904017,20.3138973 30.1523305,19.9867069 C29.9219191,19.9477341 29.7124541,19.965861 29.5038999,19.9667674 L29.5038999,19.9667674 Z" id="形状" fill="#FFFFFF"></path>
                            </g>
                        </g>
                    </g>
                </g>
            </g>
        </g>
    </g>
</svg>