<?xml version="1.0" encoding="UTF-8"?>
<svg width="62px" height="62px" viewBox="0 0 62 62" version="1.1" xmlns="http://www.w3.org/2000/svg" xmlns:xlink="http://www.w3.org/1999/xlink">
    <title>backtop</title>
    <g id="25.4" stroke="none" stroke-width="1" fill="none" fill-rule="evenodd">
        <g id="素材管理备份" transform="translate(-1092.000000, -176.000000)">
            <g id="backtop" transform="translate(1092.000000, 176.000000)">
                <circle id="椭圆形" fill="#FFFFFF" cx="31" cy="31" r="31"></circle>
                <g id="编组" transform="translate(19.000000, 19.000000)" fill="#484848" fill-rule="nonzero">
                    <path d="M22.4347826,0 L1.56521739,0 C0.709565217,0 0,0.709565217 0,1.56521739 C0,2.42086957 0.709565217,3.13043478 1.56521739,3.13043478 L22.4347826,3.13043478 C23.2904348,3.13043478 24,2.42086957 24,1.56521739 C24,0.709565217 23.2904348,0 22.4347826,0 Z M13.2730435,6.88695652 C12.9312363,6.55362104 12.477176,6.36008715 12,6.34434783 C11.5826087,6.34434783 11.04,6.57391304 10.7478261,6.86608696 L3.58956522,14.0243478 C2.98434783,14.6295652 2.98434783,15.6313043 3.58956522,16.2365217 C4.19478261,16.8417391 5.19652174,16.8417391 5.80173913,16.2365217 L10.4347826,11.6034783 L10.4347826,22.9565217 C10.4347826,23.8121739 11.1443478,24.5217391 12,24.5217391 C12.8556522,24.5217391 13.5652174,23.8121739 13.5652174,22.9565217 L13.5652174,11.6034783 L18.1982609,16.2365217 C18.5113043,16.5495652 18.9078261,16.6956522 19.3043478,16.6956522 C19.7008696,16.6956522 20.0973913,16.5495652 20.4104348,16.2365217 C21.0156522,15.6313043 21.0156522,14.6295652 20.4104348,14.0243478 L13.2730435,6.88695652 Z" id="形状"></path>
                </g>
            </g>
        </g>
    </g>
</svg>