<?xml version="1.0" encoding="UTF-8"?>
<svg width="16px" height="16px" viewBox="0 0 16 16" version="1.1" xmlns="http://www.w3.org/2000/svg" xmlns:xlink="http://www.w3.org/1999/xlink">
    <title>select</title>
    <g id="det门户" stroke="none" stroke-width="1" fill="none" fill-rule="evenodd">
        <g id="首页" transform="translate(-512.000000, -512.000000)" fill="#999999" fill-rule="nonzero">
            <g id="编组-32" transform="translate(376.000000, 504.000000)">
                <g id="编组-6备份" transform="translate(136.000000, 8.000000)">
                    <g id="编组" transform="translate(2.005648, 5.009101)">
                        <path d="M5.4845251,6.44632685 L0.196284973,1.15784001 C-0.0665171003,0.891879571 -0.0652655881,0.463629709 0.199086463,0.199209823 C0.463438513,-0.065210062 0.891688041,-0.0665714522 1.15771589,0.196162374 L5.96561063,5.00455053 L10.7735054,0.196162374 C11.043737,-0.0644246949 11.4739606,-0.0569175856 11.7349363,0.21293869 C11.989286,0.476556158 11.989286,0.894222538 11.7349363,1.15784001 L6.44669616,6.44632685 C6.31927766,6.57396969 6.14636627,6.64575904 5.96601065,6.64589805 C5.78565503,6.64603665 5.61263335,6.57451354 5.48501853,6.44706698 L5.48427839,6.44632685 L5.4845251,6.44632685 Z" id="路径"></path>
                    </g>
                </g>
            </g>
        </g>
    </g>
</svg>