<svg xmlns="http://www.w3.org/2000/svg" width="32" height="32" viewBox="0 0 32 32"><defs><style>.a{fill:none;}.b{fill:#fbbc05;}.c{fill:#ea4335;}.d{fill:#34a853;}.e{fill:#4285f4;}</style></defs><circle class="a" cx="16" cy="16" r="16"/><g transform="translate(6 6)"><path class="b" d="M4.164,10.068a5.923,5.923,0,0,1,.3-1.869L1.044,5.608a10.048,10.048,0,0,0,0,8.916l3.424-2.6a5.9,5.9,0,0,1-.3-1.861"/><path class="c" d="M10.181,4.12a5.925,5.925,0,0,1,3.748,1.326L16.89,2.518A10.23,10.23,0,0,0,1.044,5.608L4.472,8.2a5.993,5.993,0,0,1,5.71-4.079"/><path class="d" d="M10.224,15.883a6.019,6.019,0,0,1-5.74-4.054L1.042,14.4a10.222,10.222,0,0,0,9.182,5.572,9.866,9.866,0,0,0,6.665-2.493l-3.268-2.474a6.432,6.432,0,0,1-3.4.875"/><path class="e" d="M19.989,9.973a8.155,8.155,0,0,0-.233-1.819H10.223v3.865H15.71a4.5,4.5,0,0,1-2.089,2.99l3.268,2.474a9.844,9.844,0,0,0,3.1-7.51"/></g></svg>