<?xml version="1.0" encoding="UTF-8"?>
<svg width="20px" height="20px" viewBox="0 0 20 20" version="1.1" xmlns="http://www.w3.org/2000/svg" xmlns:xlink="http://www.w3.org/1999/xlink">
    <title>编组 30备份 4</title>
    <g id="det门户" stroke="none" stroke-width="1" fill="none" fill-rule="evenodd">
        <g id="首页交互说明" transform="translate(-120.000000, -841.000000)">
            <g id="编组-3" transform="translate(112.000000, 832.000000)">
                <g id="编组-30备份-4" transform="translate(8.000000, 9.000000)">
                    <circle id="椭圆形" fill="#6936E9" cx="10" cy="10" r="10"></circle>
                    <g id="编组-5" transform="translate(4.444444, 5.000000)" fill="#FFFFFF" fill-rule="nonzero">
                        <g id="编组">
                            <path d="M9.29410627,0.248633266 L9.31642819,0.26585786 C9.46278652,0.382003961 9.55659626,0.552504923 9.57674827,0.738994473 C9.59690027,0.925484022 9.54170172,1.11229655 9.42357344,1.25739534 L2.6540771,9.57013405 C2.41474845,9.86442455 1.98552322,9.9120191 1.68828173,9.67722609 L1.66595981,9.6592526 C1.51949011,9.54321628 1.42553613,9.37277016 1.40524365,9.18627581 C1.38495118,8.99978145 1.44002522,8.81290832 1.55807049,8.66771512 L8.32756684,0.35497641 C8.56717542,0.0604500824 8.99693525,0.0131659159 9.29410627,0.248633266 L9.29410627,0.248633266 Z M2.14736936,0.000748895379 L2.31627194,0.000748895379 C2.31627194,1.19482219 3.27801508,2.16280986 4.46438537,2.16280986 L4.46438537,2.33280911 C3.27859599,2.33280882 2.31709341,3.29988395 2.31627194,4.49337228 L2.14736936,4.49337228 C2.1469587,3.29988383 1.18578921,2.33247354 0,2.33206021 L0,2.16206096 C1.1860797,2.16164746 2.14736943,1.1937809 2.14736936,0 L2.14736936,0.000748895379 Z M9.22490829,4.86781997 L9.47119355,4.86781997 C9.47119355,5.77847675 10.2055849,6.51763649 11.1111111,6.51763649 L11.1111111,6.70036696 C10.2057001,6.70036686 9.47160436,7.43889385 9.47119355,8.35018348 L9.22490829,8.35018348 C9.22449749,7.43889385 8.4904017,6.70036686 7.58499074,6.70036696 L7.58499074,6.51763649 C8.49069219,6.51763649 9.22490829,5.77865318 9.22490829,4.86707107 L9.22490829,4.86781997 Z M7.24718558,7.78326968 L7.41385596,7.78326968 C7.41385596,8.36066801 7.87889611,8.82872763 8.45256963,8.82872763 L8.45256963,8.95529095 C7.87889611,8.95529095 7.41385596,9.42260166 7.41385596,10 L7.24718558,10 C7.24718558,9.42335056 6.78214543,8.95529095 6.20847192,8.95529095 L6.20847192,8.82872763 C6.78214543,8.82872763 7.24718558,8.36066801 7.24718558,7.78326968 Z" id="形状"></path>
                        </g>
                    </g>
                </g>
            </g>
        </g>
    </g>
</svg>